M48
;Layer_Color=6321
;FILE_FORMAT=4:4
METRIC,LZ
;TYPE=PLATED
T1F00S00C0.3000
T2F00S00C0.6500
T4F00S00C0.7620
T5F00S00C0.8000
T6F00S00C1.0000
T7F00S00C1.2700
T8F00S00C1.5000
T9F00S00C3.5000
%
T01
X00258Y00388
X00267
X00315
X003295
X00344
X00367
X004215Y00441
X0043223
X004425
X00445Y00485
Y00507
X00419
Y00485
X004035Y00578
Y00589
X004295Y006415
X00437Y00665
X004495Y00665
X00428Y00678
X0046625Y00631
X0048825Y00601
X0049925
X0049625Y0057
X0049825Y0055
X005094Y00553052
X0051325Y0054525
X005225
X0055084Y00573
X0056125Y0058375
X0057225Y00573
X005865Y00584
X0058625Y0060625
X00560999Y00605999
X005245Y0063875
X00606266Y00650983
X0063075Y00636395
X006575Y00635
Y00645
Y00655
Y00665
Y00675
Y00685
Y00695
Y00705
Y00715
Y00725
Y00735
Y00745
Y00755
Y00765
Y00775
Y00785
Y00625
Y00615
Y00605
Y00595
Y00585
Y00575
Y00565
Y00555
Y00545
Y00535
Y00525
Y00515
Y00505
Y00495
Y00485
Y00475
Y00465
Y00455
X0057825Y00450336
Y00407164
X00536Y0040566
X0055275Y00472
X005545Y005065
X00544
X00587499Y00525
X006125Y005425
X006275
X006225Y00505
X006125Y0058
X00635Y00585
Y006075
X0046425Y0055925
X005075Y00725
X005225Y00755
X003595Y00777715
X003375Y00762
X00288Y0075
X002885Y0074
X002675Y0071946
X00246049Y0071979
X002075Y00715
Y00725
Y00735
Y00745
Y00755
Y00765
Y00775
Y00785
X0023425Y00769751
X002565Y00773
X002755Y00769
X002825Y0078775
X0029Y00644
X00309Y00654
X00309382Y00631
X00298001Y00590499
X00284875Y005905
X002325Y00593
X002075Y00595
Y00605
Y00615
Y00625
Y00635
Y00645
Y00655
Y00665
Y00675
Y00685
Y00695
Y00705
X00254Y00664
Y00632
X002075Y00585
Y00575
Y00565
Y00555
Y00545
Y00535
Y00525
Y00515
Y00505
Y00495
Y00485
Y00475
X0025075Y0049575
Y0050975
X0025975Y004215
X0028675Y0042675
X002975Y0042625
X0029225Y00434
X003145Y0042175
X003455
X00363Y00419
X0037Y00412
X00376999Y00426
X0037Y00433
X00361Y00512
X00365Y00557
X0034725Y00565
X00327Y00568
X0032725Y0055525
X003735Y0061
Y00632
X00384951Y0066071
X00356Y00676
X0036Y00710598
X003045Y008075
X002645
X002075Y00805
Y00815
Y00825
Y00795
X00585Y008125
X00595
X00605
X00613988
X006575Y00815
Y00805
Y00795
Y00825
T02
X004052Y00777
X004498Y00776
X004752
X003798Y00777
T04
X00517Y00405
Y00455
T05
X005675Y006925
X005875
X006075
X006275
X003925Y008275
X004325
X004525
X004725
T06
X0057825Y0039065
Y0041605
Y0044145
Y0046685
T07
X004071Y0039
X004579
T08
X003715Y008275
X004935
T09
X006325Y0041
X002325
M30
