G04*
G04 #@! TF.GenerationSoftware,Altium Limited,CircuitStudio,1.5.2 (1.5.2.30)*
G04*
G04 Layer_Color=128*
%FSLAX44Y44*%
%MOMM*%
G71*
G01*
G75*
%ADD34C,0.5000*%
%ADD36C,2.5000*%
%ADD101C,0.1270*%
D34*
X350049Y837549D02*
G03*
X352549Y840049I0J2500D01*
G01*
X362549Y850049D02*
G03*
X352549Y840049I0J-10000D01*
G01*
X512000D02*
G03*
X514500Y837549I2500J0D01*
G01*
X512000Y840049D02*
G03*
X502000Y850049I-10000J0D01*
G01*
X362549D02*
X502000D01*
X667500Y837549D02*
X682500D01*
X514500D02*
X667500D01*
X182500Y837500D02*
X350049D01*
X682500Y410000D02*
Y837549D01*
X622600Y350100D02*
X682500Y410000D01*
X182500D02*
Y837500D01*
X242400Y350100D02*
X622600D01*
X182500Y410000D02*
X242400Y350100D01*
D36*
X359439Y454150D02*
G03*
X368420Y457870I0J12700D01*
G01*
D02*
G03*
X377400Y479550I-21680J21680D01*
G01*
X386380Y513930D02*
G03*
X377400Y492250I21680J-21680D01*
G01*
X415500Y530350D02*
G03*
X393820Y521370I0J-30661D01*
G01*
X475280D02*
G03*
X453600Y530350I-21680J-21680D01*
G01*
X491700Y492250D02*
G03*
X482720Y513930I-30661J0D01*
G01*
X491700Y446711D02*
G03*
X495420Y437730I12700J0D01*
G01*
D02*
G03*
X517100Y428750I21680J21680D01*
G01*
X251000Y454150D02*
X359439D01*
X377400Y479550D02*
Y492250D01*
X386380Y513930D02*
X393820Y521370D01*
X415500Y530350D02*
X453600D01*
X475280Y521370D02*
X482720Y513930D01*
X491700Y446711D02*
Y492250D01*
X517100Y428750D02*
X587250D01*
D101*
X563500Y692500D02*
X571500D01*
X567500Y688500D02*
Y696500D01*
X583500Y692500D02*
X591500D01*
X587500Y688500D02*
Y696500D01*
X603500Y692500D02*
X611500D01*
X607500Y688500D02*
Y696500D01*
X623500Y692500D02*
X631500D01*
X627500Y688500D02*
Y696500D01*
X215000Y410000D02*
X250000D01*
X232500Y392500D02*
Y427500D01*
X615000Y410000D02*
X650000D01*
X632500Y392500D02*
Y427500D01*
X376550Y777000D02*
X383050D01*
X379800Y773750D02*
Y780250D01*
X401950Y777000D02*
X408450D01*
X405200Y773750D02*
Y780250D01*
X471950Y776000D02*
X478450D01*
X475200Y772750D02*
Y779250D01*
X446550Y776000D02*
X453050D01*
X449800Y772750D02*
Y779250D01*
X568750Y792500D02*
X576250D01*
X572500Y788750D02*
Y796250D01*
X568750Y732500D02*
X576250D01*
X572500Y728750D02*
Y736250D01*
X615750Y762500D02*
X623250D01*
X619500Y758750D02*
Y766250D01*
X388500Y827500D02*
X396500D01*
X392500Y823500D02*
Y831500D01*
X428500Y827500D02*
X436500D01*
X432500Y823500D02*
Y831500D01*
X448500Y827500D02*
X456500D01*
X452500Y823500D02*
Y831500D01*
X468500Y827500D02*
X476500D01*
X472500Y823500D02*
Y831500D01*
X364000Y827500D02*
X379000D01*
X371500Y820000D02*
Y835000D01*
X486000Y827500D02*
X501000D01*
X493500Y820000D02*
Y835000D01*
X451550Y390000D02*
X464250D01*
X457900Y383650D02*
Y396350D01*
X400750Y390000D02*
X413450D01*
X407100Y383650D02*
Y396350D01*
X573250Y390650D02*
X583250D01*
X578250Y385650D02*
Y395650D01*
X573250Y416050D02*
X583250D01*
X578250Y411050D02*
Y421050D01*
X573250Y441450D02*
X583250D01*
X578250Y436450D02*
Y446450D01*
X573250Y466850D02*
X583250D01*
X578250Y461850D02*
Y471850D01*
X513190Y405000D02*
X520810D01*
X517000Y401190D02*
Y408810D01*
X513190Y455000D02*
X520810D01*
X517000Y451190D02*
Y458810D01*
X629250Y636395D02*
X632250D01*
X630750Y634895D02*
Y637895D01*
X583500Y812500D02*
X586500D01*
X585000Y811000D02*
Y814000D01*
X593500Y812500D02*
X596500D01*
X595000Y811000D02*
Y814000D01*
X603500Y812500D02*
X606500D01*
X605000Y811000D02*
Y814000D01*
X612489Y812500D02*
X615489D01*
X613988Y811000D02*
Y814000D01*
X506000Y725000D02*
X509000D01*
X507500Y723500D02*
Y726500D01*
X521000Y755000D02*
X524000D01*
X522500Y753500D02*
Y756500D01*
X344000Y421750D02*
X347000D01*
X345500Y420250D02*
Y423250D01*
X313000Y421750D02*
X316000D01*
X314500Y420250D02*
Y423250D01*
X290750Y434000D02*
X293750D01*
X292250Y432500D02*
Y435500D01*
X296000Y426250D02*
X299000D01*
X297500Y424750D02*
Y427750D01*
X285250Y426750D02*
X288250D01*
X286750Y425250D02*
Y428250D01*
X258250Y421500D02*
X261250D01*
X259750Y420000D02*
Y423000D01*
X281000Y787750D02*
X284000D01*
X282500Y786250D02*
Y789250D01*
X656000Y805000D02*
X659000D01*
X657500Y803500D02*
Y806500D01*
X523000Y638750D02*
X526000D01*
X524500Y637250D02*
Y640250D01*
X570750Y573000D02*
X573750D01*
X572250Y571500D02*
Y574500D01*
X402000Y578000D02*
X405000D01*
X403500Y576500D02*
Y579500D01*
X448000Y665000D02*
X451000D01*
X449500Y663500D02*
Y666500D01*
X402000Y589000D02*
X405000D01*
X403500Y587500D02*
Y590500D01*
X372000Y632000D02*
X375000D01*
X373500Y630500D02*
Y633500D01*
X372000Y610000D02*
X375000D01*
X373500Y608500D02*
Y611500D01*
X656000Y705000D02*
X659000D01*
X657500Y703500D02*
Y706500D01*
X656000Y685000D02*
X659000D01*
X657500Y683500D02*
Y686500D01*
X656000Y695000D02*
X659000D01*
X657500Y693500D02*
Y696500D01*
X231000Y593000D02*
X234000D01*
X232500Y591500D02*
Y594500D01*
X286500Y750000D02*
X289500D01*
X288000Y748500D02*
Y751500D01*
X656000Y675000D02*
X659000D01*
X657500Y673500D02*
Y676500D01*
X206000Y665000D02*
X209000D01*
X207500Y663500D02*
Y666500D01*
X358000Y777715D02*
X361000D01*
X359500Y776215D02*
Y779215D01*
X507900Y553052D02*
X510900D01*
X509400Y551552D02*
Y554552D01*
X255000Y773000D02*
X258000D01*
X256500Y771500D02*
Y774500D01*
X336000Y762000D02*
X339000D01*
X337500Y760500D02*
Y763500D01*
X287000Y740000D02*
X290000D01*
X288500Y738500D02*
Y741500D01*
X266000Y719460D02*
X269000D01*
X267500Y717960D02*
Y720960D01*
X358500Y710598D02*
X361500D01*
X360000Y709098D02*
Y712098D01*
X206000Y715000D02*
X209000D01*
X207500Y713500D02*
Y716500D01*
X232750Y769751D02*
X235750D01*
X234250Y768251D02*
Y771251D01*
X633500Y607500D02*
X636500D01*
X635000Y606000D02*
Y609000D01*
X633500Y585000D02*
X636500D01*
X635000Y583500D02*
Y586500D01*
X626000Y542500D02*
X629000D01*
X627500Y541000D02*
Y544000D01*
X621000Y505000D02*
X624000D01*
X622500Y503500D02*
Y506500D01*
X611000Y580000D02*
X614000D01*
X612500Y578500D02*
Y581500D01*
X611000Y542500D02*
X614000D01*
X612500Y541000D02*
Y544000D01*
X511750Y545250D02*
X514750D01*
X513250Y543750D02*
Y546750D01*
X521000Y545250D02*
X524000D01*
X522500Y543750D02*
Y546750D01*
X585999Y525000D02*
X588999D01*
X587499Y523500D02*
Y526500D01*
X585000Y584000D02*
X588000D01*
X586500Y582500D02*
Y585500D01*
X584750Y606250D02*
X587750D01*
X586250Y604750D02*
Y607750D01*
X656000Y585000D02*
X659000D01*
X657500Y583500D02*
Y586500D01*
X656000Y595000D02*
X659000D01*
X657500Y593500D02*
Y596500D01*
X656000Y605000D02*
X659000D01*
X657500Y603500D02*
Y606500D01*
X462750Y559250D02*
X465750D01*
X464250Y557750D02*
Y560750D01*
X206000Y485000D02*
X209000D01*
X207500Y483500D02*
Y486500D01*
X206000Y475000D02*
X209000D01*
X207500Y473500D02*
Y476500D01*
X206000Y805000D02*
X209000D01*
X207500Y803500D02*
Y806500D01*
X206000Y825000D02*
X209000D01*
X207500Y823500D02*
Y826500D01*
X206000Y815000D02*
X209000D01*
X207500Y813500D02*
Y816500D01*
X206000Y795000D02*
X209000D01*
X207500Y793500D02*
Y796500D01*
X206000Y755000D02*
X209000D01*
X207500Y753500D02*
Y756500D01*
X206000Y775000D02*
X209000D01*
X207500Y773500D02*
Y776500D01*
X206000Y785000D02*
X209000D01*
X207500Y783500D02*
Y786500D01*
X206000Y765000D02*
X209000D01*
X207500Y763500D02*
Y766500D01*
X206000Y735000D02*
X209000D01*
X207500Y733500D02*
Y736500D01*
X206000Y745000D02*
X209000D01*
X207500Y743500D02*
Y746500D01*
X206000Y725000D02*
X209000D01*
X207500Y723500D02*
Y726500D01*
X206000Y605000D02*
X209000D01*
X207500Y603500D02*
Y606500D01*
X206000Y625000D02*
X209000D01*
X207500Y623500D02*
Y626500D01*
X206000Y615000D02*
X209000D01*
X207500Y613500D02*
Y616500D01*
X206000Y595000D02*
X209000D01*
X207500Y593500D02*
Y596500D01*
X206000Y645000D02*
X209000D01*
X207500Y643500D02*
Y646500D01*
X206000Y655000D02*
X209000D01*
X207500Y653500D02*
Y656500D01*
X206000Y635000D02*
X209000D01*
X207500Y633500D02*
Y636500D01*
X206000Y675000D02*
X209000D01*
X207500Y673500D02*
Y676500D01*
X206000Y695000D02*
X209000D01*
X207500Y693500D02*
Y696500D01*
X206000Y705000D02*
X209000D01*
X207500Y703500D02*
Y706500D01*
X206000Y685000D02*
X209000D01*
X207500Y683500D02*
Y686500D01*
X206000Y505000D02*
X209000D01*
X207500Y503500D02*
Y506500D01*
X206000Y495000D02*
X209000D01*
X207500Y493500D02*
Y496500D01*
X206000Y525000D02*
X209000D01*
X207500Y523500D02*
Y526500D01*
X206000Y545000D02*
X209000D01*
X207500Y543500D02*
Y546500D01*
X206000Y535000D02*
X209000D01*
X207500Y533500D02*
Y536500D01*
X206000Y515000D02*
X209000D01*
X207500Y513500D02*
Y516500D01*
X206000Y555000D02*
X209000D01*
X207500Y553500D02*
Y556500D01*
X206000Y575000D02*
X209000D01*
X207500Y573500D02*
Y576500D01*
X206000Y585000D02*
X209000D01*
X207500Y583500D02*
Y586500D01*
X206000Y565000D02*
X209000D01*
X207500Y563500D02*
Y566500D01*
X656000Y465000D02*
X659000D01*
X657500Y463500D02*
Y466500D01*
X656000Y455000D02*
X659000D01*
X657500Y453500D02*
Y456500D01*
X656000Y565000D02*
X659000D01*
X657500Y563500D02*
Y566500D01*
X656000Y575000D02*
X659000D01*
X657500Y573500D02*
Y576500D01*
X656000Y555000D02*
X659000D01*
X657500Y553500D02*
Y556500D01*
X656000Y515000D02*
X659000D01*
X657500Y513500D02*
Y516500D01*
X656000Y535000D02*
X659000D01*
X657500Y533500D02*
Y536500D01*
X656000Y545000D02*
X659000D01*
X657500Y543500D02*
Y546500D01*
X656000Y525000D02*
X659000D01*
X657500Y523500D02*
Y526500D01*
X656000Y475000D02*
X659000D01*
X657500Y473500D02*
Y476500D01*
X656000Y495000D02*
X659000D01*
X657500Y493500D02*
Y496500D01*
X656000Y505000D02*
X659000D01*
X657500Y503500D02*
Y506500D01*
X656000Y485000D02*
X659000D01*
X657500Y483500D02*
Y486500D01*
X656000Y635000D02*
X659000D01*
X657500Y633500D02*
Y636500D01*
X656000Y655000D02*
X659000D01*
X657500Y653500D02*
Y656500D01*
X656000Y665000D02*
X659000D01*
X657500Y663500D02*
Y666500D01*
X656000Y645000D02*
X659000D01*
X657500Y643500D02*
Y646500D01*
X656000Y615000D02*
X659000D01*
X657500Y613500D02*
Y616500D01*
X656000Y625000D02*
X659000D01*
X657500Y623500D02*
Y626500D01*
X656000Y725000D02*
X659000D01*
X657500Y723500D02*
Y726500D01*
X656000Y745000D02*
X659000D01*
X657500Y743500D02*
Y746500D01*
X656000Y735000D02*
X659000D01*
X657500Y733500D02*
Y736500D01*
X656000Y715000D02*
X659000D01*
X657500Y713500D02*
Y716500D01*
X656000Y765000D02*
X659000D01*
X657500Y763500D02*
Y766500D01*
X656000Y785000D02*
X659000D01*
X657500Y783500D02*
Y786500D01*
X656000Y775000D02*
X659000D01*
X657500Y773500D02*
Y776500D01*
X656000Y755000D02*
X659000D01*
X657500Y753500D02*
Y756500D01*
X656000Y795000D02*
X659000D01*
X657500Y793500D02*
Y796500D01*
X656000Y815000D02*
X659000D01*
X657500Y813500D02*
Y816500D01*
X656000Y825000D02*
X659000D01*
X657500Y823500D02*
Y826500D01*
X359500Y512000D02*
X362500D01*
X361000Y510500D02*
Y513500D01*
X368500Y412000D02*
X371500D01*
X370000Y410500D02*
Y413500D01*
X361500Y419000D02*
X364500D01*
X363000Y417500D02*
Y420500D01*
X368500Y433000D02*
X371500D01*
X370000Y431500D02*
Y434500D01*
X365500Y388000D02*
X368500D01*
X367000Y386500D02*
Y389500D01*
X256500Y388000D02*
X259500D01*
X258000Y386500D02*
Y389500D01*
X328000Y388000D02*
X331000D01*
X329500Y386500D02*
Y389500D01*
X342500Y388000D02*
X345500D01*
X344000Y386500D02*
Y389500D01*
X265500Y388000D02*
X268500D01*
X267000Y386500D02*
Y389500D01*
X576750Y407164D02*
X579750D01*
X578250Y405664D02*
Y408664D01*
X576750Y450336D02*
X579750D01*
X578250Y448836D02*
Y451836D01*
X313500Y388000D02*
X316500D01*
X315000Y386500D02*
Y389500D01*
X303000Y807500D02*
X306000D01*
X304500Y806000D02*
Y809000D01*
X263000Y807500D02*
X266000D01*
X264500Y806000D02*
Y809000D01*
X496750Y550000D02*
X499750D01*
X498250Y548500D02*
Y551500D01*
X464750Y631000D02*
X467750D01*
X466250Y629500D02*
Y632500D01*
X497750Y601000D02*
X500750D01*
X499250Y599500D02*
Y602500D01*
X494750Y570000D02*
X497750D01*
X496250Y568500D02*
Y571500D01*
X486750Y601000D02*
X489750D01*
X488250Y599500D02*
Y602500D01*
X534500Y405660D02*
X537500D01*
X536000Y404160D02*
Y407160D01*
X325750Y555250D02*
X328750D01*
X327250Y553750D02*
Y556750D01*
X551250Y472000D02*
X554250D01*
X552750Y470500D02*
Y473500D01*
X542500Y506500D02*
X545500D01*
X544000Y505000D02*
Y508000D01*
X553000Y506500D02*
X556000D01*
X554500Y505000D02*
Y508000D01*
X559750Y583750D02*
X562750D01*
X561250Y582250D02*
Y585250D01*
X549340Y573000D02*
X552340D01*
X550840Y571500D02*
Y574500D01*
X345750Y565000D02*
X348750D01*
X347250Y563500D02*
Y566500D01*
X296501Y590499D02*
X299501D01*
X298001Y588999D02*
Y592000D01*
X604766Y650983D02*
X607766D01*
X606266Y649483D02*
Y652483D01*
X559499Y605999D02*
X562499D01*
X560999Y604500D02*
Y607500D01*
X426500Y678000D02*
X429500D01*
X428000Y676500D02*
Y679500D01*
X435500Y665000D02*
X438500D01*
X437000Y663500D02*
Y666500D01*
X428000Y641500D02*
X431000D01*
X429500Y640000D02*
Y643000D01*
X375499Y426000D02*
X378499D01*
X376999Y424500D02*
Y427500D01*
X443500Y485000D02*
X446500D01*
X445000Y483500D02*
Y486500D01*
X417500Y485000D02*
X420500D01*
X419000Y483500D02*
Y486500D01*
X420000Y441000D02*
X423000D01*
X421500Y439500D02*
Y442500D01*
X441000Y441000D02*
X444000D01*
X442500Y439500D02*
Y442500D01*
X430730Y441000D02*
X433730D01*
X432230Y439500D02*
Y442500D01*
X417500Y507000D02*
X420500D01*
X419000Y505500D02*
Y508500D01*
X443500Y507000D02*
X446500D01*
X445000Y505500D02*
Y508500D01*
X325500Y568000D02*
X328500D01*
X327000Y566500D02*
Y569500D01*
X249250Y509750D02*
X252250D01*
X250750Y508250D02*
Y511250D01*
X249250Y495750D02*
X252250D01*
X250750Y494250D02*
Y497250D01*
X274000Y769000D02*
X277000D01*
X275500Y767500D02*
Y770500D01*
X244549Y719790D02*
X247549D01*
X246049Y718290D02*
Y721290D01*
X363500Y557000D02*
X366500D01*
X365000Y555500D02*
Y558500D01*
X288500Y644000D02*
X291500D01*
X290000Y642500D02*
Y645500D01*
X307500Y654000D02*
X310500D01*
X309000Y652500D02*
Y655500D01*
X307882Y631000D02*
X310882D01*
X309382Y629500D02*
Y632500D01*
X252500Y632000D02*
X255500D01*
X254000Y630500D02*
Y633500D01*
X252500Y664000D02*
X255500D01*
X254000Y662500D02*
Y665500D01*
X354500Y676000D02*
X357500D01*
X356000Y674500D02*
Y677500D01*
X383451Y660710D02*
X386451D01*
X384951Y659210D02*
Y662210D01*
X283375Y590500D02*
X286375D01*
X284875Y589000D02*
Y592000D01*
M02*
