G04*
G04 #@! TF.GenerationSoftware,Altium Limited,CircuitStudio,1.5.2 (1.5.2.30)*
G04*
G04 Layer_Physical_Order=3*
G04 Layer_Color=56745*
%FSLAX44Y44*%
%MOMM*%
G71*
G01*
G75*
%ADD33C,0.2540*%
%ADD34C,0.5000*%
%ADD36C,2.5000*%
G04:AMPARAMS|DCode=40|XSize=1.3mm|YSize=1.3mm|CornerRadius=0.325mm|HoleSize=0mm|Usage=FLASHONLY|Rotation=180.000|XOffset=0mm|YOffset=0mm|HoleType=Round|Shape=RoundedRectangle|*
%AMROUNDEDRECTD40*
21,1,1.3000,0.6500,0,0,180.0*
21,1,0.6500,1.3000,0,0,180.0*
1,1,0.6500,-0.3250,0.3250*
1,1,0.6500,0.3250,0.3250*
1,1,0.6500,0.3250,-0.3250*
1,1,0.6500,-0.3250,-0.3250*
%
%ADD40ROUNDEDRECTD40*%
%ADD48O,2.0000X1.5000*%
%ADD49C,2.0000*%
%ADD51C,0.6000*%
%ADD52C,1.2500*%
G36*
X453595Y515807D02*
X453597Y515807D01*
X453600Y515807D01*
X453862Y515859D01*
X456759Y515574D01*
X459798Y514652D01*
X462598Y513156D01*
X465123Y511083D01*
X472424Y503659D01*
X472431Y503654D01*
X472436Y503647D01*
X472659Y503498D01*
X474505Y501248D01*
X476002Y498448D01*
X476924Y495410D01*
X477244Y492152D01*
X477158Y447369D01*
X477123Y447302D01*
X477093Y447004D01*
X477035Y446711D01*
X477055Y446611D01*
X477045Y446511D01*
X477531Y441570D01*
X477590Y441378D01*
X477609Y441178D01*
X479050Y436427D01*
X479145Y436250D01*
X479203Y436058D01*
X481544Y431679D01*
X481671Y431524D01*
X481766Y431347D01*
X484916Y427509D01*
X484994Y427445D01*
X485050Y427360D01*
X485209Y427254D01*
X489422Y423559D01*
X489539Y423492D01*
X489634Y423397D01*
X494338Y420253D01*
X494463Y420202D01*
X494570Y420120D01*
X497155Y418845D01*
X501000Y415000D01*
X508661D01*
X511056Y414524D01*
X511190D01*
X511320Y414489D01*
X511599Y414470D01*
X511859Y413181D01*
X510139Y411861D01*
X508597Y409851D01*
X507627Y407511D01*
X507297Y405000D01*
X507627Y402489D01*
X508597Y400149D01*
X510139Y398139D01*
X512148Y396597D01*
X514488Y395628D01*
X517000Y395297D01*
X519511Y395628D01*
X521851Y396597D01*
X523861Y398139D01*
X525403Y400149D01*
X526372Y402489D01*
X526703Y405000D01*
X526372Y407511D01*
X525403Y409851D01*
X523861Y411861D01*
X522570Y412852D01*
X523000Y414122D01*
X566393Y414179D01*
X566559Y412917D01*
X567768Y409998D01*
X569691Y407491D01*
X569946Y407296D01*
X569929Y407164D01*
X570212Y405010D01*
X571044Y403003D01*
X572243Y401440D01*
X572208Y400715D01*
X571997Y399963D01*
X570686Y399420D01*
X568589Y397811D01*
X566980Y395713D01*
X565968Y393271D01*
X565790Y391920D01*
X578250D01*
X590709D01*
X590531Y393271D01*
X589520Y395713D01*
X587910Y397811D01*
X585813Y399420D01*
X584503Y399963D01*
X584292Y400715D01*
X584256Y401440D01*
X585456Y403003D01*
X586287Y405010D01*
X586571Y407164D01*
X586554Y407296D01*
X586808Y407491D01*
X588732Y409998D01*
X589941Y412917D01*
X590144Y414463D01*
X590780Y414546D01*
X591033Y414632D01*
X591294Y414684D01*
X592057Y415000D01*
X594000D01*
Y370898D01*
X593102Y370000D01*
X253398Y370000D01*
X252500Y370898D01*
X252500Y384945D01*
X253770Y385331D01*
X254395Y384395D01*
X256049Y383290D01*
X258000Y382902D01*
X259951Y383290D01*
X261604Y384395D01*
X262710Y386049D01*
X263098Y388000D01*
X262710Y389951D01*
X261604Y391605D01*
X259951Y392710D01*
X258000Y393098D01*
X256049Y392710D01*
X254395Y391605D01*
X253770Y390669D01*
X252500Y391055D01*
X252500Y438961D01*
X288389D01*
X288774Y437691D01*
X288645Y437605D01*
X287540Y435951D01*
X287152Y434000D01*
X287346Y433024D01*
X286758Y431863D01*
X286398Y431778D01*
X284799Y431460D01*
X283145Y430355D01*
X282040Y428701D01*
X281652Y426750D01*
X282040Y424799D01*
X283145Y423145D01*
X284799Y422040D01*
X286750Y421652D01*
X288701Y422040D01*
X290355Y423145D01*
X291411Y424725D01*
X291726Y424765D01*
X292723Y424638D01*
X292790Y424299D01*
X293895Y422645D01*
X295549Y421540D01*
X297500Y421152D01*
X299451Y421540D01*
X301105Y422645D01*
X302210Y424299D01*
X302598Y426250D01*
X302210Y428201D01*
X301105Y429855D01*
X299451Y430960D01*
X297958Y431257D01*
X297361Y431731D01*
X297061Y432555D01*
X297348Y434000D01*
X296960Y435951D01*
X295855Y437605D01*
X295726Y437691D01*
X296111Y438961D01*
X361142D01*
X361142Y438961D01*
X361923Y439116D01*
X362584Y439558D01*
X362584Y439558D01*
X362836Y439810D01*
X364580Y439981D01*
X364772Y440040D01*
X364972Y440060D01*
X369723Y441501D01*
X369900Y441595D01*
X370092Y441654D01*
X374471Y443994D01*
X374626Y444121D01*
X374803Y444216D01*
X378641Y447366D01*
X378705Y447444D01*
X378789Y447500D01*
X378895Y447659D01*
X382590Y451872D01*
X382658Y451989D01*
X382753Y452084D01*
X385896Y456789D01*
X385948Y456913D01*
X386030Y457020D01*
X388532Y462094D01*
X388567Y462224D01*
X388634Y462341D01*
X389813Y465814D01*
X389996Y465997D01*
Y466352D01*
X390453Y467699D01*
X390471Y467832D01*
X390522Y467956D01*
X391626Y473506D01*
Y473641D01*
X391661Y473770D01*
X392031Y479417D01*
X392022Y479484D01*
X392035Y479550D01*
Y479550D01*
X392034Y479557D01*
X392035Y479565D01*
X391943Y492265D01*
X391891Y492516D01*
X392176Y495410D01*
X393098Y498448D01*
X394594Y501248D01*
X396667Y503773D01*
X404091Y511074D01*
X404096Y511081D01*
X404103Y511086D01*
X404252Y511309D01*
X406502Y513156D01*
X409302Y514652D01*
X412340Y515574D01*
X415597Y515895D01*
X453595Y515807D01*
D02*
G37*
G36*
X359396Y830000D02*
Y822500D01*
X359809Y819367D01*
X361018Y816448D01*
X362941Y813941D01*
X365448Y812018D01*
X368367Y810809D01*
X371500Y810396D01*
X374633Y810809D01*
X377552Y812018D01*
X380058Y813941D01*
X381982Y816448D01*
X383191Y819367D01*
X383480Y821563D01*
X384808Y821919D01*
X385724Y820724D01*
X387709Y819202D01*
X390020Y818244D01*
X392500Y817918D01*
X394980Y818244D01*
X397291Y819202D01*
X399275Y820724D01*
X400798Y822709D01*
X401755Y825020D01*
X402082Y827500D01*
X401920Y828730D01*
X403034Y830000D01*
X421966D01*
X423080Y828730D01*
X422918Y827500D01*
X423245Y825020D01*
X424202Y822709D01*
X425724Y820724D01*
X427709Y819202D01*
X430020Y818244D01*
X432500Y817918D01*
X434980Y818244D01*
X437291Y819202D01*
X439275Y820724D01*
X440798Y822709D01*
X441755Y825020D01*
X441859Y825810D01*
X443140D01*
X443245Y825020D01*
X444202Y822709D01*
X445724Y820724D01*
X447709Y819202D01*
X450020Y818244D01*
X452500Y817918D01*
X454980Y818244D01*
X457291Y819202D01*
X459275Y820724D01*
X460798Y822709D01*
X461755Y825020D01*
X461860Y825810D01*
X463140D01*
X463245Y825020D01*
X464202Y822709D01*
X465724Y820724D01*
X467709Y819202D01*
X470020Y818244D01*
X472500Y817918D01*
X474980Y818244D01*
X477291Y819202D01*
X479275Y820724D01*
X480192Y821919D01*
X481520Y821563D01*
X481809Y819367D01*
X483018Y816448D01*
X484941Y813941D01*
X487448Y812018D01*
X490367Y810809D01*
X493500Y810396D01*
X496633Y810809D01*
X499552Y812018D01*
X502058Y813941D01*
X503982Y816448D01*
X505191Y819367D01*
X505603Y822500D01*
Y829102D01*
X506502Y830000D01*
X642500Y830000D01*
Y822825D01*
X641327Y822339D01*
X640308Y823357D01*
X639227Y824080D01*
X637951Y824334D01*
X522500D01*
X521224Y824080D01*
X520143Y823357D01*
X505119Y808334D01*
X354881D01*
X335858Y827357D01*
X334776Y828080D01*
X333500Y828334D01*
X233500D01*
X232224Y828080D01*
X231143Y827357D01*
X225142Y821357D01*
X224420Y820276D01*
X224166Y819000D01*
Y597000D01*
X224420Y595724D01*
X225142Y594642D01*
X227555Y592230D01*
X227790Y591049D01*
X228895Y589395D01*
X230549Y588290D01*
X232500Y587902D01*
X234451Y588290D01*
X236105Y589395D01*
X237210Y591049D01*
X237598Y593000D01*
X237210Y594951D01*
X236105Y596605D01*
X234451Y597710D01*
X232500Y598098D01*
X231941Y597987D01*
X230834Y598937D01*
Y817619D01*
X234881Y821666D01*
X332119D01*
X351142Y802643D01*
X352224Y801920D01*
X353500Y801666D01*
X355666D01*
Y780977D01*
X354790Y779666D01*
X354402Y777715D01*
X354790Y775764D01*
X355895Y774110D01*
X357549Y773005D01*
X359500Y772617D01*
X361451Y773005D01*
X363105Y774110D01*
X364210Y775764D01*
X364598Y777715D01*
X364210Y779666D01*
X363105Y781320D01*
X362334Y781835D01*
Y801666D01*
X506500D01*
X507776Y801920D01*
X508858Y802643D01*
X523881Y817666D01*
X581446D01*
X581831Y816396D01*
X581395Y816105D01*
X580290Y814451D01*
X579902Y812500D01*
X580290Y810549D01*
X581395Y808895D01*
X583049Y807790D01*
X585000Y807402D01*
X586951Y807790D01*
X588605Y808895D01*
X589236Y809840D01*
X590764D01*
X591395Y808895D01*
X593049Y807790D01*
X595000Y807402D01*
X596951Y807790D01*
X598605Y808895D01*
X599236Y809840D01*
X600764D01*
X601395Y808895D01*
X603049Y807790D01*
X605000Y807402D01*
X606951Y807790D01*
X608605Y808895D01*
X608859Y809276D01*
X610129D01*
X610384Y808895D01*
X612038Y807790D01*
X613988Y807402D01*
X615939Y807790D01*
X617593Y808895D01*
X618698Y810549D01*
X619086Y812500D01*
X618698Y814451D01*
X617593Y816105D01*
X617157Y816396D01*
X617543Y817666D01*
X636570D01*
X636832Y817404D01*
Y702966D01*
X635562Y702599D01*
X634275Y704275D01*
X632291Y705798D01*
X629980Y706755D01*
X627500Y707082D01*
X625020Y706755D01*
X622709Y705798D01*
X620724Y704275D01*
X619202Y702291D01*
X618245Y699980D01*
X618140Y699189D01*
X616859D01*
X616755Y699980D01*
X615798Y702291D01*
X614275Y704275D01*
X612291Y705798D01*
X609980Y706755D01*
X607500Y707082D01*
X605020Y706755D01*
X602709Y705798D01*
X600724Y704275D01*
X599202Y702291D01*
X598245Y699980D01*
X598140Y699189D01*
X596859D01*
X596755Y699980D01*
X595798Y702291D01*
X594275Y704275D01*
X592291Y705798D01*
X589980Y706755D01*
X587500Y707082D01*
X585020Y706755D01*
X582709Y705798D01*
X580724Y704275D01*
X579202Y702291D01*
X578245Y699980D01*
X578140Y699189D01*
X576859D01*
X576755Y699980D01*
X575798Y702291D01*
X574275Y704275D01*
X572291Y705798D01*
X569980Y706755D01*
X567500Y707082D01*
X565020Y706755D01*
X562709Y705798D01*
X560724Y704275D01*
X559202Y702291D01*
X558245Y699980D01*
X557918Y697500D01*
Y687500D01*
X558245Y685020D01*
X559202Y682709D01*
X560724Y680724D01*
X562709Y679202D01*
X565020Y678244D01*
X567500Y677918D01*
X569980Y678244D01*
X572291Y679202D01*
X574275Y680724D01*
X575798Y682709D01*
X576755Y685020D01*
X576859Y685810D01*
X578140D01*
X578245Y685020D01*
X579202Y682709D01*
X580724Y680724D01*
X582709Y679202D01*
X585020Y678244D01*
X587500Y677918D01*
X589980Y678244D01*
X592291Y679202D01*
X594275Y680724D01*
X595798Y682709D01*
X596755Y685020D01*
X596859Y685810D01*
X598140D01*
X598245Y685020D01*
X599202Y682709D01*
X600724Y680724D01*
X602709Y679202D01*
X605020Y678244D01*
X607500Y677918D01*
X609980Y678244D01*
X612291Y679202D01*
X614275Y680724D01*
X615798Y682709D01*
X616755Y685020D01*
X616859Y685810D01*
X618140D01*
X618245Y685020D01*
X619202Y682709D01*
X620724Y680724D01*
X622709Y679202D01*
X625020Y678244D01*
X627500Y677918D01*
X629980Y678244D01*
X632291Y679202D01*
X634275Y680724D01*
X635562Y682401D01*
X636832Y682033D01*
Y647192D01*
X631069Y641430D01*
X630750Y641493D01*
X628799Y641105D01*
X627145Y640000D01*
X626040Y638346D01*
X625652Y636395D01*
X626040Y634444D01*
X627145Y632790D01*
X628799Y631685D01*
X630750Y631297D01*
X632701Y631685D01*
X634355Y632790D01*
X635460Y634444D01*
X635848Y636395D01*
X635784Y636714D01*
X641327Y642257D01*
X642500Y641771D01*
X642500Y443398D01*
X641602Y442500D01*
X592057Y442500D01*
X591294Y442816D01*
X591033Y442868D01*
X590780Y442954D01*
X590144Y443037D01*
X589941Y444583D01*
X588732Y447502D01*
X586808Y450009D01*
X586554Y450204D01*
X586571Y450336D01*
X586287Y452490D01*
X585456Y454497D01*
X584241Y456080D01*
X584523Y457350D01*
X590250D01*
Y476350D01*
X566250D01*
Y457350D01*
X571977D01*
X572258Y456080D01*
X571044Y454497D01*
X570212Y452490D01*
X569929Y450336D01*
X569946Y450204D01*
X569691Y450009D01*
X567768Y447502D01*
X566559Y444583D01*
X566399Y443369D01*
X517097Y443293D01*
X516837Y443241D01*
X513940Y443526D01*
X513270Y443729D01*
X511423Y445577D01*
X512148Y446597D01*
X514488Y445628D01*
X517000Y445297D01*
X519511Y445628D01*
X521851Y446597D01*
X523861Y448139D01*
X525403Y450149D01*
X526372Y452489D01*
X526703Y455000D01*
X526372Y457511D01*
X525403Y459851D01*
X523861Y461861D01*
X521851Y463403D01*
X519511Y464372D01*
X517000Y464703D01*
X514488Y464372D01*
X512148Y463403D01*
X510139Y461861D01*
X508597Y459851D01*
X507627Y457511D01*
X507500Y456544D01*
X506230Y456628D01*
X506243Y491712D01*
X506271Y491924D01*
X506335Y492250D01*
Y492250D01*
X506322Y492316D01*
X506331Y492383D01*
X505961Y498030D01*
X505926Y498159D01*
Y498294D01*
X504822Y503843D01*
X504771Y503968D01*
X504753Y504101D01*
X502934Y509459D01*
X502867Y509576D01*
X502832Y509706D01*
X500330Y514780D01*
X500248Y514887D01*
X500196Y515011D01*
X497053Y519716D01*
X496958Y519811D01*
X496890Y519928D01*
X493160Y524182D01*
X493099Y524228D01*
X493056Y524292D01*
X485922Y531301D01*
X485814Y531442D01*
X485629Y531719D01*
X485573Y531756D01*
X485532Y531810D01*
X481278Y535541D01*
X481161Y535608D01*
X481066Y535703D01*
X476361Y538847D01*
X476237Y538898D01*
X476130Y538980D01*
X471055Y541483D01*
X470925Y541517D01*
X470809Y541585D01*
X465451Y543403D01*
X465318Y543421D01*
X465193Y543472D01*
X459644Y544576D01*
X459509D01*
X459379Y544611D01*
X453733Y544981D01*
X453666Y544972D01*
X453600Y544986D01*
X453600D01*
X453597Y544985D01*
X453595Y544986D01*
X416027Y544894D01*
X415826Y544921D01*
X415500Y544986D01*
X415500D01*
X415434Y544972D01*
X415367Y544981D01*
X409720Y544611D01*
X409590Y544576D01*
X409456D01*
X403906Y543472D01*
X403782Y543421D01*
X403649Y543403D01*
X398291Y541585D01*
X398174Y541517D01*
X398044Y541483D01*
X392970Y538980D01*
X392863Y538898D01*
X392738Y538847D01*
X388034Y535703D01*
X387939Y535608D01*
X387822Y535541D01*
X383568Y531810D01*
X383521Y531749D01*
X383458Y531706D01*
X376449Y524572D01*
X376308Y524464D01*
X376031Y524279D01*
X375994Y524223D01*
X375940Y524182D01*
X372209Y519928D01*
X372142Y519811D01*
X372047Y519716D01*
X368903Y515011D01*
X368852Y514887D01*
X368770Y514780D01*
X367324Y511849D01*
X366560Y511943D01*
X366065Y512166D01*
X365710Y513951D01*
X364604Y515605D01*
X362951Y516710D01*
X361000Y517098D01*
X359049Y516710D01*
X357395Y515605D01*
X356290Y513951D01*
X355902Y512000D01*
X356290Y510049D01*
X357395Y508395D01*
X359049Y507290D01*
X361000Y506902D01*
X362951Y507290D01*
X364421Y508273D01*
X365118Y507961D01*
X365536Y507607D01*
X364346Y504101D01*
X364329Y503968D01*
X364277Y503843D01*
X363173Y498294D01*
Y498159D01*
X363139Y498030D01*
X362769Y492383D01*
X362777Y492316D01*
X362764Y492250D01*
Y492250D01*
X362766Y492243D01*
X362764Y492235D01*
X362835Y482491D01*
X361941Y481589D01*
X250000D01*
X249219Y481434D01*
X248558Y480992D01*
X248116Y480330D01*
X247961Y479550D01*
Y468418D01*
X247469Y468354D01*
X247217Y468268D01*
X246955Y468216D01*
X245227Y467500D01*
X223398Y467500D01*
X222500Y468398D01*
X222500Y829102D01*
X223398Y830000D01*
X359396Y830000D01*
D02*
G37*
%LPC*%
G36*
X612500Y547598D02*
X610549Y547210D01*
X608895Y546105D01*
X607790Y544451D01*
X607402Y542500D01*
X607790Y540549D01*
X608895Y538895D01*
X610549Y537790D01*
X612500Y537402D01*
X614451Y537790D01*
X616105Y538895D01*
X617210Y540549D01*
X617598Y542500D01*
X617210Y544451D01*
X616105Y546105D01*
X614451Y547210D01*
X612500Y547598D01*
D02*
G37*
G36*
X509400Y558150D02*
X507449Y557762D01*
X505795Y556657D01*
X504690Y555003D01*
X504302Y553052D01*
X504690Y551101D01*
X505795Y549447D01*
X507449Y548342D01*
X507856Y548261D01*
X508518Y547091D01*
X508152Y545250D01*
X508540Y543299D01*
X509645Y541645D01*
X511299Y540540D01*
X513250Y540152D01*
X515201Y540540D01*
X516855Y541645D01*
X517240Y542222D01*
X518510D01*
X518895Y541645D01*
X520549Y540540D01*
X522500Y540152D01*
X524451Y540540D01*
X526105Y541645D01*
X527210Y543299D01*
X527598Y545250D01*
X527210Y547201D01*
X526105Y548855D01*
X524451Y549960D01*
X522500Y550348D01*
X520549Y549960D01*
X518895Y548855D01*
X518510Y548278D01*
X517240D01*
X516855Y548855D01*
X515201Y549960D01*
X514793Y550041D01*
X514132Y551212D01*
X514498Y553052D01*
X514110Y555003D01*
X513005Y556657D01*
X511351Y557762D01*
X509400Y558150D01*
D02*
G37*
G36*
X327250Y560348D02*
X325299Y559960D01*
X323645Y558855D01*
X322540Y557201D01*
X322152Y555250D01*
X322540Y553299D01*
X323645Y551645D01*
X325299Y550540D01*
X327250Y550152D01*
X329201Y550540D01*
X330854Y551645D01*
X331960Y553299D01*
X332348Y555250D01*
X331960Y557201D01*
X330854Y558855D01*
X329201Y559960D01*
X327250Y560348D01*
D02*
G37*
G36*
X498250Y555098D02*
X496299Y554710D01*
X494645Y553605D01*
X493540Y551951D01*
X493152Y550000D01*
X493540Y548049D01*
X494645Y546395D01*
X496299Y545290D01*
X498250Y544902D01*
X500201Y545290D01*
X501855Y546395D01*
X502960Y548049D01*
X503348Y550000D01*
X502960Y551951D01*
X501855Y553605D01*
X500201Y554710D01*
X498250Y555098D01*
D02*
G37*
G36*
X445000Y512098D02*
X443049Y511710D01*
X441395Y510605D01*
X440290Y508951D01*
X439902Y507000D01*
X440290Y505049D01*
X441395Y503395D01*
X443049Y502290D01*
X445000Y501902D01*
X446951Y502290D01*
X448605Y503395D01*
X449710Y505049D01*
X450098Y507000D01*
X449710Y508951D01*
X448605Y510605D01*
X446951Y511710D01*
X445000Y512098D01*
D02*
G37*
G36*
X419000D02*
X417049Y511710D01*
X415395Y510605D01*
X414290Y508951D01*
X413902Y507000D01*
X414290Y505049D01*
X415395Y503395D01*
X417049Y502290D01*
X419000Y501902D01*
X420951Y502290D01*
X422604Y503395D01*
X423710Y505049D01*
X424098Y507000D01*
X423710Y508951D01*
X422604Y510605D01*
X420951Y511710D01*
X419000Y512098D01*
D02*
G37*
G36*
X250750Y514848D02*
X248799Y514460D01*
X247145Y513355D01*
X246040Y511701D01*
X245652Y509750D01*
X246040Y507799D01*
X247145Y506145D01*
X248799Y505040D01*
X250750Y504652D01*
X252701Y505040D01*
X254355Y506145D01*
X255460Y507799D01*
X255848Y509750D01*
X255460Y511701D01*
X254355Y513355D01*
X252701Y514460D01*
X250750Y514848D01*
D02*
G37*
G36*
X587499Y530098D02*
X585548Y529710D01*
X583894Y528605D01*
X582789Y526951D01*
X582401Y525000D01*
X582789Y523049D01*
X583894Y521395D01*
X585548Y520290D01*
X587499Y519902D01*
X589450Y520290D01*
X591104Y521395D01*
X592209Y523049D01*
X592597Y525000D01*
X592209Y526951D01*
X591104Y528605D01*
X589450Y529710D01*
X587499Y530098D01*
D02*
G37*
G36*
X554500Y511598D02*
X552549Y511210D01*
X550895Y510105D01*
X549955Y508698D01*
X549383Y508585D01*
X549116D01*
X548544Y508698D01*
X547604Y510105D01*
X545951Y511210D01*
X544000Y511598D01*
X542049Y511210D01*
X540395Y510105D01*
X539290Y508451D01*
X538902Y506500D01*
X539290Y504549D01*
X540395Y502895D01*
X542049Y501790D01*
X544000Y501402D01*
X545951Y501790D01*
X547604Y502895D01*
X548544Y504301D01*
X549116Y504415D01*
X549383D01*
X549955Y504301D01*
X550895Y502895D01*
X552549Y501790D01*
X554500Y501402D01*
X556451Y501790D01*
X558105Y502895D01*
X559210Y504549D01*
X559598Y506500D01*
X559210Y508451D01*
X558105Y510105D01*
X556451Y511210D01*
X554500Y511598D01*
D02*
G37*
G36*
X403500Y594098D02*
X401549Y593710D01*
X399895Y592605D01*
X398790Y590951D01*
X398402Y589000D01*
X398790Y587049D01*
X399895Y585395D01*
X401549Y584290D01*
X402266Y584147D01*
Y582853D01*
X401549Y582710D01*
X399895Y581605D01*
X398790Y579951D01*
X398402Y578000D01*
X398790Y576049D01*
X399895Y574395D01*
X401549Y573290D01*
X403500Y572902D01*
X405451Y573290D01*
X407105Y574395D01*
X408210Y576049D01*
X408598Y578000D01*
X408210Y579951D01*
X407105Y581605D01*
X405451Y582710D01*
X404734Y582853D01*
Y584147D01*
X405451Y584290D01*
X407105Y585395D01*
X408210Y587049D01*
X408598Y589000D01*
X408210Y590951D01*
X407105Y592605D01*
X405451Y593710D01*
X403500Y594098D01*
D02*
G37*
G36*
X572250Y578098D02*
X570299Y577710D01*
X568645Y576605D01*
X567540Y574951D01*
X567152Y573000D01*
X567540Y571049D01*
X568645Y569395D01*
X570299Y568290D01*
X572250Y567902D01*
X574201Y568290D01*
X575855Y569395D01*
X576960Y571049D01*
X577348Y573000D01*
X576960Y574951D01*
X575855Y576605D01*
X574201Y577710D01*
X572250Y578098D01*
D02*
G37*
G36*
X612500Y585098D02*
X610549Y584710D01*
X608895Y583605D01*
X607790Y581951D01*
X607402Y580000D01*
X607790Y578049D01*
X608895Y576395D01*
X610549Y575290D01*
X612500Y574902D01*
X614451Y575290D01*
X616105Y576395D01*
X617210Y578049D01*
X617598Y580000D01*
X617210Y581951D01*
X616105Y583605D01*
X614451Y584710D01*
X612500Y585098D01*
D02*
G37*
G36*
X586500Y589098D02*
X584549Y588710D01*
X582895Y587605D01*
X581790Y585951D01*
X581402Y584000D01*
X581790Y582049D01*
X582895Y580395D01*
X584549Y579290D01*
X586500Y578902D01*
X588451Y579290D01*
X590105Y580395D01*
X591210Y582049D01*
X591598Y584000D01*
X591210Y585951D01*
X590105Y587605D01*
X588451Y588710D01*
X586500Y589098D01*
D02*
G37*
G36*
X561250Y588848D02*
X559299Y588460D01*
X557645Y587355D01*
X556540Y585701D01*
X556152Y583750D01*
X556540Y581799D01*
X557645Y580145D01*
X559299Y579040D01*
X561250Y578652D01*
X563201Y579040D01*
X564855Y580145D01*
X565960Y581799D01*
X566348Y583750D01*
X565960Y585701D01*
X564855Y587355D01*
X563201Y588460D01*
X561250Y588848D01*
D02*
G37*
G36*
X464250Y564348D02*
X462299Y563960D01*
X460645Y562855D01*
X459540Y561201D01*
X459152Y559250D01*
X459540Y557299D01*
X460645Y555645D01*
X462299Y554540D01*
X464250Y554152D01*
X466201Y554540D01*
X467854Y555645D01*
X468960Y557299D01*
X469348Y559250D01*
X468960Y561201D01*
X467854Y562855D01*
X466201Y563960D01*
X464250Y564348D01*
D02*
G37*
G36*
X365000Y562098D02*
X363049Y561710D01*
X361395Y560605D01*
X360290Y558951D01*
X359902Y557000D01*
X360290Y555049D01*
X361395Y553395D01*
X363049Y552290D01*
X365000Y551902D01*
X366951Y552290D01*
X368605Y553395D01*
X369710Y555049D01*
X370098Y557000D01*
X369710Y558951D01*
X368605Y560605D01*
X366951Y561710D01*
X365000Y562098D01*
D02*
G37*
G36*
X327000Y573098D02*
X325049Y572710D01*
X323395Y571605D01*
X322290Y569951D01*
X321902Y568000D01*
X322290Y566049D01*
X323395Y564395D01*
X325049Y563290D01*
X327000Y562902D01*
X328951Y563290D01*
X330605Y564395D01*
X331710Y566049D01*
X332098Y568000D01*
X331710Y569951D01*
X330605Y571605D01*
X328951Y572710D01*
X327000Y573098D01*
D02*
G37*
G36*
X550840Y578098D02*
X548889Y577710D01*
X547235Y576605D01*
X546130Y574951D01*
X545742Y573000D01*
X546130Y571049D01*
X547235Y569395D01*
X548889Y568290D01*
X550840Y567902D01*
X552791Y568290D01*
X554445Y569395D01*
X555550Y571049D01*
X555938Y573000D01*
X555550Y574951D01*
X554445Y576605D01*
X552791Y577710D01*
X550840Y578098D01*
D02*
G37*
G36*
X496250Y575098D02*
X494299Y574710D01*
X492645Y573605D01*
X491540Y571951D01*
X491152Y570000D01*
X491540Y568049D01*
X492645Y566395D01*
X494299Y565290D01*
X496250Y564902D01*
X498201Y565290D01*
X499855Y566395D01*
X500960Y568049D01*
X501348Y570000D01*
X500960Y571951D01*
X499855Y573605D01*
X498201Y574710D01*
X496250Y575098D01*
D02*
G37*
G36*
X622500Y510098D02*
X620549Y509710D01*
X618895Y508605D01*
X617790Y506951D01*
X617402Y505000D01*
X617790Y503049D01*
X618895Y501395D01*
X620549Y500290D01*
X622500Y499902D01*
X624451Y500290D01*
X626105Y501395D01*
X627210Y503049D01*
X627598Y505000D01*
X627210Y506951D01*
X626105Y508605D01*
X624451Y509710D01*
X622500Y510098D01*
D02*
G37*
G36*
X344000Y393098D02*
X342049Y392710D01*
X340395Y391605D01*
X339290Y389951D01*
X338902Y388000D01*
X339290Y386049D01*
X340395Y384395D01*
X342049Y383290D01*
X344000Y382902D01*
X345951Y383290D01*
X347604Y384395D01*
X348710Y386049D01*
X349098Y388000D01*
X348710Y389951D01*
X347604Y391605D01*
X345951Y392710D01*
X344000Y393098D01*
D02*
G37*
G36*
X329500D02*
X327549Y392710D01*
X325895Y391605D01*
X324790Y389951D01*
X324402Y388000D01*
X324790Y386049D01*
X325895Y384395D01*
X327549Y383290D01*
X329500Y382902D01*
X331451Y383290D01*
X333105Y384395D01*
X334210Y386049D01*
X334598Y388000D01*
X334210Y389951D01*
X333105Y391605D01*
X331451Y392710D01*
X329500Y393098D01*
D02*
G37*
G36*
X536000Y410758D02*
X534049Y410370D01*
X532395Y409265D01*
X531290Y407611D01*
X530902Y405660D01*
X531290Y403709D01*
X532395Y402055D01*
X534049Y400950D01*
X536000Y400562D01*
X537951Y400950D01*
X539604Y402055D01*
X540710Y403709D01*
X541098Y405660D01*
X540710Y407611D01*
X539604Y409265D01*
X537951Y410370D01*
X536000Y410758D01*
D02*
G37*
G36*
X367000Y393098D02*
X365049Y392710D01*
X363395Y391605D01*
X362290Y389951D01*
X361902Y388000D01*
X362290Y386049D01*
X363395Y384395D01*
X365049Y383290D01*
X367000Y382902D01*
X368951Y383290D01*
X370605Y384395D01*
X371710Y386049D01*
X372098Y388000D01*
X371710Y389951D01*
X370605Y391605D01*
X368951Y392710D01*
X367000Y393098D01*
D02*
G37*
G36*
X315000D02*
X313049Y392710D01*
X311395Y391605D01*
X310290Y389951D01*
X309902Y388000D01*
X310290Y386049D01*
X311395Y384395D01*
X313049Y383290D01*
X315000Y382902D01*
X316951Y383290D01*
X318605Y384395D01*
X319710Y386049D01*
X320098Y388000D01*
X319710Y389951D01*
X318605Y391605D01*
X316951Y392710D01*
X315000Y393098D01*
D02*
G37*
G36*
X472600Y404700D02*
X443200D01*
Y375300D01*
X472600D01*
Y404700D01*
D02*
G37*
G36*
X407100Y404827D02*
X403262Y404322D01*
X399687Y402840D01*
X396616Y400484D01*
X394259Y397413D01*
X392778Y393837D01*
X392273Y390000D01*
X392778Y386162D01*
X394259Y382587D01*
X396616Y379516D01*
X399687Y377160D01*
X403262Y375678D01*
X407100Y375173D01*
X410937Y375678D01*
X414513Y377160D01*
X417584Y379516D01*
X419940Y382587D01*
X421422Y386162D01*
X421927Y390000D01*
X421422Y393837D01*
X419940Y397413D01*
X417584Y400484D01*
X414513Y402840D01*
X410937Y404322D01*
X407100Y404827D01*
D02*
G37*
G36*
X590709Y389380D02*
X579520D01*
Y380523D01*
X580750D01*
X583371Y380868D01*
X585813Y381880D01*
X587910Y383489D01*
X589520Y385587D01*
X590531Y388029D01*
X590709Y389380D01*
D02*
G37*
G36*
X576980D02*
X565790D01*
X565968Y388029D01*
X566980Y385587D01*
X568589Y383489D01*
X570686Y381880D01*
X573129Y380868D01*
X575750Y380523D01*
X576980D01*
Y389380D01*
D02*
G37*
G36*
X363000Y424098D02*
X361049Y423710D01*
X359395Y422605D01*
X358290Y420951D01*
X357902Y419000D01*
X358290Y417049D01*
X359395Y415395D01*
X361049Y414290D01*
X363000Y413902D01*
X364026Y414106D01*
X365106Y413026D01*
X364902Y412000D01*
X365290Y410049D01*
X366395Y408395D01*
X368049Y407290D01*
X370000Y406902D01*
X371951Y407290D01*
X373605Y408395D01*
X374710Y410049D01*
X375098Y412000D01*
X374710Y413951D01*
X373605Y415605D01*
X371951Y416710D01*
X370000Y417098D01*
X368974Y416894D01*
X367894Y417974D01*
X368098Y419000D01*
X367710Y420951D01*
X366604Y422605D01*
X364951Y423710D01*
X363000Y424098D01*
D02*
G37*
G36*
X419000Y490098D02*
X417049Y489710D01*
X415395Y488605D01*
X414290Y486951D01*
X413902Y485000D01*
X414290Y483049D01*
X415395Y481395D01*
X417049Y480290D01*
X419000Y479902D01*
X420951Y480290D01*
X422604Y481395D01*
X423710Y483049D01*
X424098Y485000D01*
X423710Y486951D01*
X422604Y488605D01*
X420951Y489710D01*
X419000Y490098D01*
D02*
G37*
G36*
X552750Y477098D02*
X550799Y476710D01*
X549145Y475605D01*
X548040Y473951D01*
X547652Y472000D01*
X548040Y470049D01*
X549145Y468395D01*
X550799Y467290D01*
X552750Y466902D01*
X554701Y467290D01*
X556354Y468395D01*
X557460Y470049D01*
X557848Y472000D01*
X557460Y473951D01*
X556354Y475605D01*
X554701Y476710D01*
X552750Y477098D01*
D02*
G37*
G36*
X250750Y500848D02*
X248799Y500460D01*
X247145Y499355D01*
X246040Y497701D01*
X245652Y495750D01*
X246040Y493799D01*
X247145Y492145D01*
X248799Y491040D01*
X250750Y490652D01*
X252701Y491040D01*
X254355Y492145D01*
X255460Y493799D01*
X255848Y495750D01*
X255460Y497701D01*
X254355Y499355D01*
X252701Y500460D01*
X250750Y500848D01*
D02*
G37*
G36*
X445000Y490098D02*
X443049Y489710D01*
X441395Y488605D01*
X440290Y486951D01*
X439902Y485000D01*
X440290Y483049D01*
X441395Y481395D01*
X443049Y480290D01*
X445000Y479902D01*
X446951Y480290D01*
X448605Y481395D01*
X449710Y483049D01*
X450098Y485000D01*
X449710Y486951D01*
X448605Y488605D01*
X446951Y489710D01*
X445000Y490098D01*
D02*
G37*
G36*
X442500Y446098D02*
X440549Y445710D01*
X438895Y444605D01*
X438071Y443371D01*
X438015Y443350D01*
X436715D01*
X436659Y443371D01*
X435835Y444605D01*
X434181Y445710D01*
X432230Y446098D01*
X430279Y445710D01*
X428625Y444605D01*
X427520Y442951D01*
X427512Y442912D01*
X426218D01*
X426210Y442951D01*
X425105Y444605D01*
X423451Y445710D01*
X421500Y446098D01*
X419549Y445710D01*
X417895Y444605D01*
X416790Y442951D01*
X416402Y441000D01*
X416790Y439049D01*
X417895Y437395D01*
X419549Y436290D01*
X421500Y435902D01*
X423451Y436290D01*
X425105Y437395D01*
X426210Y439049D01*
X426218Y439088D01*
X427512D01*
X427520Y439049D01*
X428625Y437395D01*
X430279Y436290D01*
X432230Y435902D01*
X434181Y436290D01*
X435835Y437395D01*
X436659Y438629D01*
X436715Y438650D01*
X438015D01*
X438071Y438629D01*
X438895Y437395D01*
X440549Y436290D01*
X442500Y435902D01*
X444451Y436290D01*
X446105Y437395D01*
X447210Y439049D01*
X447598Y441000D01*
X447210Y442951D01*
X446105Y444605D01*
X444451Y445710D01*
X442500Y446098D01*
D02*
G37*
G36*
X314500Y426848D02*
X312549Y426460D01*
X310895Y425355D01*
X309790Y423701D01*
X309402Y421750D01*
X309790Y419799D01*
X310895Y418145D01*
X312549Y417040D01*
X314500Y416652D01*
X316451Y417040D01*
X318105Y418145D01*
X319210Y419799D01*
X319598Y421750D01*
X319210Y423701D01*
X318105Y425355D01*
X316451Y426460D01*
X314500Y426848D01*
D02*
G37*
G36*
X259750Y426598D02*
X257799Y426210D01*
X256145Y425105D01*
X255040Y423451D01*
X254652Y421500D01*
X255040Y419549D01*
X256145Y417895D01*
X257799Y416790D01*
X259750Y416402D01*
X261701Y416790D01*
X263355Y417895D01*
X264460Y419549D01*
X264848Y421500D01*
X264460Y423451D01*
X263355Y425105D01*
X261701Y426210D01*
X259750Y426598D01*
D02*
G37*
G36*
X370000Y438098D02*
X368049Y437710D01*
X366395Y436605D01*
X365290Y434951D01*
X364902Y433000D01*
X365290Y431049D01*
X366395Y429395D01*
X368049Y428290D01*
X370000Y427902D01*
X371025Y428106D01*
X372105Y427026D01*
X371901Y426000D01*
X372290Y424049D01*
X373395Y422395D01*
X375048Y421290D01*
X376999Y420902D01*
X378950Y421290D01*
X380604Y422395D01*
X381709Y424049D01*
X382097Y426000D01*
X381709Y427951D01*
X380604Y429605D01*
X378950Y430710D01*
X376999Y431098D01*
X375974Y430894D01*
X374894Y431974D01*
X375098Y433000D01*
X374710Y434951D01*
X373605Y436605D01*
X371951Y437710D01*
X370000Y438098D01*
D02*
G37*
G36*
X345500Y426848D02*
X343549Y426460D01*
X341895Y425355D01*
X340790Y423701D01*
X340402Y421750D01*
X340790Y419799D01*
X341895Y418145D01*
X343549Y417040D01*
X345500Y416652D01*
X347451Y417040D01*
X349105Y418145D01*
X350210Y419799D01*
X350598Y421750D01*
X350210Y423701D01*
X349105Y425355D01*
X347451Y426460D01*
X345500Y426848D01*
D02*
G37*
G36*
X284875Y595598D02*
X282924Y595210D01*
X281270Y594104D01*
X280165Y592451D01*
X279777Y590500D01*
X280165Y588549D01*
X281270Y586895D01*
X282924Y585790D01*
X284875Y585402D01*
X286826Y585790D01*
X288480Y586895D01*
X289585Y588549D01*
X289973Y590500D01*
X289585Y592451D01*
X288480Y594104D01*
X286826Y595210D01*
X284875Y595598D01*
D02*
G37*
G36*
X484353Y774730D02*
X476470D01*
Y766846D01*
X478450D01*
X480709Y767296D01*
X482624Y768576D01*
X483904Y770491D01*
X484353Y772750D01*
Y774730D01*
D02*
G37*
G36*
X473930D02*
X466046D01*
Y772750D01*
X466496Y770491D01*
X467776Y768576D01*
X469691Y767296D01*
X471950Y766846D01*
X473930D01*
Y774730D01*
D02*
G37*
G36*
X449800Y784573D02*
X447581Y784281D01*
X445513Y783425D01*
X443738Y782062D01*
X442375Y780287D01*
X441519Y778219D01*
X441227Y776000D01*
X441519Y773781D01*
X442375Y771713D01*
X443738Y769938D01*
X445513Y768575D01*
X447581Y767719D01*
X449800Y767427D01*
X452019Y767719D01*
X454087Y768575D01*
X455862Y769938D01*
X457225Y771713D01*
X458081Y773781D01*
X458373Y776000D01*
X458081Y778219D01*
X457225Y780287D01*
X455862Y782062D01*
X454087Y783425D01*
X452019Y784281D01*
X449800Y784573D01*
D02*
G37*
G36*
X414353Y775730D02*
X406470D01*
Y767847D01*
X408450D01*
X410709Y768296D01*
X412624Y769576D01*
X413904Y771491D01*
X414353Y773750D01*
Y775730D01*
D02*
G37*
G36*
X403930D02*
X396046D01*
Y773750D01*
X396496Y771491D01*
X397776Y769576D01*
X399691Y768296D01*
X401950Y767847D01*
X403930D01*
Y775730D01*
D02*
G37*
G36*
X288000Y755098D02*
X286049Y754710D01*
X284395Y753605D01*
X283290Y751951D01*
X282902Y750000D01*
X283290Y748049D01*
X284395Y746395D01*
X285590Y745597D01*
X285716Y744247D01*
X285677Y744127D01*
X284895Y743605D01*
X283790Y741951D01*
X283402Y740000D01*
X283790Y738049D01*
X284895Y736395D01*
X286549Y735290D01*
X288500Y734902D01*
X290451Y735290D01*
X292105Y736395D01*
X293210Y738049D01*
X293598Y740000D01*
X293210Y741951D01*
X292105Y743605D01*
X290910Y744403D01*
X290784Y745753D01*
X290823Y745873D01*
X291605Y746395D01*
X292710Y748049D01*
X293098Y750000D01*
X292710Y751951D01*
X291605Y753605D01*
X289951Y754710D01*
X288000Y755098D01*
D02*
G37*
G36*
X590000Y744560D02*
X555000D01*
X553173Y744320D01*
X551470Y743615D01*
X550008Y742493D01*
X548885Y741030D01*
X548180Y739327D01*
X547939Y737500D01*
Y727500D01*
X548180Y725673D01*
X548885Y723970D01*
X550008Y722507D01*
X551470Y721385D01*
X553173Y720680D01*
X555000Y720440D01*
X590000D01*
X591827Y720680D01*
X593530Y721385D01*
X594992Y722507D01*
X596114Y723970D01*
X596820Y725673D01*
X597060Y727500D01*
Y737500D01*
X596820Y739327D01*
X596114Y741030D01*
X594992Y742493D01*
X593530Y743615D01*
X591827Y744320D01*
X590000Y744560D01*
D02*
G37*
G36*
X624500Y784560D02*
X614500D01*
X612673Y784320D01*
X610970Y783615D01*
X609507Y782493D01*
X608385Y781030D01*
X607680Y779327D01*
X607439Y777500D01*
Y747500D01*
X607680Y745673D01*
X608385Y743970D01*
X609507Y742508D01*
X610970Y741386D01*
X612673Y740680D01*
X614500Y740440D01*
X624500D01*
X626327Y740680D01*
X628030Y741386D01*
X629492Y742508D01*
X630614Y743970D01*
X631320Y745673D01*
X631560Y747500D01*
Y777500D01*
X631320Y779327D01*
X630614Y781030D01*
X629492Y782493D01*
X628030Y783615D01*
X626327Y784320D01*
X624500Y784560D01*
D02*
G37*
G36*
X275500Y774098D02*
X273549Y773710D01*
X271895Y772605D01*
X270790Y770951D01*
X270402Y769000D01*
X270790Y767049D01*
X271895Y765395D01*
X273549Y764290D01*
X275500Y763902D01*
X277451Y764290D01*
X279105Y765395D01*
X280210Y767049D01*
X280598Y769000D01*
X280210Y770951D01*
X279105Y772605D01*
X277451Y773710D01*
X275500Y774098D01*
D02*
G37*
G36*
X522500Y760098D02*
X520549Y759710D01*
X518895Y758605D01*
X517790Y756951D01*
X517402Y755000D01*
X517790Y753049D01*
X518895Y751395D01*
X520549Y750290D01*
X522500Y749902D01*
X524451Y750290D01*
X526105Y751395D01*
X527210Y753049D01*
X527598Y755000D01*
X527210Y756951D01*
X526105Y758605D01*
X524451Y759710D01*
X522500Y760098D01*
D02*
G37*
G36*
X587500Y804560D02*
X557500D01*
X555673Y804320D01*
X553970Y803615D01*
X552508Y802493D01*
X551385Y801030D01*
X550680Y799327D01*
X550439Y797500D01*
Y787500D01*
X550680Y785673D01*
X551385Y783970D01*
X552508Y782508D01*
X553970Y781385D01*
X555673Y780680D01*
X557500Y780440D01*
X587500D01*
X589327Y780680D01*
X591030Y781385D01*
X592492Y782508D01*
X593614Y783970D01*
X594320Y785673D01*
X594560Y787500D01*
Y797500D01*
X594320Y799327D01*
X593614Y801030D01*
X592492Y802493D01*
X591030Y803615D01*
X589327Y804320D01*
X587500Y804560D01*
D02*
G37*
G36*
X408450Y786153D02*
X406470D01*
Y778270D01*
X414353D01*
Y780250D01*
X413904Y782509D01*
X412624Y784424D01*
X410709Y785704D01*
X408450Y786153D01*
D02*
G37*
G36*
X282500Y792848D02*
X280549Y792460D01*
X278895Y791355D01*
X277790Y789701D01*
X277402Y787750D01*
X277790Y785799D01*
X278895Y784145D01*
X280549Y783040D01*
X282500Y782652D01*
X284451Y783040D01*
X286105Y784145D01*
X287210Y785799D01*
X287598Y787750D01*
X287210Y789701D01*
X286105Y791355D01*
X284451Y792460D01*
X282500Y792848D01*
D02*
G37*
G36*
X304500Y812598D02*
X302549Y812210D01*
X300895Y811105D01*
X299790Y809451D01*
X299402Y807500D01*
X299790Y805549D01*
X300895Y803895D01*
X302549Y802790D01*
X304500Y802402D01*
X306451Y802790D01*
X308104Y803895D01*
X309210Y805549D01*
X309598Y807500D01*
X309210Y809451D01*
X308104Y811105D01*
X306451Y812210D01*
X304500Y812598D01*
D02*
G37*
G36*
X264500D02*
X262549Y812210D01*
X260895Y811105D01*
X259790Y809451D01*
X259402Y807500D01*
X259790Y805549D01*
X260895Y803895D01*
X262549Y802790D01*
X264500Y802402D01*
X266451Y802790D01*
X268104Y803895D01*
X269210Y805549D01*
X269598Y807500D01*
X269210Y809451D01*
X268104Y811105D01*
X266451Y812210D01*
X264500Y812598D01*
D02*
G37*
G36*
X379800Y785573D02*
X377581Y785281D01*
X375513Y784425D01*
X373738Y783062D01*
X372375Y781287D01*
X371519Y779219D01*
X371227Y777000D01*
X371519Y774781D01*
X372375Y772713D01*
X373738Y770938D01*
X375513Y769575D01*
X377581Y768719D01*
X379800Y768427D01*
X382019Y768719D01*
X384087Y769575D01*
X385862Y770938D01*
X387225Y772713D01*
X388081Y774781D01*
X388373Y777000D01*
X388081Y779219D01*
X387225Y781287D01*
X385862Y783062D01*
X384087Y784425D01*
X382019Y785281D01*
X379800Y785573D01*
D02*
G37*
G36*
X256500Y778098D02*
X254549Y777710D01*
X252895Y776605D01*
X251790Y774951D01*
X251402Y773000D01*
X251790Y771049D01*
X252895Y769395D01*
X254549Y768290D01*
X256500Y767902D01*
X258451Y768290D01*
X260105Y769395D01*
X261210Y771049D01*
X261598Y773000D01*
X261210Y774951D01*
X260105Y776605D01*
X258451Y777710D01*
X256500Y778098D01*
D02*
G37*
G36*
X473930Y785153D02*
X471950D01*
X469691Y784704D01*
X467776Y783424D01*
X466496Y781509D01*
X466046Y779250D01*
Y777270D01*
X473930D01*
Y785153D01*
D02*
G37*
G36*
X403930Y786153D02*
X401950D01*
X399691Y785704D01*
X397776Y784424D01*
X396496Y782509D01*
X396046Y780250D01*
Y778270D01*
X403930D01*
Y786153D01*
D02*
G37*
G36*
X478450Y785153D02*
X476470D01*
Y777270D01*
X484353D01*
Y779250D01*
X483904Y781509D01*
X482624Y783424D01*
X480709Y784704D01*
X478450Y785153D01*
D02*
G37*
G36*
X373500Y637098D02*
X371549Y636710D01*
X369895Y635605D01*
X368790Y633951D01*
X368402Y632000D01*
X368790Y630049D01*
X369895Y628395D01*
X371549Y627290D01*
X373500Y626902D01*
X375451Y627290D01*
X377105Y628395D01*
X378210Y630049D01*
X378598Y632000D01*
X378210Y633951D01*
X377105Y635605D01*
X375451Y636710D01*
X373500Y637098D01*
D02*
G37*
G36*
X254000D02*
X252049Y636710D01*
X250395Y635605D01*
X249290Y633951D01*
X248902Y632000D01*
X249290Y630049D01*
X250395Y628395D01*
X252049Y627290D01*
X254000Y626902D01*
X255951Y627290D01*
X257605Y628395D01*
X258710Y630049D01*
X259098Y632000D01*
X258710Y633951D01*
X257605Y635605D01*
X255951Y636710D01*
X254000Y637098D01*
D02*
G37*
G36*
X524500Y643848D02*
X522549Y643460D01*
X520895Y642355D01*
X519790Y640701D01*
X519402Y638750D01*
X519790Y636799D01*
X520895Y635145D01*
X522549Y634040D01*
X524500Y633652D01*
X526451Y634040D01*
X528105Y635145D01*
X529210Y636799D01*
X529598Y638750D01*
X529210Y640701D01*
X528105Y642355D01*
X526451Y643460D01*
X524500Y643848D01*
D02*
G37*
G36*
X290000Y649098D02*
X288049Y648710D01*
X286395Y647605D01*
X285290Y645951D01*
X284902Y644000D01*
X285290Y642049D01*
X286395Y640395D01*
X288049Y639290D01*
X290000Y638902D01*
X291951Y639290D01*
X293605Y640395D01*
X294710Y642049D01*
X295098Y644000D01*
X294710Y645951D01*
X293605Y647605D01*
X291951Y648710D01*
X290000Y649098D01*
D02*
G37*
G36*
X429500Y646598D02*
X427549Y646210D01*
X425895Y645105D01*
X424790Y643451D01*
X424402Y641500D01*
X424790Y639549D01*
X425895Y637895D01*
X427549Y636790D01*
X429500Y636402D01*
X431451Y636790D01*
X433105Y637895D01*
X434210Y639549D01*
X434598Y641500D01*
X434210Y643451D01*
X433105Y645105D01*
X431451Y646210D01*
X429500Y646598D01*
D02*
G37*
G36*
X560999Y611097D02*
X559048Y610709D01*
X557394Y609604D01*
X556289Y607950D01*
X555901Y605999D01*
X556289Y604049D01*
X557394Y602395D01*
X559048Y601290D01*
X560999Y600901D01*
X562950Y601290D01*
X564604Y602395D01*
X565709Y604049D01*
X566097Y605999D01*
X565709Y607950D01*
X564604Y609604D01*
X562950Y610709D01*
X560999Y611097D01*
D02*
G37*
G36*
X534000Y607039D02*
X517000D01*
X516219Y606884D01*
X515558Y606442D01*
X515116Y605780D01*
X514961Y605000D01*
Y600000D01*
X515116Y599220D01*
X515558Y598558D01*
X516219Y598116D01*
X517000Y597961D01*
X534000D01*
X534780Y598116D01*
X535442Y598558D01*
X535884Y599220D01*
X536039Y600000D01*
Y605000D01*
X535884Y605780D01*
X535442Y606442D01*
X534780Y606884D01*
X534000Y607039D01*
D02*
G37*
G36*
X586250Y611348D02*
X584299Y610960D01*
X582645Y609855D01*
X581540Y608201D01*
X581152Y606250D01*
X581540Y604299D01*
X582645Y602645D01*
X584299Y601540D01*
X586250Y601152D01*
X588201Y601540D01*
X589855Y602645D01*
X590960Y604299D01*
X591348Y606250D01*
X590960Y608201D01*
X589855Y609855D01*
X588201Y610960D01*
X586250Y611348D01*
D02*
G37*
G36*
X466250Y636098D02*
X464299Y635710D01*
X462645Y634605D01*
X461540Y632951D01*
X461152Y631000D01*
X461540Y629049D01*
X462645Y627395D01*
X464299Y626290D01*
X466250Y625902D01*
X468201Y626290D01*
X469855Y627395D01*
X470960Y629049D01*
X471348Y631000D01*
X470960Y632951D01*
X469855Y634605D01*
X468201Y635710D01*
X466250Y636098D01*
D02*
G37*
G36*
X499250Y606098D02*
X497299Y605710D01*
X495645Y604605D01*
X494540Y602951D01*
X494397Y602234D01*
X493102D01*
X492960Y602951D01*
X491855Y604605D01*
X490201Y605710D01*
X488250Y606098D01*
X486299Y605710D01*
X484645Y604605D01*
X483540Y602951D01*
X483152Y601000D01*
X483540Y599049D01*
X484645Y597395D01*
X486299Y596290D01*
X488250Y595902D01*
X490201Y596290D01*
X491855Y597395D01*
X492960Y599049D01*
X493102Y599766D01*
X494397D01*
X494540Y599049D01*
X495645Y597395D01*
X497299Y596290D01*
X499250Y595902D01*
X501201Y596290D01*
X502855Y597395D01*
X503960Y599049D01*
X504348Y601000D01*
X503960Y602951D01*
X502855Y604605D01*
X501201Y605710D01*
X499250Y606098D01*
D02*
G37*
G36*
X356000Y681098D02*
X354049Y680710D01*
X352395Y679605D01*
X351290Y677951D01*
X350902Y676000D01*
X351290Y674049D01*
X352395Y672395D01*
X354049Y671290D01*
X356000Y670902D01*
X357951Y671290D01*
X359604Y672395D01*
X360710Y674049D01*
X361098Y676000D01*
X360710Y677951D01*
X359604Y679605D01*
X357951Y680710D01*
X356000Y681098D01*
D02*
G37*
G36*
X437000Y670098D02*
X435049Y669710D01*
X433395Y668605D01*
X432290Y666951D01*
X431902Y665000D01*
X432290Y663049D01*
X433395Y661395D01*
X435049Y660290D01*
X437000Y659902D01*
X438951Y660290D01*
X440605Y661395D01*
X441710Y663049D01*
X442098Y665000D01*
X441710Y666951D01*
X440605Y668605D01*
X438951Y669710D01*
X437000Y670098D01*
D02*
G37*
G36*
X267500Y724558D02*
X265549Y724170D01*
X263895Y723065D01*
X262790Y721411D01*
X262402Y719460D01*
X262790Y717509D01*
X263895Y715855D01*
X265549Y714750D01*
X267500Y714362D01*
X269451Y714750D01*
X271105Y715855D01*
X272210Y717509D01*
X272598Y719460D01*
X272210Y721411D01*
X271105Y723065D01*
X269451Y724170D01*
X267500Y724558D01*
D02*
G37*
G36*
X507500Y730098D02*
X505549Y729710D01*
X503895Y728605D01*
X502790Y726951D01*
X502402Y725000D01*
X502790Y723049D01*
X503895Y721395D01*
X505549Y720290D01*
X507500Y719902D01*
X509451Y720290D01*
X511105Y721395D01*
X512210Y723049D01*
X512598Y725000D01*
X512210Y726951D01*
X511105Y728605D01*
X509451Y729710D01*
X507500Y730098D01*
D02*
G37*
G36*
X246049Y724888D02*
X244098Y724500D01*
X242444Y723395D01*
X241339Y721741D01*
X240951Y719790D01*
X241339Y717839D01*
X242444Y716185D01*
X244098Y715080D01*
X246049Y714692D01*
X248000Y715080D01*
X249654Y716185D01*
X250759Y717839D01*
X251147Y719790D01*
X250759Y721741D01*
X249654Y723395D01*
X248000Y724500D01*
X246049Y724888D01*
D02*
G37*
G36*
X309000Y659098D02*
X307049Y658710D01*
X305395Y657605D01*
X304290Y655951D01*
X303902Y654000D01*
X304290Y652049D01*
X305395Y650395D01*
X307049Y649290D01*
X309000Y648902D01*
X310951Y649290D01*
X312605Y650395D01*
X313710Y652049D01*
X314098Y654000D01*
X313710Y655951D01*
X312605Y657605D01*
X310951Y658710D01*
X309000Y659098D01*
D02*
G37*
G36*
X606266Y656081D02*
X604315Y655693D01*
X602661Y654588D01*
X601556Y652934D01*
X601168Y650983D01*
X601556Y649032D01*
X602661Y647378D01*
X604315Y646273D01*
X606266Y645885D01*
X608217Y646273D01*
X609871Y647378D01*
X610976Y649032D01*
X611364Y650983D01*
X610976Y652934D01*
X609871Y654588D01*
X608217Y655693D01*
X606266Y656081D01*
D02*
G37*
G36*
X384951Y665808D02*
X383000Y665420D01*
X381346Y664315D01*
X380241Y662661D01*
X379853Y660710D01*
X380241Y658759D01*
X381346Y657105D01*
X383000Y656000D01*
X384951Y655612D01*
X386902Y656000D01*
X388555Y657105D01*
X389660Y658759D01*
X390049Y660710D01*
X389660Y662661D01*
X388555Y664315D01*
X386902Y665420D01*
X384951Y665808D01*
D02*
G37*
G36*
X449500Y670098D02*
X447549Y669710D01*
X445895Y668605D01*
X444790Y666951D01*
X444402Y665000D01*
X444790Y663049D01*
X445895Y661395D01*
X447549Y660290D01*
X449500Y659902D01*
X451451Y660290D01*
X453105Y661395D01*
X454210Y663049D01*
X454598Y665000D01*
X454210Y666951D01*
X453105Y668605D01*
X451451Y669710D01*
X449500Y670098D01*
D02*
G37*
G36*
X254000Y669098D02*
X252049Y668710D01*
X250395Y667605D01*
X249290Y665951D01*
X248902Y664000D01*
X249290Y662049D01*
X250395Y660395D01*
X252049Y659290D01*
X254000Y658902D01*
X255951Y659290D01*
X257605Y660395D01*
X258710Y662049D01*
X259098Y664000D01*
X258710Y665951D01*
X257605Y667605D01*
X255951Y668710D01*
X254000Y669098D01*
D02*
G37*
%LPD*%
D33*
X630750Y636395D02*
X640166Y645811D01*
X522500Y821000D02*
X637951D01*
X506500Y805000D02*
X522500Y821000D01*
X637951D02*
X640166Y818785D01*
X359000Y805000D02*
X506500D01*
X640166Y645811D02*
Y818785D01*
X233500Y825000D02*
X333500D01*
X227500Y819000D02*
X233500Y825000D01*
X227500Y597000D02*
Y819000D01*
X333500Y825000D02*
X353500Y805000D01*
X359000D01*
Y778215D02*
Y805000D01*
Y778215D02*
X359500Y777715D01*
X227500Y597000D02*
X232500Y592000D01*
Y593000D01*
D34*
X350049Y837549D02*
G03*
X352549Y840049I0J2500D01*
G01*
X362549Y850049D02*
G03*
X352549Y840049I0J-10000D01*
G01*
X512000D02*
G03*
X514500Y837549I2500J0D01*
G01*
X512000Y840049D02*
G03*
X502000Y850049I-10000J0D01*
G01*
X362549D02*
X502000D01*
X667500Y837549D02*
X682500D01*
X514500D02*
X667500D01*
X182500Y837500D02*
X350049D01*
X682500Y410000D02*
Y837549D01*
X622600Y350100D02*
X682500Y410000D01*
X182500D02*
Y837500D01*
X242400Y350100D02*
X622600D01*
X182500Y410000D02*
X242400Y350100D01*
D36*
X359439Y454150D02*
G03*
X368420Y457870I0J12700D01*
G01*
D02*
G03*
X377400Y479550I-21680J21680D01*
G01*
X386380Y513930D02*
G03*
X377400Y492250I21680J-21680D01*
G01*
X415500Y530350D02*
G03*
X393820Y521370I0J-30661D01*
G01*
X475280D02*
G03*
X453600Y530350I-21680J-21680D01*
G01*
X491700Y492250D02*
G03*
X482720Y513930I-30661J0D01*
G01*
X491700Y446711D02*
G03*
X495420Y437730I12700J0D01*
G01*
D02*
G03*
X517100Y428750I21680J21680D01*
G01*
X251000Y454150D02*
X359439D01*
X377400Y479550D02*
Y492250D01*
X386380Y513930D02*
X393820Y521370D01*
X415500Y530350D02*
X453600D01*
X475280Y521370D02*
X482720Y513930D01*
X491700Y446711D02*
Y492250D01*
X517100Y428750D02*
X587250D01*
D40*
X405200Y777000D02*
D03*
X475200Y776000D02*
D03*
D48*
X578250Y390650D02*
D03*
D49*
Y416050D02*
D03*
Y441450D02*
D03*
D51*
X630750Y636395D02*
D03*
X373500Y610000D02*
D03*
X232500Y593000D02*
D03*
X359500Y777715D02*
D03*
X337500Y762000D02*
D03*
X360000Y710598D02*
D03*
X234250Y769751D02*
D03*
X635000Y607500D02*
D03*
Y585000D02*
D03*
X627500Y542500D02*
D03*
X267000Y388000D02*
D03*
X347250Y565000D02*
D03*
X298001Y590499D02*
D03*
X428000Y678000D02*
D03*
X309382Y631000D02*
D03*
D52*
X578250Y407164D02*
D03*
Y450336D02*
D03*
M02*
