G04*
G04 #@! TF.GenerationSoftware,Altium Limited,CircuitStudio,1.5.2 (1.5.2.30)*
G04*
G04 Layer_Color=20142*
%FSLAX44Y44*%
%MOMM*%
G71*
G01*
G75*
%ADD34C,0.5000*%
%ADD36C,2.5000*%
%ADD55R,2.0000X38.7500*%
%ADD56R,2.0000X38.5000*%
%ADD61R,0.9032X1.5032*%
G04:AMPARAMS|DCode=62|XSize=0.8032mm|YSize=2.1032mm|CornerRadius=0.2516mm|HoleSize=0mm|Usage=FLASHONLY|Rotation=180.000|XOffset=0mm|YOffset=0mm|HoleType=Round|Shape=RoundedRectangle|*
%AMROUNDEDRECTD62*
21,1,0.8032,1.6000,0,0,180.0*
21,1,0.3000,2.1032,0,0,180.0*
1,1,0.5032,-0.1500,0.8000*
1,1,0.5032,0.1500,0.8000*
1,1,0.5032,0.1500,-0.8000*
1,1,0.5032,-0.1500,-0.8000*
%
%ADD62ROUNDEDRECTD62*%
%ADD63R,2.6162X5.2832*%
%ADD64R,1.2032X1.7272*%
%ADD65R,1.8032X1.5032*%
%ADD66R,1.5032X1.8032*%
%ADD67R,0.4532X0.4532*%
%ADD68R,0.7432X2.0932*%
%ADD69R,1.5032X0.9032*%
%ADD70R,0.8032X1.2032*%
%ADD71R,1.1176X1.0160*%
%ADD72R,1.7272X1.2032*%
%ADD73R,1.2032X0.8032*%
%ADD74R,1.4232X1.1132*%
%ADD75R,1.9052X1.1172*%
%ADD76R,1.1172X1.9052*%
%ADD77R,1.6032X0.8032*%
%ADD78R,1.6532X0.8032*%
G04:AMPARAMS|DCode=79|XSize=1.8032mm|YSize=3.7032mm|CornerRadius=0.3016mm|HoleSize=0mm|Usage=FLASHONLY|Rotation=0.000|XOffset=0mm|YOffset=0mm|HoleType=Round|Shape=RoundedRectangle|*
%AMROUNDEDRECTD79*
21,1,1.8032,3.1000,0,0,0.0*
21,1,1.2000,3.7032,0,0,0.0*
1,1,0.6032,0.6000,-1.5500*
1,1,0.6032,-0.6000,-1.5500*
1,1,0.6032,-0.6000,1.5500*
1,1,0.6032,0.6000,1.5500*
%
%ADD79ROUNDEDRECTD79*%
%ADD80R,1.8032X3.7032*%
G04:AMPARAMS|DCode=81|XSize=1.4032mm|YSize=1.4032mm|CornerRadius=0.4016mm|HoleSize=0mm|Usage=FLASHONLY|Rotation=270.000|XOffset=0mm|YOffset=0mm|HoleType=Round|Shape=RoundedRectangle|*
%AMROUNDEDRECTD81*
21,1,1.4032,0.6000,0,0,270.0*
21,1,0.6000,1.4032,0,0,270.0*
1,1,0.8032,-0.3000,-0.3000*
1,1,0.8032,-0.3000,0.3000*
1,1,0.8032,0.3000,0.3000*
1,1,0.8032,0.3000,-0.3000*
%
%ADD81ROUNDEDRECTD81*%
G04:AMPARAMS|DCode=82|XSize=1.8032mm|YSize=1.7032mm|CornerRadius=0.4766mm|HoleSize=0mm|Usage=FLASHONLY|Rotation=270.000|XOffset=0mm|YOffset=0mm|HoleType=Round|Shape=RoundedRectangle|*
%AMROUNDEDRECTD82*
21,1,1.8032,0.7500,0,0,270.0*
21,1,0.8500,1.7032,0,0,270.0*
1,1,0.9532,-0.3750,-0.4250*
1,1,0.9532,-0.3750,0.4250*
1,1,0.9532,0.3750,0.4250*
1,1,0.9532,0.3750,-0.4250*
%
%ADD82ROUNDEDRECTD82*%
%ADD83O,1.7032X2.7032*%
%ADD84C,1.7272*%
%ADD85C,1.5032*%
G04:AMPARAMS|DCode=86|XSize=1.5032mm|YSize=1.5032mm|CornerRadius=0.4266mm|HoleSize=0mm|Usage=FLASHONLY|Rotation=180.000|XOffset=0mm|YOffset=0mm|HoleType=Round|Shape=RoundedRectangle|*
%AMROUNDEDRECTD86*
21,1,1.5032,0.6500,0,0,180.0*
21,1,0.6500,1.5032,0,0,180.0*
1,1,0.8532,-0.3250,0.3250*
1,1,0.8532,0.3250,0.3250*
1,1,0.8532,0.3250,-0.3250*
1,1,0.8532,-0.3250,-0.3250*
%
%ADD86ROUNDEDRECTD86*%
G04:AMPARAMS|DCode=87|XSize=2.2032mm|YSize=4.2032mm|CornerRadius=0.6016mm|HoleSize=0mm|Usage=FLASHONLY|Rotation=90.000|XOffset=0mm|YOffset=0mm|HoleType=Round|Shape=RoundedRectangle|*
%AMROUNDEDRECTD87*
21,1,2.2032,3.0000,0,0,90.0*
21,1,1.0000,4.2032,0,0,90.0*
1,1,1.2032,1.5000,0.5000*
1,1,1.2032,1.5000,-0.5000*
1,1,1.2032,-1.5000,-0.5000*
1,1,1.2032,-1.5000,0.5000*
%
%ADD87ROUNDEDRECTD87*%
G04:AMPARAMS|DCode=88|XSize=2.2032mm|YSize=4.7032mm|CornerRadius=0.6016mm|HoleSize=0mm|Usage=FLASHONLY|Rotation=270.000|XOffset=0mm|YOffset=0mm|HoleType=Round|Shape=RoundedRectangle|*
%AMROUNDEDRECTD88*
21,1,2.2032,3.5000,0,0,270.0*
21,1,1.0000,4.7032,0,0,270.0*
1,1,1.2032,-1.7500,-0.5000*
1,1,1.2032,-1.7500,0.5000*
1,1,1.2032,1.7500,0.5000*
1,1,1.2032,1.7500,-0.5000*
%
%ADD88ROUNDEDRECTD88*%
G04:AMPARAMS|DCode=89|XSize=2.2032mm|YSize=4.2032mm|CornerRadius=0.6016mm|HoleSize=0mm|Usage=FLASHONLY|Rotation=180.000|XOffset=0mm|YOffset=0mm|HoleType=Round|Shape=RoundedRectangle|*
%AMROUNDEDRECTD89*
21,1,2.2032,3.0000,0,0,180.0*
21,1,1.0000,4.2032,0,0,180.0*
1,1,1.2032,-0.5000,1.5000*
1,1,1.2032,0.5000,1.5000*
1,1,1.2032,0.5000,-1.5000*
1,1,1.2032,-0.5000,-1.5000*
%
%ADD89ROUNDEDRECTD89*%
%ADD90C,1.7032*%
%ADD91O,2.2032X3.2032*%
%ADD92R,2.7432X2.7432*%
%ADD93C,2.7432*%
%ADD94O,2.2032X1.7032*%
%ADD95C,2.2032*%
%ADD96R,2.2032X1.7032*%
%ADD97C,0.8032*%
%ADD98C,1.4532*%
G36*
X414000Y500000D02*
X414000Y430000D01*
X430000Y414000D01*
X430000Y370000D01*
X384898D01*
X384000Y370898D01*
X384000Y453950D01*
X385896Y456789D01*
X385948Y456913D01*
X386030Y457020D01*
X388532Y462094D01*
X388567Y462224D01*
X388634Y462341D01*
X390453Y467699D01*
X390471Y467832D01*
X390522Y467956D01*
X391626Y473506D01*
Y473641D01*
X391661Y473770D01*
X392031Y479417D01*
X392022Y479484D01*
X392035Y479550D01*
Y479550D01*
X392034Y479557D01*
X392035Y479565D01*
X391943Y492265D01*
X391891Y492516D01*
X392176Y495410D01*
X393098Y498448D01*
X393927Y500000D01*
X414000Y500000D01*
D02*
G37*
G36*
X476002Y498448D02*
X476924Y495410D01*
X477000Y494637D01*
X477000Y370013D01*
X432898Y369973D01*
X432000Y370871D01*
X432000Y413600D01*
X450000Y432800D01*
X450000Y500000D01*
X475172Y500000D01*
X476002Y498448D01*
D02*
G37*
G36*
X615999Y555499D02*
X621500Y550000D01*
X621500Y520500D01*
X603500D01*
X603499Y549999D01*
X609001Y555500D01*
X609000Y571000D01*
X616000D01*
X615999Y555499D01*
D02*
G37*
G36*
X565999D02*
X571500Y550000D01*
X571500Y520500D01*
X553500D01*
X553499Y549999D01*
X559001Y555500D01*
X559000Y571000D01*
X566000D01*
X565999Y555499D01*
D02*
G37*
D34*
X350049Y837549D02*
G03*
X352549Y840049I0J2500D01*
G01*
X362549Y850049D02*
G03*
X352549Y840049I0J-10000D01*
G01*
X512000D02*
G03*
X514500Y837549I2500J0D01*
G01*
X512000Y840049D02*
G03*
X502000Y850049I-10000J0D01*
G01*
X362549D02*
X502000D01*
X667500Y837549D02*
X682500D01*
X514500D02*
X667500D01*
X182500Y837500D02*
X350049D01*
X682500Y410000D02*
Y837549D01*
X622600Y350100D02*
X682500Y410000D01*
X182500D02*
Y837500D01*
X242400Y350100D02*
X622600D01*
X182500Y410000D02*
X242400Y350100D01*
D36*
X359439Y454150D02*
G03*
X368420Y457870I0J12700D01*
G01*
D02*
G03*
X377400Y479550I-21680J21680D01*
G01*
X386380Y513930D02*
G03*
X377400Y492250I21680J-21680D01*
G01*
X415500Y530350D02*
G03*
X393820Y521370I0J-30661D01*
G01*
X475280D02*
G03*
X453600Y530350I-21680J-21680D01*
G01*
X491700Y492250D02*
G03*
X482720Y513930I-30661J0D01*
G01*
X491700Y446711D02*
G03*
X495420Y437730I12700J0D01*
G01*
D02*
G03*
X517100Y428750I21680J21680D01*
G01*
X251000Y454150D02*
X359439D01*
X377400Y479550D02*
Y492250D01*
X386380Y513930D02*
X393820Y521370D01*
X415500Y530350D02*
X453600D01*
X475280Y521370D02*
X482720Y513930D01*
X491700Y446711D02*
Y492250D01*
X517100Y428750D02*
X587250D01*
D55*
X657500Y636250D02*
D03*
D56*
X207500Y637500D02*
D03*
D61*
X627000Y722500D02*
D03*
X608000D02*
D03*
X573000Y667500D02*
D03*
X592000D02*
D03*
X300500Y698000D02*
D03*
X281500D02*
D03*
X263500Y631000D02*
D03*
X244500D02*
D03*
X263500Y675667D02*
D03*
X244500D02*
D03*
X263500Y698000D02*
D03*
X244500D02*
D03*
X513000Y812500D02*
D03*
X532000D02*
D03*
X263500Y653333D02*
D03*
X244500D02*
D03*
X237549Y719790D02*
D03*
X256549D02*
D03*
X513000Y792500D02*
D03*
X532000D02*
D03*
X364000Y610000D02*
D03*
X383000D02*
D03*
Y632000D02*
D03*
X364000D02*
D03*
X343500Y614000D02*
D03*
X324500D02*
D03*
D62*
X352700Y500250D02*
D03*
X263800D02*
D03*
X276500D02*
D03*
X289200D02*
D03*
X301900D02*
D03*
X314600D02*
D03*
X327300D02*
D03*
X340000D02*
D03*
X352700Y406250D02*
D03*
X340000D02*
D03*
X327300D02*
D03*
X314600D02*
D03*
X301900D02*
D03*
X289200D02*
D03*
X276500D02*
D03*
X263800D02*
D03*
D63*
X238685Y807000D02*
D03*
X326315D02*
D03*
D64*
X420590Y414000D02*
D03*
X440910D02*
D03*
X622660Y584000D02*
D03*
X602340D02*
D03*
X280840Y676000D02*
D03*
X301160D02*
D03*
X324590Y593000D02*
D03*
X344910D02*
D03*
X571410Y584000D02*
D03*
X551090D02*
D03*
X571160Y606250D02*
D03*
X550840D02*
D03*
X299160Y383840D02*
D03*
X278840D02*
D03*
X281270Y720730D02*
D03*
X301590D02*
D03*
X282840Y607500D02*
D03*
X303160D02*
D03*
X416340Y587500D02*
D03*
X436660D02*
D03*
D65*
X439020Y737210D02*
D03*
Y756210D02*
D03*
X463597Y737210D02*
D03*
Y756210D02*
D03*
X414443Y737210D02*
D03*
Y756210D02*
D03*
X389867Y737210D02*
D03*
Y756210D02*
D03*
X439020Y713710D02*
D03*
Y694710D02*
D03*
X463597Y713710D02*
D03*
Y694710D02*
D03*
X414443Y713710D02*
D03*
Y694710D02*
D03*
X389867Y713710D02*
D03*
Y694710D02*
D03*
X525250Y577150D02*
D03*
Y558150D02*
D03*
X494000Y380500D02*
D03*
Y399500D02*
D03*
D66*
X607000Y505000D02*
D03*
X588000D02*
D03*
X603000Y606410D02*
D03*
X622000D02*
D03*
X486500Y754250D02*
D03*
X505500D02*
D03*
X505250Y707000D02*
D03*
X486250D02*
D03*
X505750Y635900D02*
D03*
X486750D02*
D03*
X505750Y659950D02*
D03*
X486750D02*
D03*
X534500Y382000D02*
D03*
X515500D02*
D03*
X527250Y530000D02*
D03*
X508250D02*
D03*
X505750Y684000D02*
D03*
X486750D02*
D03*
D67*
X612500Y529500D02*
D03*
X562500D02*
D03*
D68*
X597500Y560500D02*
D03*
X627500D02*
D03*
X547500D02*
D03*
X577500D02*
D03*
D69*
X359000Y541250D02*
D03*
Y522250D02*
D03*
X260000Y541250D02*
D03*
Y522250D02*
D03*
X339200Y541250D02*
D03*
Y522250D02*
D03*
X279800Y541250D02*
D03*
Y522250D02*
D03*
X484249Y569500D02*
D03*
Y550500D02*
D03*
X464250Y569500D02*
D03*
Y550500D02*
D03*
X299000Y577500D02*
D03*
Y558500D02*
D03*
X442500Y431500D02*
D03*
Y450500D02*
D03*
X321000Y675500D02*
D03*
Y694500D02*
D03*
X319400Y541250D02*
D03*
Y522250D02*
D03*
X321000Y726000D02*
D03*
Y707000D02*
D03*
X341000Y726000D02*
D03*
Y707000D02*
D03*
X365000Y591500D02*
D03*
Y572500D02*
D03*
X299600Y541250D02*
D03*
Y522250D02*
D03*
X421500Y431500D02*
D03*
Y450500D02*
D03*
X360000Y723598D02*
D03*
Y742598D02*
D03*
X341000Y675500D02*
D03*
Y694500D02*
D03*
X234250Y760250D02*
D03*
Y741250D02*
D03*
X347000Y657000D02*
D03*
Y638000D02*
D03*
D70*
X299499Y655002D02*
D03*
X290000D02*
D03*
X280500D02*
D03*
Y628998D02*
D03*
X299499D02*
D03*
X506749Y612652D02*
D03*
X497250D02*
D03*
X487750D02*
D03*
Y586648D02*
D03*
X506749D02*
D03*
X420500Y678002D02*
D03*
X439499D02*
D03*
Y651998D02*
D03*
X430000D02*
D03*
X420500D02*
D03*
D71*
X355412Y387924D02*
D03*
X376588Y397576D02*
D03*
Y378424D02*
D03*
X595928Y642331D02*
D03*
X617104Y651983D02*
D03*
Y632831D02*
D03*
X243412Y601924D02*
D03*
X264588Y611576D02*
D03*
Y592424D02*
D03*
X580354Y631831D02*
D03*
Y650983D02*
D03*
X559178Y641331D02*
D03*
D72*
X387000Y589160D02*
D03*
Y568840D02*
D03*
X556000Y406160D02*
D03*
Y385840D02*
D03*
X256500Y760160D02*
D03*
Y739840D02*
D03*
X235750Y492590D02*
D03*
Y512910D02*
D03*
X322500Y741840D02*
D03*
Y762160D02*
D03*
X401000Y651840D02*
D03*
Y672160D02*
D03*
X324000Y657160D02*
D03*
Y636840D02*
D03*
X369500Y659840D02*
D03*
Y680160D02*
D03*
D73*
X275748Y759500D02*
D03*
Y750000D02*
D03*
Y740500D02*
D03*
X301752D02*
D03*
Y759500D02*
D03*
X316747Y574500D02*
D03*
Y565000D02*
D03*
Y555500D02*
D03*
X342752D02*
D03*
Y574500D02*
D03*
D74*
X525500Y658600D02*
D03*
Y625900D02*
D03*
X525500Y675650D02*
D03*
Y708350D02*
D03*
X359500Y763900D02*
D03*
Y796600D02*
D03*
D75*
X552750Y485220D02*
D03*
Y454780D02*
D03*
X466250Y614870D02*
D03*
Y584430D02*
D03*
D76*
X563970Y506500D02*
D03*
X533530D02*
D03*
D77*
X533000Y470500D02*
D03*
X525250Y610650D02*
D03*
D78*
X533000Y486500D02*
D03*
X525250Y594650D02*
D03*
D79*
X459000Y477500D02*
D03*
D80*
X405000D02*
D03*
D81*
X401000Y627000D02*
D03*
Y607000D02*
D03*
D82*
X434000Y617000D02*
D03*
D83*
X567500Y692500D02*
D03*
X587500D02*
D03*
X607500D02*
D03*
X627500D02*
D03*
D84*
X232500Y410000D02*
D03*
X632500D02*
D03*
X517000Y405000D02*
D03*
Y455000D02*
D03*
D85*
X379800Y777000D02*
D03*
X449800Y776000D02*
D03*
D86*
X405200Y777000D02*
D03*
X475200Y776000D02*
D03*
D87*
X572500Y792500D02*
D03*
D88*
Y732500D02*
D03*
D89*
X619500Y762500D02*
D03*
D90*
X392500Y827500D02*
D03*
X432500D02*
D03*
X452500D02*
D03*
X472500D02*
D03*
D91*
X371500D02*
D03*
X493500D02*
D03*
D92*
X457900Y390000D02*
D03*
D93*
X407100D02*
D03*
D94*
X578250Y390650D02*
D03*
D95*
Y416050D02*
D03*
Y441450D02*
D03*
D96*
Y466850D02*
D03*
D97*
X630750Y636395D02*
D03*
X585000Y812500D02*
D03*
X595000D02*
D03*
X605000D02*
D03*
X613988D02*
D03*
X507500Y725000D02*
D03*
X522500Y755000D02*
D03*
X345500Y421750D02*
D03*
X314500D02*
D03*
X292250Y434000D02*
D03*
X297500Y426250D02*
D03*
X286750Y426750D02*
D03*
X259750Y421500D02*
D03*
X282500Y787750D02*
D03*
X657500Y805000D02*
D03*
X524500Y638750D02*
D03*
X572250Y573000D02*
D03*
X403500Y578000D02*
D03*
X449500Y665000D02*
D03*
X403500Y589000D02*
D03*
X373500Y632000D02*
D03*
Y610000D02*
D03*
X657500Y705000D02*
D03*
Y685000D02*
D03*
Y695000D02*
D03*
X232500Y593000D02*
D03*
X288000Y750000D02*
D03*
X657500Y675000D02*
D03*
X207500Y665000D02*
D03*
X359500Y777715D02*
D03*
X509400Y553052D02*
D03*
X256500Y773000D02*
D03*
X337500Y762000D02*
D03*
X288500Y740000D02*
D03*
X267500Y719460D02*
D03*
X360000Y710598D02*
D03*
X207500Y715000D02*
D03*
X234250Y769751D02*
D03*
X635000Y607500D02*
D03*
Y585000D02*
D03*
X627500Y542500D02*
D03*
X622500Y505000D02*
D03*
X612500Y580000D02*
D03*
Y542500D02*
D03*
X513250Y545250D02*
D03*
X522500D02*
D03*
X587499Y525000D02*
D03*
X586500Y584000D02*
D03*
X586250Y606250D02*
D03*
X657500Y585000D02*
D03*
Y595000D02*
D03*
Y605000D02*
D03*
X464250Y559250D02*
D03*
X207500Y485000D02*
D03*
Y475000D02*
D03*
Y805000D02*
D03*
Y825000D02*
D03*
Y815000D02*
D03*
Y795000D02*
D03*
Y755000D02*
D03*
Y775000D02*
D03*
Y785000D02*
D03*
Y765000D02*
D03*
Y735000D02*
D03*
Y745000D02*
D03*
Y725000D02*
D03*
Y605000D02*
D03*
Y625000D02*
D03*
Y615000D02*
D03*
Y595000D02*
D03*
Y645000D02*
D03*
Y655000D02*
D03*
Y635000D02*
D03*
Y675000D02*
D03*
Y695000D02*
D03*
Y705000D02*
D03*
Y685000D02*
D03*
Y505000D02*
D03*
Y495000D02*
D03*
Y525000D02*
D03*
Y545000D02*
D03*
Y535000D02*
D03*
Y515000D02*
D03*
Y555000D02*
D03*
Y575000D02*
D03*
Y585000D02*
D03*
Y565000D02*
D03*
X657500Y465000D02*
D03*
Y455000D02*
D03*
Y565000D02*
D03*
Y575000D02*
D03*
Y555000D02*
D03*
Y515000D02*
D03*
Y535000D02*
D03*
Y545000D02*
D03*
Y525000D02*
D03*
Y475000D02*
D03*
Y495000D02*
D03*
Y505000D02*
D03*
Y485000D02*
D03*
Y635000D02*
D03*
Y655000D02*
D03*
Y665000D02*
D03*
Y645000D02*
D03*
Y615000D02*
D03*
Y625000D02*
D03*
Y725000D02*
D03*
Y745000D02*
D03*
Y735000D02*
D03*
Y715000D02*
D03*
Y765000D02*
D03*
Y785000D02*
D03*
Y775000D02*
D03*
Y755000D02*
D03*
Y795000D02*
D03*
Y815000D02*
D03*
Y825000D02*
D03*
X361000Y512000D02*
D03*
X370000Y412000D02*
D03*
X363000Y419000D02*
D03*
X370000Y433000D02*
D03*
X367000Y388000D02*
D03*
X258000D02*
D03*
X329500D02*
D03*
X344000D02*
D03*
X267000D02*
D03*
X315000D02*
D03*
X304500Y807500D02*
D03*
X264500D02*
D03*
X498250Y550000D02*
D03*
X466250Y631000D02*
D03*
X499250Y601000D02*
D03*
X496250Y570000D02*
D03*
X488250Y601000D02*
D03*
X536000Y405660D02*
D03*
X327250Y555250D02*
D03*
X552750Y472000D02*
D03*
X544000Y506500D02*
D03*
X554500D02*
D03*
X561250Y583750D02*
D03*
X550840Y573000D02*
D03*
X347250Y565000D02*
D03*
X298001Y590499D02*
D03*
X606266Y650983D02*
D03*
X560999Y605999D02*
D03*
X428000Y678000D02*
D03*
X437000Y665000D02*
D03*
X429500Y641500D02*
D03*
X376999Y426000D02*
D03*
X445000Y485000D02*
D03*
X419000D02*
D03*
X421500Y441000D02*
D03*
X442500D02*
D03*
X432230D02*
D03*
X419000Y507000D02*
D03*
X445000D02*
D03*
X327000Y568000D02*
D03*
X250750Y509750D02*
D03*
Y495750D02*
D03*
X275500Y769000D02*
D03*
X246049Y719790D02*
D03*
X365000Y557000D02*
D03*
X290000Y644000D02*
D03*
X309000Y654000D02*
D03*
X309382Y631000D02*
D03*
X254000Y632000D02*
D03*
Y664000D02*
D03*
X356000Y676000D02*
D03*
X384951Y660710D02*
D03*
X284875Y590500D02*
D03*
D98*
X578250Y407164D02*
D03*
Y450336D02*
D03*
M02*
