G04*
G04 #@! TF.GenerationSoftware,Altium Limited,CircuitStudio,1.5.2 (1.5.2.30)*
G04*
G04 Layer_Physical_Order=1*
G04 Layer_Color=11767835*
%FSLAX44Y44*%
%MOMM*%
G71*
G01*
G75*
%ADD10R,0.7000X1.3000*%
G04:AMPARAMS|DCode=11|XSize=0.6mm|YSize=1.9mm|CornerRadius=0.15mm|HoleSize=0mm|Usage=FLASHONLY|Rotation=180.000|XOffset=0mm|YOffset=0mm|HoleType=Round|Shape=RoundedRectangle|*
%AMROUNDEDRECTD11*
21,1,0.6000,1.6000,0,0,180.0*
21,1,0.3000,1.9000,0,0,180.0*
1,1,0.3000,-0.1500,0.8000*
1,1,0.3000,0.1500,0.8000*
1,1,0.3000,0.1500,-0.8000*
1,1,0.3000,-0.1500,-0.8000*
%
%ADD11ROUNDEDRECTD11*%
%ADD12R,2.4130X5.0800*%
%ADD13R,1.0000X1.5240*%
%ADD14R,1.6000X1.3000*%
%ADD15R,1.3000X1.6000*%
%ADD16R,0.2500X0.2500*%
%ADD17R,0.5400X1.8900*%
%ADD18R,1.3000X0.7000*%
%ADD19R,0.6000X1.0000*%
%ADD20R,0.9144X0.8128*%
%ADD21R,0.2540X0.2540*%
%ADD22R,1.5240X1.0000*%
%ADD23R,1.0000X0.6000*%
%ADD24R,1.2200X0.9100*%
%ADD25R,1.7020X0.9140*%
%ADD26R,0.9140X1.7020*%
%ADD27R,1.4000X0.6000*%
%ADD28R,1.4500X0.6000*%
G04:AMPARAMS|DCode=29|XSize=1.6mm|YSize=3.5mm|CornerRadius=0.2mm|HoleSize=0mm|Usage=FLASHONLY|Rotation=0.000|XOffset=0mm|YOffset=0mm|HoleType=Round|Shape=RoundedRectangle|*
%AMROUNDEDRECTD29*
21,1,1.6000,3.1000,0,0,0.0*
21,1,1.2000,3.5000,0,0,0.0*
1,1,0.4000,0.6000,-1.5500*
1,1,0.4000,-0.6000,-1.5500*
1,1,0.4000,-0.6000,1.5500*
1,1,0.4000,0.6000,1.5500*
%
%ADD29ROUNDEDRECTD29*%
%ADD30R,1.6000X3.5000*%
G04:AMPARAMS|DCode=31|XSize=1.2mm|YSize=1.2mm|CornerRadius=0.3mm|HoleSize=0mm|Usage=FLASHONLY|Rotation=270.000|XOffset=0mm|YOffset=0mm|HoleType=Round|Shape=RoundedRectangle|*
%AMROUNDEDRECTD31*
21,1,1.2000,0.6000,0,0,270.0*
21,1,0.6000,1.2000,0,0,270.0*
1,1,0.6000,-0.3000,-0.3000*
1,1,0.6000,-0.3000,0.3000*
1,1,0.6000,0.3000,0.3000*
1,1,0.6000,0.3000,-0.3000*
%
%ADD31ROUNDEDRECTD31*%
G04:AMPARAMS|DCode=32|XSize=1.6mm|YSize=1.5mm|CornerRadius=0.375mm|HoleSize=0mm|Usage=FLASHONLY|Rotation=270.000|XOffset=0mm|YOffset=0mm|HoleType=Round|Shape=RoundedRectangle|*
%AMROUNDEDRECTD32*
21,1,1.6000,0.7500,0,0,270.0*
21,1,0.8500,1.5000,0,0,270.0*
1,1,0.7500,-0.3750,-0.4250*
1,1,0.7500,-0.3750,0.4250*
1,1,0.7500,0.3750,0.4250*
1,1,0.7500,0.3750,-0.4250*
%
%ADD32ROUNDEDRECTD32*%
%ADD33C,0.2540*%
%ADD34C,0.5000*%
%ADD35C,0.2500*%
%ADD36C,2.5000*%
%ADD37O,1.5000X2.5000*%
%ADD38C,1.5240*%
%ADD39C,1.3000*%
G04:AMPARAMS|DCode=40|XSize=1.3mm|YSize=1.3mm|CornerRadius=0.325mm|HoleSize=0mm|Usage=FLASHONLY|Rotation=180.000|XOffset=0mm|YOffset=0mm|HoleType=Round|Shape=RoundedRectangle|*
%AMROUNDEDRECTD40*
21,1,1.3000,0.6500,0,0,180.0*
21,1,0.6500,1.3000,0,0,180.0*
1,1,0.6500,-0.3250,0.3250*
1,1,0.6500,0.3250,0.3250*
1,1,0.6500,0.3250,-0.3250*
1,1,0.6500,-0.3250,-0.3250*
%
%ADD40ROUNDEDRECTD40*%
G04:AMPARAMS|DCode=41|XSize=2mm|YSize=4mm|CornerRadius=0.5mm|HoleSize=0mm|Usage=FLASHONLY|Rotation=90.000|XOffset=0mm|YOffset=0mm|HoleType=Round|Shape=RoundedRectangle|*
%AMROUNDEDRECTD41*
21,1,2.0000,3.0000,0,0,90.0*
21,1,1.0000,4.0000,0,0,90.0*
1,1,1.0000,1.5000,0.5000*
1,1,1.0000,1.5000,-0.5000*
1,1,1.0000,-1.5000,-0.5000*
1,1,1.0000,-1.5000,0.5000*
%
%ADD41ROUNDEDRECTD41*%
G04:AMPARAMS|DCode=42|XSize=2mm|YSize=4.5mm|CornerRadius=0.5mm|HoleSize=0mm|Usage=FLASHONLY|Rotation=270.000|XOffset=0mm|YOffset=0mm|HoleType=Round|Shape=RoundedRectangle|*
%AMROUNDEDRECTD42*
21,1,2.0000,3.5000,0,0,270.0*
21,1,1.0000,4.5000,0,0,270.0*
1,1,1.0000,-1.7500,-0.5000*
1,1,1.0000,-1.7500,0.5000*
1,1,1.0000,1.7500,0.5000*
1,1,1.0000,1.7500,-0.5000*
%
%ADD42ROUNDEDRECTD42*%
G04:AMPARAMS|DCode=43|XSize=2mm|YSize=4mm|CornerRadius=0.5mm|HoleSize=0mm|Usage=FLASHONLY|Rotation=180.000|XOffset=0mm|YOffset=0mm|HoleType=Round|Shape=RoundedRectangle|*
%AMROUNDEDRECTD43*
21,1,2.0000,3.0000,0,0,180.0*
21,1,1.0000,4.0000,0,0,180.0*
1,1,1.0000,-0.5000,1.5000*
1,1,1.0000,0.5000,1.5000*
1,1,1.0000,0.5000,-1.5000*
1,1,1.0000,-0.5000,-1.5000*
%
%ADD43ROUNDEDRECTD43*%
%ADD44C,1.5000*%
%ADD45O,2.0000X3.0000*%
%ADD46R,2.5400X2.5400*%
%ADD47C,2.5400*%
%ADD48O,2.0000X1.5000*%
%ADD49C,2.0000*%
%ADD50R,2.0000X1.5000*%
%ADD51C,0.6000*%
%ADD52C,1.2500*%
G36*
X603412Y735099D02*
Y731000D01*
X602500D01*
Y723488D01*
X585880Y706869D01*
X585020Y706755D01*
X582709Y705798D01*
X580724Y704275D01*
X579202Y702291D01*
X578245Y699980D01*
X578140Y699189D01*
X576859D01*
X576755Y699980D01*
X575798Y702291D01*
X574275Y704275D01*
X572291Y705798D01*
X569980Y706755D01*
X567500Y707082D01*
X565020Y706755D01*
X562709Y705798D01*
X560724Y704275D01*
X559202Y702291D01*
X558245Y699980D01*
X557918Y697500D01*
Y694588D01*
X546900D01*
X533600Y707888D01*
Y714900D01*
X517400D01*
Y701800D01*
X526711D01*
X541756Y686756D01*
X543244Y685761D01*
X545000Y685412D01*
X558193D01*
X558245Y685020D01*
X559202Y682709D01*
X560724Y680724D01*
X562709Y679202D01*
X565020Y678244D01*
X567094Y677971D01*
X567851Y676797D01*
X567505Y676000D01*
X567500D01*
Y659000D01*
X578500D01*
Y676000D01*
X577588D01*
Y679500D01*
X577239Y681256D01*
X576244Y682744D01*
X575939Y683049D01*
X576755Y685020D01*
X576859Y685810D01*
X578140D01*
X578245Y685020D01*
X579202Y682709D01*
X580724Y680724D01*
X582709Y679202D01*
X585020Y678244D01*
X587500Y677918D01*
X589980Y678244D01*
X592291Y679202D01*
X594275Y680724D01*
X595798Y682709D01*
X596755Y685020D01*
X596859Y685810D01*
X598140D01*
X598245Y685020D01*
X599202Y682709D01*
X600724Y680724D01*
X601695Y679980D01*
X601805Y678294D01*
X598770Y675258D01*
X597500Y675785D01*
Y676000D01*
X586500D01*
Y659000D01*
X597500D01*
Y665412D01*
X600000D01*
X601756Y665761D01*
X603244Y666756D01*
X610744Y674256D01*
X611739Y675744D01*
X612088Y677500D01*
Y679118D01*
X612291Y679202D01*
X614275Y680724D01*
X615798Y682709D01*
X616755Y685020D01*
X616859Y685810D01*
X618140D01*
X618245Y685020D01*
X619202Y682709D01*
X620724Y680724D01*
X622709Y679202D01*
X625020Y678244D01*
X627500Y677918D01*
X629980Y678244D01*
X632291Y679202D01*
X634275Y680724D01*
X635396Y682185D01*
X636666Y681753D01*
Y639213D01*
X635488Y638431D01*
X635396Y638442D01*
X634355Y640000D01*
X632701Y641105D01*
X630750Y641493D01*
X628799Y641105D01*
X627145Y640000D01*
X626040Y638346D01*
X625652Y636395D01*
X625463Y636165D01*
X623676D01*
Y638895D01*
X610532D01*
Y626767D01*
X609719Y625834D01*
X586926D01*
Y628497D01*
X592186D01*
X593462Y628751D01*
X594543Y629473D01*
X598285Y633216D01*
X599008Y634297D01*
X599262Y635573D01*
Y636267D01*
X602500D01*
Y645959D01*
X603770Y646637D01*
X604315Y646273D01*
X606266Y645885D01*
X608217Y646273D01*
X609262Y646972D01*
X610532Y646293D01*
Y645919D01*
X623676D01*
Y658047D01*
X610532D01*
Y655674D01*
X609262Y654995D01*
X608217Y655693D01*
X606266Y656081D01*
X604315Y655693D01*
X602661Y654588D01*
X602480Y654317D01*
X586926D01*
Y657047D01*
X573782D01*
Y644919D01*
X586926D01*
Y647649D01*
X589356D01*
Y636267D01*
X589356Y636267D01*
X589356D01*
X589356Y636267D01*
X588950Y635165D01*
X586926D01*
Y637895D01*
X573782D01*
Y625767D01*
X577342D01*
X577996Y624788D01*
X581254Y621530D01*
X580768Y620357D01*
X577891D01*
X577506Y620434D01*
X576752D01*
X563189Y633997D01*
X563715Y635267D01*
X565750D01*
Y647395D01*
X552606D01*
Y635267D01*
X555864D01*
Y633322D01*
X556075Y632264D01*
X556116Y632054D01*
X556835Y630979D01*
X570770Y617043D01*
X570284Y615870D01*
X564160D01*
Y611362D01*
X563114Y610707D01*
X562890Y610721D01*
X560999Y611097D01*
X559110Y610722D01*
X559028Y610717D01*
X557840Y611164D01*
Y615870D01*
X544588D01*
Y672500D01*
X544239Y674256D01*
X543244Y675744D01*
X540094Y678894D01*
X538606Y679889D01*
X536850Y680238D01*
X533600D01*
Y682200D01*
X517400D01*
Y669100D01*
X533600D01*
Y671062D01*
X534949D01*
X535412Y670599D01*
Y615911D01*
X534250Y615650D01*
X534142Y615650D01*
X529838D01*
Y619350D01*
X533600D01*
Y632450D01*
X527139D01*
X527006Y632539D01*
X526645Y632611D01*
X526596Y632774D01*
X526451Y634040D01*
X528105Y635145D01*
X529210Y636799D01*
X529324Y637374D01*
X529739Y637994D01*
X530088Y639750D01*
Y652050D01*
X533600D01*
Y665150D01*
X517400D01*
Y652050D01*
X520912D01*
Y642366D01*
X520895Y642355D01*
X519790Y640701D01*
X519747Y640486D01*
X519500Y640238D01*
X514250D01*
Y645900D01*
X510338D01*
Y649950D01*
X514250D01*
Y669950D01*
X510338D01*
Y674000D01*
X514250D01*
Y694000D01*
X497250D01*
Y674000D01*
X501162D01*
Y669950D01*
X497250D01*
Y649950D01*
X501162D01*
Y645900D01*
X497250D01*
Y625900D01*
X514250D01*
Y631062D01*
X517400D01*
Y619350D01*
X520662D01*
Y615650D01*
X519088D01*
X518842Y615897D01*
X517353Y616891D01*
X515597Y617240D01*
X511749D01*
Y619652D01*
X500454D01*
X500330Y620276D01*
X499607Y621358D01*
X496017Y624948D01*
X495250Y625900D01*
X495250D01*
Y645900D01*
X491338D01*
Y649950D01*
X495250D01*
Y666040D01*
X495295Y666800D01*
X495250Y666931D01*
Y669950D01*
X493277D01*
X491912Y670614D01*
X491338Y670648D01*
Y674000D01*
X495250D01*
Y686550D01*
X495588Y688250D01*
X495250Y689949D01*
Y694000D01*
X481398D01*
X480912Y695173D01*
X482738Y697000D01*
X494750D01*
Y717000D01*
X490838D01*
Y720599D01*
X500650Y730412D01*
X545983D01*
X546756Y729256D01*
X547939Y728465D01*
Y727500D01*
X548180Y725673D01*
X548885Y723970D01*
X550008Y722507D01*
X551470Y721385D01*
X553173Y720680D01*
X555000Y720440D01*
X590000D01*
X591827Y720680D01*
X593530Y721385D01*
X594992Y722507D01*
X596114Y723970D01*
X596820Y725673D01*
X597060Y727500D01*
Y737500D01*
X596820Y739327D01*
X596418Y740297D01*
X597495Y741016D01*
X603412Y735099D01*
D02*
G37*
G36*
X667500Y831000D02*
X667500Y444898D01*
X666602Y444000D01*
X590018D01*
X589941Y444583D01*
X588732Y447502D01*
X586808Y450009D01*
X586554Y450204D01*
X586571Y450336D01*
X586287Y452490D01*
X585456Y454497D01*
X584241Y456080D01*
X584523Y457350D01*
X590250D01*
Y476350D01*
X566250D01*
Y458969D01*
X566238Y458955D01*
X564980Y458348D01*
X563976Y459019D01*
X563260Y459161D01*
Y461350D01*
X542240D01*
Y459368D01*
X538870D01*
X537588Y460650D01*
Y465500D01*
X542000D01*
Y475500D01*
X524000D01*
Y465500D01*
X528412D01*
Y458750D01*
X528761Y456994D01*
X529755Y455506D01*
X533726Y451536D01*
X535214Y450541D01*
X536970Y450192D01*
X542240D01*
Y448210D01*
X562301D01*
X563419Y447092D01*
X564908Y446097D01*
X565217Y446035D01*
X565853Y444757D01*
X565427Y444000D01*
X512378D01*
X510902Y444448D01*
X508102Y445944D01*
X506227Y447483D01*
X506229Y453381D01*
X507499Y453464D01*
X507627Y452489D01*
X508597Y450149D01*
X510139Y448139D01*
X512148Y446597D01*
X514488Y445628D01*
X517000Y445297D01*
X519511Y445628D01*
X521851Y446597D01*
X523861Y448139D01*
X525403Y450149D01*
X526372Y452489D01*
X526703Y455000D01*
X526372Y457511D01*
X525403Y459851D01*
X523861Y461861D01*
X521851Y463403D01*
X519511Y464372D01*
X517000Y464703D01*
X514488Y464372D01*
X512148Y463403D01*
X510139Y461861D01*
X508597Y459851D01*
X507627Y457511D01*
X507500Y456544D01*
X506230Y456628D01*
X506243Y491712D01*
X506271Y491924D01*
X506335Y492250D01*
Y492250D01*
X506322Y492316D01*
X506331Y492383D01*
X505961Y498030D01*
X505926Y498159D01*
Y498294D01*
X504822Y503843D01*
X504771Y503968D01*
X504753Y504101D01*
X502934Y509459D01*
X502867Y509576D01*
X502832Y509706D01*
X500330Y514780D01*
X500248Y514887D01*
X500196Y515011D01*
X497053Y519716D01*
X496958Y519811D01*
X496890Y519928D01*
X493160Y524182D01*
X493099Y524228D01*
X493056Y524292D01*
X485922Y531301D01*
X485814Y531442D01*
X485629Y531719D01*
X485573Y531756D01*
X485532Y531810D01*
X481278Y535541D01*
X481161Y535608D01*
X481066Y535703D01*
X476361Y538847D01*
X476237Y538898D01*
X476130Y538980D01*
X471055Y541483D01*
X470925Y541517D01*
X470809Y541585D01*
X465451Y543403D01*
X465318Y543421D01*
X465193Y543472D01*
X463898Y543730D01*
X464023Y545000D01*
X472750D01*
Y556000D01*
X469278D01*
X468940Y557270D01*
X468960Y557299D01*
X469348Y559250D01*
X468960Y561201D01*
X467938Y562730D01*
X468081Y563308D01*
X468426Y564000D01*
X472750D01*
Y566166D01*
X475749D01*
Y564000D01*
X492749D01*
Y564979D01*
X493869Y565577D01*
X494299Y565290D01*
X496250Y564902D01*
X498201Y565290D01*
X499855Y566395D01*
X500960Y568049D01*
X501348Y570000D01*
X500960Y571951D01*
X499855Y573605D01*
X498201Y574710D01*
X496250Y575098D01*
X494299Y574710D01*
X493851Y574411D01*
X492749Y575000D01*
Y575000D01*
X492749Y575000D01*
X475749D01*
Y572834D01*
X472750D01*
Y575000D01*
X455750D01*
Y564000D01*
X460073D01*
X460419Y563308D01*
X460562Y562730D01*
X459540Y561201D01*
X459152Y559250D01*
X459540Y557299D01*
X459559Y557270D01*
X459221Y556000D01*
X455750D01*
Y546122D01*
X454509Y544930D01*
X453733Y544981D01*
X453666Y544972D01*
X453600Y544986D01*
X453600D01*
X453597Y544985D01*
X453595Y544986D01*
X416027Y544894D01*
X415826Y544921D01*
X415500Y544986D01*
X415500D01*
X415434Y544972D01*
X415367Y544981D01*
X409720Y544611D01*
X409590Y544576D01*
X409456D01*
X403906Y543472D01*
X403782Y543421D01*
X403649Y543403D01*
X398291Y541585D01*
X398174Y541517D01*
X398044Y541483D01*
X392970Y538980D01*
X392863Y538898D01*
X392738Y538847D01*
X388034Y535703D01*
X387939Y535608D01*
X387822Y535541D01*
X383568Y531810D01*
X383521Y531749D01*
X383458Y531706D01*
X376449Y524572D01*
X376308Y524464D01*
X376031Y524279D01*
X375994Y524223D01*
X375940Y524182D01*
X372209Y519928D01*
X372142Y519811D01*
X372047Y519716D01*
X368903Y515011D01*
X368852Y514887D01*
X368770Y514780D01*
X367324Y511849D01*
X366560Y511943D01*
X366065Y512166D01*
X365710Y513951D01*
X364688Y515480D01*
X364831Y516059D01*
X365177Y516750D01*
X367500D01*
Y525711D01*
X368280Y525866D01*
X368942Y526308D01*
X369384Y526970D01*
X369539Y527750D01*
Y535750D01*
X369384Y536530D01*
X368942Y537192D01*
X368280Y537634D01*
X367500Y537789D01*
Y546750D01*
X350500D01*
Y544584D01*
X347700D01*
Y546750D01*
X342534D01*
Y550500D01*
X349752D01*
Y560500D01*
X349752Y560500D01*
X349752D01*
X350702Y561293D01*
X350854Y561395D01*
X351960Y563049D01*
X352348Y565000D01*
X351960Y566951D01*
X350854Y568605D01*
X350685Y568718D01*
X349752Y569500D01*
X349752D01*
X349752Y569500D01*
Y579500D01*
X339624D01*
X339138Y580673D01*
X341845Y583380D01*
X351910D01*
Y602620D01*
X346834D01*
Y605500D01*
X349000D01*
Y622500D01*
X343511D01*
X342985Y623770D01*
X349357Y630143D01*
X350080Y631224D01*
X350334Y632500D01*
X355500D01*
Y643500D01*
X344185D01*
X343800Y644770D01*
X344357Y645142D01*
X349357Y650142D01*
X350080Y651224D01*
X350135Y651500D01*
X355500D01*
Y653012D01*
X359880D01*
Y652840D01*
X379120D01*
Y658325D01*
X379330Y658406D01*
X380390Y658536D01*
X381346Y657105D01*
X381617Y656924D01*
Y654049D01*
X381870Y652773D01*
X382593Y651692D01*
X384142Y650143D01*
X385224Y649420D01*
X386500Y649166D01*
X391380D01*
Y644840D01*
X410620D01*
Y658840D01*
X391380D01*
Y655834D01*
X388819D01*
X388554Y657104D01*
X388555Y657105D01*
X389660Y658759D01*
X390049Y660710D01*
X389660Y662661D01*
X388555Y664315D01*
X386902Y665420D01*
X384951Y665808D01*
X383000Y665420D01*
X381346Y664315D01*
X380390Y662884D01*
X379330Y663014D01*
X379120Y663095D01*
Y666840D01*
X359880D01*
Y659680D01*
X355500D01*
Y662500D01*
X338500D01*
Y651500D01*
X337506Y650834D01*
X333620D01*
Y664160D01*
X314380D01*
Y657334D01*
X312785D01*
X312605Y657605D01*
X310951Y658710D01*
X309000Y659098D01*
X307049Y658710D01*
X305769Y657855D01*
X304499Y658376D01*
Y662002D01*
X302833D01*
Y666380D01*
X308160D01*
Y672666D01*
X312500D01*
Y670000D01*
X329500D01*
Y681000D01*
X330494Y681666D01*
X331506D01*
X332500Y681000D01*
X332500Y680396D01*
Y670000D01*
X349500D01*
Y672166D01*
X352738D01*
X354049Y671290D01*
X356000Y670902D01*
X357951Y671290D01*
X359604Y672395D01*
X360116Y673160D01*
X379120D01*
Y685249D01*
X379867Y686210D01*
X379867D01*
X380390Y686210D01*
X399867D01*
Y689622D01*
X404443D01*
Y686210D01*
X415349D01*
X415500Y685002D01*
X415500Y684940D01*
Y681336D01*
X415002D01*
X413726Y681083D01*
X412645Y680360D01*
X411799Y679514D01*
X410620Y679160D01*
Y679160D01*
X410620Y679160D01*
X391380D01*
Y665160D01*
X410620D01*
Y668984D01*
X410857Y669143D01*
X414327Y672612D01*
X415500Y672126D01*
Y671002D01*
X425500D01*
Y672246D01*
X426770Y673147D01*
X428000Y672902D01*
X429951Y673290D01*
X431604Y674395D01*
X432710Y676049D01*
X433098Y678000D01*
X432710Y679951D01*
X431604Y681605D01*
X429951Y682710D01*
X428000Y683098D01*
X426770Y682853D01*
X425500Y683754D01*
Y685002D01*
X424594D01*
Y685002D01*
X424443Y686210D01*
X424443Y686272D01*
Y689622D01*
X429020D01*
Y686210D01*
X434348D01*
X434499Y685002D01*
X434499Y684940D01*
Y671002D01*
X435036D01*
X435161Y669732D01*
X435049Y669710D01*
X433395Y668605D01*
X433214Y668334D01*
X424000D01*
X422724Y668080D01*
X421642Y667357D01*
X418143Y663858D01*
X417420Y662776D01*
X417166Y661500D01*
Y658998D01*
X415500D01*
Y644998D01*
X424476D01*
X425075Y643878D01*
X424790Y643451D01*
X424402Y641500D01*
X424790Y639549D01*
X425895Y637895D01*
X427549Y636790D01*
X429500Y636402D01*
X429655Y636433D01*
X430735Y635353D01*
X430664Y634999D01*
Y627113D01*
X430250D01*
X428007Y626666D01*
X426105Y625396D01*
X424834Y623493D01*
X424387Y621250D01*
Y612750D01*
X424834Y610507D01*
X426105Y608605D01*
X428007Y607334D01*
X430250Y606887D01*
X433326D01*
Y597120D01*
X429660D01*
Y577880D01*
X443660D01*
Y597120D01*
X439994D01*
Y607334D01*
X441895Y608605D01*
X443166Y610507D01*
X443613Y612750D01*
Y621250D01*
X443166Y623493D01*
X441895Y625396D01*
X439994Y626666D01*
X437750Y627113D01*
X437332D01*
Y633618D01*
X441857Y638142D01*
X442580Y639224D01*
X442833Y640500D01*
Y644998D01*
X444499D01*
Y658998D01*
X438963D01*
X438838Y660268D01*
X438951Y660290D01*
X440605Y661395D01*
X441710Y663049D01*
X442098Y665000D01*
X442021Y665387D01*
X442580Y666224D01*
X442833Y667500D01*
Y671002D01*
X444499D01*
Y684940D01*
X444499Y685002D01*
X444650Y686210D01*
X449020D01*
Y689622D01*
X453597D01*
Y686210D01*
X473597D01*
Y690122D01*
X473960D01*
X475715Y690471D01*
X476980Y691316D01*
X478250Y690919D01*
Y674000D01*
X482162D01*
Y669950D01*
X478250D01*
Y649950D01*
X482162D01*
Y645900D01*
X478250D01*
Y640488D01*
X470900D01*
X469144Y640139D01*
X467655Y639144D01*
X467152Y638391D01*
X464514Y635753D01*
X464299Y635710D01*
X462645Y634605D01*
X461540Y632951D01*
X461152Y631000D01*
X461540Y629049D01*
X461662Y628867D01*
Y621440D01*
X455740D01*
Y608300D01*
X476760D01*
Y621440D01*
X470838D01*
Y628867D01*
X470960Y629049D01*
X471002Y629264D01*
X473050Y631312D01*
X478250D01*
Y627074D01*
X478250Y625900D01*
Y625900D01*
X478570Y624727D01*
X478670Y624224D01*
X479392Y623143D01*
X481892Y620643D01*
X481962Y620596D01*
X482750Y619652D01*
X482750Y619652D01*
Y605652D01*
X484416D01*
Y604262D01*
X483540Y602951D01*
X483152Y601000D01*
X483540Y599049D01*
X484645Y597395D01*
X486299Y596290D01*
X488250Y595902D01*
X490201Y596290D01*
X491855Y597395D01*
X492960Y599049D01*
X493102Y599766D01*
X494397D01*
X494540Y599049D01*
X495645Y597395D01*
X497299Y596290D01*
X499250Y595902D01*
X501201Y596290D01*
X502057Y596862D01*
X502972Y595946D01*
X502510Y595256D01*
X502191Y593648D01*
X501749D01*
Y591236D01*
X492750D01*
Y593648D01*
X482750D01*
Y591236D01*
X481898D01*
X480142Y590887D01*
X478653Y589892D01*
X478030Y589269D01*
X476760Y589623D01*
Y591000D01*
X455740D01*
Y577860D01*
X476760D01*
Y579842D01*
X479680D01*
X481436Y580191D01*
X481630Y580321D01*
X482750Y579723D01*
Y579648D01*
X492750D01*
Y582060D01*
X501749D01*
Y579648D01*
X511749D01*
Y590912D01*
X516000D01*
Y589650D01*
X520662D01*
Y585650D01*
X515250D01*
Y568650D01*
X535250D01*
Y572562D01*
X538020D01*
X539776Y572911D01*
X541264Y573906D01*
X542159Y574801D01*
X543778Y574710D01*
X544090Y574380D01*
D01*
X544571Y573219D01*
X544256Y572905D01*
X543618Y571950D01*
X542800D01*
Y549050D01*
X551191D01*
X551930Y549050D01*
X552200D01*
X552461Y547888D01*
X552461Y547888D01*
Y532838D01*
X535750D01*
Y540000D01*
X527088D01*
Y543117D01*
X527210Y543299D01*
X527598Y545250D01*
X527210Y547201D01*
X526422Y548380D01*
X527026Y549650D01*
X535250D01*
Y566650D01*
X515250D01*
Y556386D01*
X513186D01*
X513005Y556657D01*
X511351Y557762D01*
X509400Y558150D01*
X507449Y557762D01*
X505795Y556657D01*
X504690Y555003D01*
X504302Y553052D01*
X504690Y551101D01*
X505795Y549447D01*
X507449Y548342D01*
X507856Y548261D01*
X508518Y547091D01*
X508152Y545250D01*
X508540Y543299D01*
X509645Y541645D01*
X509916Y541464D01*
Y540000D01*
X499750D01*
Y520000D01*
X516750D01*
Y534081D01*
X518020Y534206D01*
X518261Y532994D01*
X518750Y532262D01*
Y520000D01*
X535750D01*
Y523662D01*
X552461D01*
Y521500D01*
X552616Y520720D01*
X553058Y520058D01*
X553720Y519616D01*
X554500Y519461D01*
X570500D01*
X571280Y519616D01*
X571942Y520058D01*
X572178Y520411D01*
X583412D01*
Y515000D01*
X579500D01*
Y495000D01*
X596500D01*
Y515000D01*
X592588D01*
Y524499D01*
X592543Y524726D01*
X592597Y525000D01*
X592209Y526951D01*
X592087Y527133D01*
Y533099D01*
X600744Y541756D01*
X601191Y542424D01*
X602461Y542039D01*
Y521500D01*
X602616Y520720D01*
X603058Y520058D01*
X603720Y519616D01*
X603813Y519598D01*
X604231Y518219D01*
X603756Y517744D01*
X602761Y516256D01*
X602511Y515000D01*
X598500D01*
Y495000D01*
X615500D01*
Y500412D01*
X620367D01*
X620549Y500290D01*
X622500Y499902D01*
X624451Y500290D01*
X626105Y501395D01*
X627210Y503049D01*
X627598Y505000D01*
X627210Y506951D01*
X626105Y508605D01*
X624451Y509710D01*
X622500Y510098D01*
X620549Y509710D01*
X620367Y509588D01*
X615500D01*
Y515000D01*
X615500Y515000D01*
X615500D01*
X615099Y516110D01*
X615744Y516756D01*
X616739Y518244D01*
X616981Y519461D01*
X620500D01*
X621280Y519616D01*
X621942Y520058D01*
X622384Y520720D01*
X622539Y521500D01*
Y538639D01*
X623809Y539024D01*
X623895Y538895D01*
X625549Y537790D01*
X627500Y537402D01*
X629451Y537790D01*
X631105Y538895D01*
X632210Y540549D01*
X632598Y542500D01*
X632210Y544451D01*
X632088Y544633D01*
Y549050D01*
X632200D01*
Y571950D01*
X631609D01*
X630744Y573244D01*
X630474Y573515D01*
X629660Y574380D01*
X629660D01*
X629660Y574380D01*
Y580412D01*
X632867D01*
X633049Y580290D01*
X635000Y579902D01*
X636951Y580290D01*
X638605Y581395D01*
X639710Y583049D01*
X640098Y585000D01*
X639710Y586951D01*
X638605Y588605D01*
X636951Y589710D01*
X635000Y590098D01*
X633049Y589710D01*
X632867Y589588D01*
X629660D01*
Y593620D01*
X626588D01*
Y596410D01*
X630500D01*
Y602912D01*
X632867D01*
X633049Y602790D01*
X635000Y602402D01*
X636951Y602790D01*
X638605Y603895D01*
X639710Y605549D01*
X640098Y607500D01*
X639710Y609451D01*
X638605Y611105D01*
X636951Y612210D01*
X635000Y612598D01*
X633049Y612210D01*
X632867Y612088D01*
X630500D01*
Y614719D01*
X631395Y615317D01*
X647343Y631264D01*
X648061Y632340D01*
X648314Y633608D01*
Y808892D01*
X648061Y810160D01*
X647823Y810517D01*
X647343Y811235D01*
X629215Y829363D01*
X628666Y829730D01*
X629052Y831000D01*
X667500D01*
D02*
G37*
G36*
X514355Y607406D02*
X515844Y606411D01*
X516250Y606330D01*
Y605650D01*
X534142D01*
X534250Y605650D01*
X535412Y605390D01*
Y600514D01*
X534500Y599650D01*
X526288D01*
X526156Y599739D01*
X524400Y600088D01*
X508749D01*
X506994Y599739D01*
X505505Y598744D01*
X504836Y598075D01*
X503850Y598885D01*
X503960Y599049D01*
X504348Y601000D01*
X503960Y602951D01*
X503003Y604382D01*
X503399Y605652D01*
X511749D01*
Y608064D01*
X513697D01*
X514355Y607406D01*
D02*
G37*
G36*
X453595Y515807D02*
X453597Y515807D01*
X453600Y515807D01*
X453862Y515859D01*
X456759Y515574D01*
X459798Y514652D01*
X462598Y513156D01*
X465123Y511083D01*
X472424Y503659D01*
X472431Y503654D01*
X472436Y503647D01*
X472659Y503498D01*
X472914Y503187D01*
X472371Y502039D01*
X452201D01*
X452004Y502000D01*
X451803D01*
X451635Y501967D01*
X451635D01*
X451450Y501890D01*
X451420Y501884D01*
X451395Y501867D01*
X451257Y501810D01*
X450900Y501662D01*
X450900Y501662D01*
X450337Y501100D01*
X450190Y500743D01*
X450132Y500605D01*
X450116Y500580D01*
X450110Y500550D01*
X450033Y500364D01*
Y500364D01*
X450000Y500197D01*
Y499996D01*
X449961Y499799D01*
Y495651D01*
X449232Y494561D01*
X448922Y493000D01*
Y480834D01*
X441500D01*
X440224Y480580D01*
X439142Y479857D01*
X436642Y477357D01*
X435919Y476276D01*
X435666Y475000D01*
Y456000D01*
X434000D01*
Y445000D01*
X437632D01*
X438311Y443730D01*
X437790Y442951D01*
X437402Y441000D01*
X437790Y439049D01*
X438311Y438270D01*
X437632Y437000D01*
X434000D01*
Y426000D01*
X439170D01*
X439675Y424835D01*
X438536Y423620D01*
X433910D01*
Y418686D01*
X433466Y418212D01*
X433466Y418212D01*
X431315Y415917D01*
X431315Y415917D01*
X429578Y415911D01*
X427590Y418027D01*
Y423620D01*
X422336D01*
X421196Y424834D01*
X421700Y426000D01*
X430000D01*
Y437000D01*
X426368D01*
X425689Y438270D01*
X426210Y439049D01*
X426598Y441000D01*
X426210Y442951D01*
X425689Y443730D01*
X426368Y445000D01*
X430000D01*
Y456000D01*
X428834D01*
Y472000D01*
X428580Y473276D01*
X427858Y474357D01*
X422357Y479857D01*
X421276Y480580D01*
X420000Y480834D01*
X415000D01*
Y497000D01*
X414039D01*
Y499799D01*
X413994Y500025D01*
X413987Y500254D01*
X413947Y500345D01*
X413934Y500444D01*
X413898Y500508D01*
X413884Y500579D01*
X413756Y500771D01*
X413662Y500980D01*
X413590Y501049D01*
X413540Y501135D01*
X413482Y501180D01*
X413442Y501241D01*
X413251Y501369D01*
X413083Y501526D01*
X412990Y501562D01*
X412912Y501623D01*
X412912Y501623D01*
X412841Y501642D01*
X412780Y501683D01*
X412555Y501728D01*
X412340Y501810D01*
X411153Y502011D01*
X410981Y502006D01*
X410813Y502039D01*
X396729Y502039D01*
X396186Y503187D01*
X396667Y503773D01*
X404091Y511074D01*
X404096Y511081D01*
X404103Y511086D01*
X404252Y511309D01*
X406502Y513156D01*
X409302Y514652D01*
X412340Y515574D01*
X415597Y515895D01*
X453595Y515807D01*
D02*
G37*
G36*
X591356Y780146D02*
X590761Y779256D01*
X590412Y777500D01*
Y750000D01*
X590761Y748244D01*
X591756Y746756D01*
X593516Y744995D01*
X592797Y743918D01*
X591827Y744320D01*
X590000Y744560D01*
X555000D01*
X553173Y744320D01*
X551470Y743615D01*
X550008Y742493D01*
X548885Y741030D01*
X548288Y739588D01*
X498750D01*
X496994Y739239D01*
X495506Y738244D01*
X483006Y725744D01*
X482011Y724256D01*
X481662Y722500D01*
Y717000D01*
X477750D01*
Y704989D01*
X474770Y702009D01*
X473597Y702495D01*
Y703210D01*
X453597D01*
Y698798D01*
X449020D01*
Y703210D01*
X429020D01*
Y698798D01*
X424443D01*
Y703210D01*
X404443D01*
Y698798D01*
X399867D01*
Y703210D01*
X380246D01*
X379680Y704210D01*
X380246Y705210D01*
X380725D01*
X399867D01*
Y709122D01*
X404443D01*
Y705210D01*
X424443D01*
Y709122D01*
X429020D01*
Y705210D01*
X449020D01*
Y709122D01*
X453597D01*
Y705210D01*
X473597D01*
Y722210D01*
X468185D01*
Y728710D01*
X473597D01*
Y732622D01*
X481960D01*
X483716Y732971D01*
X485204Y733966D01*
X489744Y738506D01*
X490739Y739994D01*
X491088Y741750D01*
Y744250D01*
X495000D01*
Y764250D01*
X494898D01*
X494412Y765423D01*
X499400Y770412D01*
X552500D01*
X554256Y770761D01*
X555744Y771756D01*
X559729Y775741D01*
X560724Y777229D01*
X561073Y778985D01*
Y780440D01*
X587500D01*
X589327Y780680D01*
X590514Y781172D01*
X591356Y780146D01*
D02*
G37*
G36*
X374000Y442507D02*
Y430009D01*
X373395Y429605D01*
X372290Y427951D01*
X371901Y426000D01*
X372290Y424049D01*
X373395Y422395D01*
X373665Y422214D01*
Y403640D01*
X370016D01*
Y391512D01*
X373254D01*
Y384488D01*
X370016D01*
Y372360D01*
X373102D01*
X374000Y371462D01*
Y369000D01*
X255000Y369000D01*
X255000Y438063D01*
X255898Y438961D01*
X361142D01*
X361142Y438961D01*
X361923Y439116D01*
X362584Y439558D01*
X362584Y439558D01*
X362836Y439810D01*
X364580Y439981D01*
X364772Y440040D01*
X364972Y440060D01*
X369723Y441501D01*
X369900Y441595D01*
X370092Y441654D01*
X372910Y443160D01*
X374000Y442507D01*
D02*
G37*
G36*
X224080Y831000D02*
Y808270D01*
X238685D01*
X253290D01*
Y830102D01*
X254188Y831000D01*
X311710D01*
Y808270D01*
X326315D01*
X340920D01*
Y830102D01*
X341818Y831000D01*
X359396D01*
Y822500D01*
X359809Y819367D01*
X361018Y816448D01*
X362941Y813941D01*
X363021Y812736D01*
X357142Y806858D01*
X356420Y805776D01*
X356166Y804500D01*
Y803150D01*
X351400D01*
Y790050D01*
X365461D01*
X365947Y788877D01*
X359819Y782749D01*
X359500Y782813D01*
X357549Y782425D01*
X355895Y781320D01*
X354790Y779666D01*
X354402Y777715D01*
X354790Y775764D01*
X355895Y774110D01*
X356166Y773929D01*
Y770450D01*
X351400D01*
Y766849D01*
X350130Y766463D01*
X350026Y766619D01*
X340288Y776357D01*
X339206Y777080D01*
X337930Y777334D01*
X288881D01*
X285834Y780381D01*
Y783964D01*
X286105Y784145D01*
X287210Y785799D01*
X287598Y787750D01*
X287210Y789701D01*
X286105Y791355D01*
X284451Y792460D01*
X282500Y792848D01*
X280549Y792460D01*
X278895Y791355D01*
X277790Y789701D01*
X277402Y787750D01*
X277790Y785799D01*
X278895Y784145D01*
X279166Y783964D01*
Y779000D01*
X279420Y777724D01*
X280142Y776643D01*
X285142Y771642D01*
X286224Y770920D01*
X287500Y770666D01*
X336549D01*
X339151Y768064D01*
X338525Y766894D01*
X337500Y767098D01*
X335549Y766710D01*
X333895Y765605D01*
X333821Y765494D01*
X332120D01*
Y769160D01*
X312880D01*
Y762836D01*
X308752D01*
Y764500D01*
X294753D01*
Y754604D01*
X294753Y754500D01*
X294500Y753334D01*
X291786D01*
X291605Y753605D01*
X289951Y754710D01*
X288000Y755098D01*
X286049Y754710D01*
X284417Y753619D01*
X284266Y753678D01*
X283288Y754234D01*
Y758230D01*
X275748D01*
X268208D01*
Y754299D01*
X267112Y753540D01*
X266120Y753846D01*
Y767160D01*
X259834D01*
Y769214D01*
X260105Y769395D01*
X261210Y771049D01*
X261598Y773000D01*
X261210Y774951D01*
X260105Y776605D01*
X258451Y777710D01*
X256500Y778098D01*
X254549Y777710D01*
X252895Y776605D01*
X251790Y774951D01*
X251402Y773000D01*
X251790Y771049D01*
X252895Y769395D01*
X253166Y769214D01*
Y767160D01*
X246880D01*
Y753160D01*
X253166D01*
Y753000D01*
X253420Y751724D01*
X254142Y750642D01*
X256675Y748110D01*
X256149Y746840D01*
X246880D01*
Y744584D01*
X242750D01*
Y746750D01*
X225750D01*
Y735750D01*
X242750D01*
Y737916D01*
X246880D01*
Y732840D01*
X251916D01*
Y728290D01*
X251049D01*
Y723593D01*
X249779Y723207D01*
X249654Y723395D01*
X248000Y724500D01*
X246049Y724888D01*
X244319Y724544D01*
X243049Y725210D01*
Y728290D01*
X232049D01*
Y711290D01*
X243049D01*
Y714370D01*
X244319Y715036D01*
X246049Y714692D01*
X248000Y715080D01*
X249654Y716185D01*
X249779Y716372D01*
X251049Y715987D01*
Y711290D01*
X262049D01*
Y728290D01*
X258584D01*
Y732840D01*
X266120D01*
Y737166D01*
X268748D01*
Y735500D01*
X282748D01*
Y745000D01*
Y746666D01*
X284214D01*
X284395Y746395D01*
X286049Y745290D01*
X288000Y744902D01*
X289951Y745290D01*
X291605Y746395D01*
X291786Y746666D01*
X293202D01*
X294212Y746040D01*
X294212Y745396D01*
Y741770D01*
X301752D01*
X309293D01*
Y745396D01*
X309293Y746040D01*
X310303Y746666D01*
X310303Y746666D01*
X312880D01*
Y734840D01*
X332120D01*
Y748840D01*
X325203D01*
X324857Y749358D01*
X321857Y752358D01*
X320776Y753080D01*
X319500Y753334D01*
X309005D01*
Y753334D01*
X308752Y754500D01*
X308752Y754604D01*
Y756168D01*
X312880D01*
Y755160D01*
X332120D01*
Y758826D01*
X333607D01*
X333895Y758395D01*
X335549Y757290D01*
X337500Y756902D01*
X339451Y757290D01*
X341105Y758395D01*
X342210Y760049D01*
X342598Y762000D01*
X342464Y762675D01*
X343624Y763296D01*
X344334Y762739D01*
Y731500D01*
X332500D01*
Y729334D01*
X329500D01*
Y731500D01*
X312500D01*
Y729334D01*
X308590D01*
Y730350D01*
X294590D01*
Y711110D01*
X308590D01*
Y722666D01*
X312500D01*
Y720500D01*
X329500D01*
Y722666D01*
X332500D01*
Y720500D01*
X349500D01*
Y723030D01*
X350260Y723635D01*
X351500Y723174D01*
Y718098D01*
X356666D01*
Y714384D01*
X356395Y714203D01*
X355290Y712549D01*
X354902Y710598D01*
X355290Y708647D01*
X356395Y706993D01*
X358049Y705888D01*
X360000Y705500D01*
X361951Y705888D01*
X363605Y706993D01*
X364710Y708647D01*
X365098Y710598D01*
X364710Y712549D01*
X363605Y714203D01*
X363334Y714384D01*
Y718098D01*
X368500D01*
Y729098D01*
X352272D01*
X351500Y729098D01*
X351002Y730162D01*
Y736034D01*
X351500Y737098D01*
X352272Y737098D01*
X368500D01*
Y748098D01*
X362834D01*
Y757350D01*
X367600D01*
Y770450D01*
X362834D01*
Y773929D01*
X363105Y774110D01*
X364210Y775764D01*
X364598Y777715D01*
X364534Y778034D01*
X377993Y791492D01*
X379166Y791006D01*
Y785490D01*
X377581Y785281D01*
X375513Y784425D01*
X373738Y783062D01*
X372375Y781287D01*
X371519Y779219D01*
X371227Y777000D01*
X371519Y774781D01*
X372375Y772713D01*
X373738Y770938D01*
X375513Y769575D01*
X377581Y768719D01*
X379800Y768427D01*
X382019Y768719D01*
X384087Y769575D01*
X385862Y770938D01*
X387225Y772713D01*
X388081Y774781D01*
X388373Y777000D01*
X388081Y779219D01*
X387225Y781287D01*
X385862Y783062D01*
X385834Y783084D01*
Y792619D01*
X393881Y800666D01*
X501500D01*
X502776Y800920D01*
X503858Y801643D01*
X506327Y804112D01*
X507500Y804000D01*
Y804000D01*
X507500Y804000D01*
X518500D01*
Y821000D01*
X507500D01*
Y813334D01*
X506224Y813080D01*
X505142Y812357D01*
X500119Y807334D01*
X448845D01*
X448319Y808604D01*
X454857Y815142D01*
X455580Y816224D01*
X455834Y817500D01*
Y818598D01*
X457291Y819202D01*
X459275Y820724D01*
X460798Y822709D01*
X461755Y825020D01*
X461860Y825810D01*
X463140D01*
X463245Y825020D01*
X464202Y822709D01*
X465724Y820724D01*
X467709Y819202D01*
X470020Y818244D01*
X472500Y817918D01*
X474980Y818244D01*
X477291Y819202D01*
X479275Y820724D01*
X480192Y821919D01*
X481520Y821563D01*
X481809Y819367D01*
X483018Y816448D01*
X484941Y813941D01*
X487448Y812018D01*
X490367Y810809D01*
X493500Y810396D01*
X496633Y810809D01*
X499552Y812018D01*
X502058Y813941D01*
X503982Y816448D01*
X505191Y819367D01*
X505603Y822500D01*
Y830102D01*
X506502Y831000D01*
X563448Y831000D01*
X563834Y829730D01*
X563285Y829363D01*
X549735Y815814D01*
X537500D01*
Y821000D01*
X526500D01*
Y804000D01*
X537500D01*
Y809186D01*
X547812D01*
X548298Y808013D01*
X538673Y798388D01*
X537500Y798874D01*
Y801000D01*
X526500D01*
Y784000D01*
X537500D01*
Y789166D01*
X538776Y789420D01*
X539857Y790142D01*
X549507Y799792D01*
X550277Y799487D01*
X550656Y799145D01*
X550439Y797500D01*
Y787500D01*
X550680Y785673D01*
X551385Y783970D01*
X551897Y783304D01*
Y780885D01*
X550600Y779588D01*
X497500D01*
X495744Y779239D01*
X494256Y778244D01*
X483256Y767244D01*
X482261Y765756D01*
X481962Y764250D01*
X478000D01*
Y744250D01*
X480715D01*
X481241Y742980D01*
X480060Y741798D01*
X473597D01*
Y745710D01*
X453597D01*
Y741798D01*
X449020D01*
Y745710D01*
X429020D01*
Y741798D01*
X424443D01*
Y745710D01*
X404443D01*
Y741798D01*
X399867D01*
Y745710D01*
X380725D01*
X380246Y745710D01*
X379680Y746710D01*
X380246Y747710D01*
X399867D01*
Y751622D01*
X404443D01*
Y747710D01*
X424443D01*
Y751622D01*
X429020D01*
Y747710D01*
X449020D01*
Y751622D01*
X453597D01*
Y747710D01*
X473597D01*
Y764710D01*
X453597D01*
Y760798D01*
X449020D01*
Y764710D01*
X429020D01*
Y760798D01*
X424443D01*
Y764710D01*
X404443D01*
Y760798D01*
X399867D01*
Y764710D01*
X379867D01*
Y760798D01*
X378111Y760449D01*
X376622Y759454D01*
X371622Y754454D01*
X370628Y752966D01*
X370278Y751210D01*
Y696710D01*
X370628Y694954D01*
X371622Y693466D01*
X373622Y691465D01*
X375111Y690471D01*
X376867Y690122D01*
X379867D01*
Y688121D01*
X379120Y687160D01*
X379119D01*
X378597Y687160D01*
X359880D01*
Y683438D01*
X358884Y683240D01*
X357802Y682517D01*
X356319Y681034D01*
X356000Y681098D01*
X354049Y680710D01*
X352395Y679605D01*
X351880Y678834D01*
X349500D01*
Y681000D01*
X339185D01*
X338800Y682270D01*
X339357Y682642D01*
X343357Y686643D01*
X344080Y687724D01*
X344334Y689000D01*
Y689000D01*
X349500D01*
Y700000D01*
X344334D01*
Y701500D01*
X349500D01*
Y712500D01*
X332500D01*
Y710334D01*
X329500D01*
Y712500D01*
X312500D01*
Y701500D01*
X329500D01*
Y703666D01*
X332500D01*
Y701500D01*
X337666D01*
Y700000D01*
X332500D01*
Y689000D01*
X331506Y688334D01*
X330494D01*
X329500Y689000D01*
X329500Y689604D01*
Y700000D01*
X312500D01*
Y697834D01*
X306000D01*
Y706500D01*
X295000D01*
Y689500D01*
X306000D01*
Y691166D01*
X312500D01*
Y689000D01*
X323814D01*
X324200Y687730D01*
X323642Y687357D01*
X318642Y682357D01*
X317920Y681276D01*
X317865Y681000D01*
X312500D01*
Y679334D01*
X308160D01*
Y685620D01*
X294160D01*
Y666380D01*
X296165D01*
Y662002D01*
X275500D01*
Y648002D01*
X277166D01*
Y639917D01*
X277420Y638642D01*
X278143Y637560D01*
X278531Y637171D01*
X278046Y635998D01*
X275500D01*
Y632332D01*
X269000D01*
Y639500D01*
X266834D01*
Y644833D01*
X269000D01*
Y661833D01*
X266834D01*
Y667167D01*
X269000D01*
Y672666D01*
X273840D01*
Y666380D01*
X287840D01*
Y685620D01*
X273840D01*
Y679334D01*
X269000D01*
Y684167D01*
X258000D01*
X257334Y685161D01*
Y688506D01*
X258000Y689500D01*
X258604Y689500D01*
X269000D01*
Y694666D01*
X276000D01*
Y689500D01*
X287000D01*
Y706500D01*
X276000D01*
Y701334D01*
X269000D01*
Y706500D01*
X258000D01*
Y697185D01*
X256730Y696800D01*
X256357Y697357D01*
X253357Y700358D01*
X252276Y701080D01*
X251000Y701334D01*
X250000D01*
Y706500D01*
X239000D01*
Y689500D01*
X250000D01*
X250666Y688506D01*
Y685161D01*
X250000Y684167D01*
X249396Y684167D01*
X239000D01*
Y667167D01*
X241166D01*
Y661833D01*
X239000D01*
Y644833D01*
X241166D01*
Y639500D01*
X239000D01*
Y622500D01*
X240078D01*
Y607988D01*
X236840D01*
Y597617D01*
X235570Y596962D01*
X234451Y597710D01*
X232500Y598098D01*
X230549Y597710D01*
X228895Y596605D01*
X227790Y594951D01*
X227402Y593000D01*
X227790Y591049D01*
X228895Y589395D01*
X230549Y588290D01*
X232500Y587902D01*
X234451Y588290D01*
X236105Y589395D01*
X236286Y589666D01*
X258016D01*
Y586360D01*
X271160D01*
Y598488D01*
X258016D01*
Y596334D01*
X249984D01*
Y607988D01*
X246746D01*
Y622500D01*
X250000D01*
Y639500D01*
X247834D01*
Y644833D01*
X250000D01*
Y661833D01*
X247834D01*
Y667167D01*
X250000D01*
Y676815D01*
X251270Y677200D01*
X251642Y676643D01*
X254976Y673309D01*
X256057Y672586D01*
X257333Y672333D01*
X258000D01*
Y667167D01*
X260166D01*
Y661833D01*
X258000D01*
Y644833D01*
X260166D01*
Y639500D01*
X258000D01*
Y622500D01*
X269000D01*
Y625664D01*
X275500D01*
Y621998D01*
X285500D01*
Y634396D01*
X294499D01*
Y621998D01*
X304499D01*
Y625664D01*
X307380D01*
X308656Y625918D01*
X308804Y626017D01*
X309382Y625902D01*
X311333Y626290D01*
X312987Y627395D01*
X313546Y628232D01*
X314092Y629049D01*
X314092Y629049D01*
X314175Y629380D01*
X315357Y629840D01*
X315481D01*
X333620D01*
Y643840D01*
X334755Y644166D01*
X337506D01*
X338500Y643500D01*
X338500Y642896D01*
Y632500D01*
X340625D01*
X341111Y631327D01*
X338119Y628334D01*
X327000D01*
X325724Y628080D01*
X324642Y627357D01*
X322142Y624857D01*
X321419Y623776D01*
X321166Y622500D01*
X319000D01*
Y605500D01*
X321256D01*
Y602620D01*
X317590D01*
Y583380D01*
X317590Y583380D01*
X317590D01*
X316783Y582498D01*
X314390Y580105D01*
X313985Y579500D01*
X309748D01*
X309748Y579500D01*
X308676Y579979D01*
X307776Y580580D01*
X307500Y580635D01*
Y583000D01*
X290500D01*
Y572000D01*
X307355D01*
X308224Y571419D01*
X309500Y571166D01*
X309748D01*
Y569500D01*
Y565840D01*
X308510Y564602D01*
X307500Y564000D01*
Y564000D01*
X307500Y564000D01*
X290500D01*
Y553000D01*
X307500D01*
Y554814D01*
X308697Y555324D01*
X309748Y554700D01*
Y553216D01*
X303282Y546750D01*
X291100D01*
Y544584D01*
X288300D01*
Y546750D01*
X271300D01*
Y544584D01*
X268500D01*
Y546750D01*
X251500D01*
Y535750D01*
X257996D01*
Y527750D01*
X251500D01*
Y516750D01*
X251500Y516750D01*
X251500D01*
X251471Y515538D01*
X250779Y514842D01*
X250750Y514848D01*
X248799Y514460D01*
X247145Y513355D01*
X246964Y513084D01*
X245370D01*
Y519910D01*
X226130D01*
Y505910D01*
X245370D01*
Y506416D01*
X246964D01*
X247145Y506145D01*
X248799Y505040D01*
X250750Y504652D01*
X252701Y505040D01*
X254355Y506145D01*
X255460Y507799D01*
X255848Y509750D01*
X256797Y510666D01*
X258294D01*
X258959Y509396D01*
X258731Y508250D01*
Y503584D01*
X255250D01*
X253974Y503330D01*
X252892Y502607D01*
X251069Y500785D01*
X250750Y500848D01*
X248799Y500460D01*
X247145Y499355D01*
X246964Y499084D01*
X245370D01*
Y499590D01*
X226130D01*
Y485590D01*
X245370D01*
Y492416D01*
X246964D01*
X247145Y492145D01*
X248799Y491040D01*
X250750Y490652D01*
X252701Y491040D01*
X254355Y492145D01*
X255460Y493799D01*
X255848Y495750D01*
X255784Y496070D01*
X256631Y496916D01*
X258731D01*
Y492250D01*
X259003Y490884D01*
X259777Y489727D01*
X260934Y488953D01*
X262300Y488681D01*
X265300D01*
X266666Y488953D01*
X267823Y489727D01*
X268597Y490884D01*
X268869Y492250D01*
Y508250D01*
X268641Y509396D01*
X269306Y510666D01*
X270994D01*
X271659Y509396D01*
X271431Y508250D01*
Y492250D01*
X271703Y490884D01*
X272477Y489727D01*
X273634Y488953D01*
X275000Y488681D01*
X278000D01*
X279366Y488953D01*
X280523Y489727D01*
X281297Y490884D01*
X281569Y492250D01*
Y508250D01*
X281341Y509396D01*
X282006Y510666D01*
X283577D01*
X283926Y510222D01*
X284359Y509396D01*
X284131Y508250D01*
Y492250D01*
X284403Y490884D01*
X285177Y489727D01*
X286334Y488953D01*
X287700Y488681D01*
X290700D01*
X292066Y488953D01*
X293223Y489727D01*
X293997Y490884D01*
X294269Y492250D01*
Y508250D01*
X293997Y509616D01*
X293223Y510773D01*
X292492Y511262D01*
X292280Y512326D01*
X291558Y513408D01*
X289138Y515827D01*
X288300Y516750D01*
X288300D01*
Y518916D01*
X291100D01*
Y516750D01*
X298566D01*
Y511234D01*
X297877Y510773D01*
X297103Y509616D01*
X296831Y508250D01*
Y492250D01*
X297103Y490884D01*
X297877Y489727D01*
X299034Y488953D01*
X300400Y488681D01*
X303400D01*
X304766Y488953D01*
X305923Y489727D01*
X306697Y490884D01*
X306969Y492250D01*
Y508250D01*
X306697Y509616D01*
X305923Y510773D01*
X305234Y511234D01*
Y516750D01*
X308100D01*
Y525711D01*
X310900D01*
Y516750D01*
X316235D01*
X316319Y516324D01*
X317042Y515243D01*
X322570Y509715D01*
X322503Y509616D01*
X322231Y508250D01*
Y492250D01*
X322503Y490884D01*
X323277Y489727D01*
X324434Y488953D01*
X325800Y488681D01*
X328800D01*
X330166Y488953D01*
X331323Y489727D01*
X332097Y490884D01*
X332369Y492250D01*
Y508250D01*
X332097Y509616D01*
X331323Y510773D01*
X330166Y511547D01*
X329973Y511585D01*
X329658Y512057D01*
X326138Y515577D01*
X326624Y516750D01*
X327900D01*
Y518916D01*
X330700D01*
Y516750D01*
X347700D01*
Y518916D01*
X350500D01*
Y516750D01*
X355532D01*
X356305Y515504D01*
X356039Y515334D01*
X355383D01*
X354107Y515080D01*
X353025Y514357D01*
X350342Y511675D01*
X350322Y511644D01*
X349834Y511547D01*
X348677Y510773D01*
X347903Y509616D01*
X347631Y508250D01*
Y492250D01*
X347903Y490884D01*
X348677Y489727D01*
X349834Y488953D01*
X351200Y488681D01*
X354200D01*
X355566Y488953D01*
X356723Y489727D01*
X357497Y490884D01*
X357769Y492250D01*
Y506799D01*
X358889Y507397D01*
X359049Y507290D01*
X361000Y506902D01*
X362951Y507290D01*
X364421Y508273D01*
X365118Y507961D01*
X365536Y507607D01*
X364346Y504101D01*
X364329Y503968D01*
X364277Y503843D01*
X363173Y498294D01*
Y498159D01*
X363139Y498030D01*
X362769Y492383D01*
X362777Y492316D01*
X362764Y492250D01*
Y492250D01*
X362766Y492243D01*
X362764Y492235D01*
X362835Y482491D01*
X361941Y481589D01*
X250000D01*
X249219Y481434D01*
X248558Y480992D01*
X248116Y480330D01*
X247961Y479550D01*
Y468418D01*
X247469Y468354D01*
X247217Y468268D01*
X246955Y468216D01*
X243913Y466956D01*
X243692Y466808D01*
X243452Y466690D01*
X240840Y464686D01*
X240665Y464485D01*
X240464Y464309D01*
X238460Y461697D01*
X238342Y461458D01*
X238194Y461236D01*
X236934Y458195D01*
X236882Y457933D01*
X236796Y457680D01*
X236366Y454416D01*
X236384Y454150D01*
X236366Y453884D01*
X236796Y450620D01*
X236882Y450367D01*
X236934Y450105D01*
X238194Y447064D01*
X238342Y446842D01*
X238460Y446603D01*
X239583Y445139D01*
X239021Y444000D01*
X197500D01*
X197500Y830102D01*
X198398Y831000D01*
X224080D01*
D02*
G37*
G36*
X407987Y500000D02*
X410813D01*
X410891Y499987D01*
X412000Y499598D01*
X412000Y499598D01*
Y497000D01*
Y480834D01*
X405000D01*
X403724Y480580D01*
X402642Y479857D01*
X401920Y478776D01*
X401666Y477500D01*
X401920Y476224D01*
X402642Y475143D01*
X403724Y474420D01*
X405000Y474166D01*
X412000D01*
Y431645D01*
X413000Y430580D01*
Y426000D01*
X416946D01*
X417376Y425430D01*
X416743Y424160D01*
X413050D01*
Y415270D01*
X420590D01*
Y414000D01*
X421860D01*
Y403840D01*
X428130D01*
Y411321D01*
X429400Y411994D01*
X429500Y411926D01*
Y370000D01*
X384898Y370000D01*
X384000Y370898D01*
X384000Y453950D01*
X385896Y456789D01*
X385948Y456913D01*
X386030Y457020D01*
X388532Y462094D01*
X388567Y462224D01*
X388634Y462341D01*
X390453Y467699D01*
X390471Y467832D01*
X390522Y467956D01*
X391626Y473506D01*
Y473641D01*
X391661Y473770D01*
X392031Y479417D01*
X392022Y479484D01*
X392035Y479550D01*
Y479550D01*
X392034Y479557D01*
X392035Y479565D01*
X391943Y492265D01*
X391891Y492516D01*
X392176Y495410D01*
X393098Y498448D01*
X393927Y500000D01*
X407987Y500000D01*
D02*
G37*
G36*
X480092Y434395D02*
X481544Y431679D01*
X481671Y431524D01*
X481766Y431347D01*
X484916Y427509D01*
X484994Y427445D01*
X485050Y427360D01*
X485209Y427254D01*
X489422Y423559D01*
X489539Y423492D01*
X489634Y423397D01*
X494338Y420253D01*
X494463Y420202D01*
X494570Y420120D01*
X499644Y417617D01*
X499774Y417583D01*
X499891Y417515D01*
X505249Y415696D01*
X505382Y415679D01*
X505506Y415628D01*
X511056Y414524D01*
X511190D01*
X511320Y414489D01*
X511599Y414470D01*
X511859Y413181D01*
X510139Y411861D01*
X508597Y409851D01*
X507627Y407511D01*
X507430Y406013D01*
X504000D01*
Y408000D01*
X484000D01*
Y391000D01*
X504000D01*
Y399345D01*
X509213D01*
X510139Y398139D01*
X511166Y397351D01*
Y392000D01*
X507000D01*
Y372000D01*
X524000D01*
Y392000D01*
X517834D01*
Y395407D01*
X519511Y395628D01*
X521851Y396597D01*
X523861Y398139D01*
X525403Y400149D01*
X526305Y402326D01*
X532214D01*
X532395Y402055D01*
X534049Y400950D01*
X536000Y400562D01*
X537951Y400950D01*
X539604Y402055D01*
X539785Y402326D01*
X546380D01*
Y399160D01*
X565620D01*
Y411866D01*
X566890Y412118D01*
X567768Y409998D01*
X569691Y407491D01*
X569946Y407296D01*
X569929Y407164D01*
X570212Y405010D01*
X571044Y403003D01*
X572243Y401440D01*
X572208Y400715D01*
X571997Y399963D01*
X570686Y399420D01*
X568589Y397811D01*
X566980Y395713D01*
X566013Y393380D01*
X557270D01*
Y385840D01*
Y378300D01*
X566160D01*
Y384569D01*
X567430Y385000D01*
X568589Y383489D01*
X570686Y381880D01*
X573129Y380868D01*
X575750Y380523D01*
X576980D01*
Y390650D01*
X578250D01*
Y391920D01*
X590709D01*
X590531Y393271D01*
X589520Y395713D01*
X587910Y397811D01*
X585813Y399420D01*
X584503Y399963D01*
X584292Y400715D01*
X584256Y401440D01*
X585456Y403003D01*
X586287Y405010D01*
X586571Y407164D01*
X586554Y407296D01*
X586808Y407491D01*
X588732Y409998D01*
X589941Y412917D01*
X590144Y414463D01*
X590780Y414546D01*
X591033Y414632D01*
X591294Y414684D01*
X592944Y415367D01*
X594000Y414662D01*
X594000Y360000D01*
X478898Y360000D01*
X478000Y360898D01*
Y370898D01*
X478000Y370898D01*
X478000Y433918D01*
X478713Y434608D01*
X480092Y434395D01*
D02*
G37*
G36*
X615250Y554750D02*
X620500Y549500D01*
Y521500D01*
X604500D01*
Y549500D01*
X609750Y554750D01*
X609750Y570000D01*
X615250D01*
X615250Y554750D01*
D02*
G37*
G36*
X565250D02*
X570500Y549500D01*
Y521500D01*
X554500D01*
Y549500D01*
X559750Y554750D01*
X559750Y570000D01*
X565250D01*
X565250Y554750D01*
D02*
G37*
G36*
X476002Y498448D02*
X476924Y495410D01*
X477127Y493345D01*
X477127Y447310D01*
X477123Y447302D01*
X477093Y447004D01*
X477035Y446711D01*
X477055Y446611D01*
X477045Y446511D01*
X477127Y445676D01*
X477127Y436601D01*
X477058Y436565D01*
X476816Y436371D01*
X476558Y436198D01*
X476508Y436124D01*
X476438Y436068D01*
X476288Y435795D01*
X476116Y435537D01*
X476098Y435449D01*
X476055Y435370D01*
X476021Y435061D01*
X475961Y434757D01*
X475961Y370898D01*
X475062Y370000D01*
X432898Y370000D01*
X432000Y370898D01*
X432000Y412447D01*
X432100Y412516D01*
X433370Y411843D01*
Y403840D01*
X439640D01*
Y414000D01*
X440910D01*
Y415270D01*
X448450D01*
Y424160D01*
X444124D01*
X443490Y425430D01*
X443920Y426000D01*
X451000D01*
Y433933D01*
X452000Y435000D01*
Y499799D01*
Y499799D01*
X452016Y499824D01*
X452063Y499937D01*
X452176Y499983D01*
X452201Y500000D01*
X452401D01*
X475172D01*
X476002Y498448D01*
D02*
G37*
%LPC*%
G36*
X303400Y418369D02*
X303170D01*
Y407520D01*
X307519D01*
Y414250D01*
X307206Y415826D01*
X306313Y417163D01*
X304976Y418056D01*
X303400Y418369D01*
D02*
G37*
G36*
X448450Y412730D02*
X442180D01*
Y403840D01*
X448450D01*
Y412730D01*
D02*
G37*
G36*
X351430Y418369D02*
X351200D01*
X349624Y418056D01*
X348287Y417163D01*
X347394Y415826D01*
X347081Y414250D01*
Y407520D01*
X351430D01*
Y418369D01*
D02*
G37*
G36*
X300630D02*
X300400D01*
X298824Y418056D01*
X297487Y417163D01*
X296594Y415826D01*
X296281Y414250D01*
Y407520D01*
X300630D01*
Y418369D01*
D02*
G37*
G36*
X341500Y511819D02*
X338500D01*
X337134Y511547D01*
X335977Y510773D01*
X335203Y509616D01*
X334931Y508250D01*
Y492250D01*
X335203Y490884D01*
X335977Y489727D01*
X337134Y488953D01*
X338500Y488681D01*
X341500D01*
X342866Y488953D01*
X344023Y489727D01*
X344797Y490884D01*
X345069Y492250D01*
Y508250D01*
X344797Y509616D01*
X344023Y510773D01*
X342866Y511547D01*
X341500Y511819D01*
D02*
G37*
G36*
X570540Y517010D02*
X557400D01*
Y512052D01*
X557199Y511874D01*
X556130Y511274D01*
X554500Y511598D01*
X552549Y511210D01*
X550895Y510105D01*
X549955Y508698D01*
X549383Y508585D01*
X549116D01*
X548544Y508698D01*
X547604Y510105D01*
X545951Y511210D01*
X544000Y511598D01*
X542049Y511210D01*
X541867Y511088D01*
X540100D01*
Y517010D01*
X526960D01*
Y495990D01*
X528412D01*
Y491500D01*
X523750D01*
Y481500D01*
X542240D01*
Y478650D01*
X548162D01*
Y474133D01*
X548040Y473951D01*
X547652Y472000D01*
X548040Y470049D01*
X549145Y468395D01*
X550799Y467290D01*
X552750Y466902D01*
X554701Y467290D01*
X556354Y468395D01*
X557460Y470049D01*
X557848Y472000D01*
X557460Y473951D01*
X557338Y474133D01*
Y478650D01*
X563260D01*
Y491790D01*
X542240D01*
Y491500D01*
X537588D01*
Y495990D01*
X540100D01*
Y501912D01*
X541867D01*
X542049Y501790D01*
X544000Y501402D01*
X545951Y501790D01*
X547604Y502895D01*
X548544Y504301D01*
X549116Y504415D01*
X549383D01*
X549955Y504301D01*
X550895Y502895D01*
X552549Y501790D01*
X554500Y501402D01*
X556130Y501726D01*
X557199Y501126D01*
X557400Y500948D01*
Y495990D01*
X570540D01*
Y517010D01*
D02*
G37*
G36*
X492749Y556000D02*
X475749D01*
Y545000D01*
X492749D01*
Y547166D01*
X494130D01*
X494645Y546395D01*
X496299Y545290D01*
X498250Y544902D01*
X500201Y545290D01*
X501855Y546395D01*
X502960Y548049D01*
X503348Y550000D01*
X502960Y551951D01*
X501855Y553605D01*
X500201Y554710D01*
X498250Y555098D01*
X496299Y554710D01*
X494988Y553834D01*
X492749D01*
Y556000D01*
D02*
G37*
G36*
X363000Y424098D02*
X361049Y423710D01*
X359395Y422605D01*
X358290Y420951D01*
X357902Y419000D01*
X358120Y417900D01*
X357565Y417494D01*
X356951Y417271D01*
X355776Y418056D01*
X354200Y418369D01*
X353970D01*
Y406250D01*
X352700D01*
Y404980D01*
X347081D01*
Y398250D01*
X347394Y396674D01*
X348287Y395337D01*
X348572Y395147D01*
X348840Y393988D01*
X348840Y393441D01*
Y381860D01*
X361984D01*
Y389781D01*
X365357Y393154D01*
X366080Y394236D01*
X366334Y395512D01*
Y415214D01*
X366604Y415395D01*
X367710Y417049D01*
X368098Y419000D01*
X367710Y420951D01*
X366604Y422605D01*
X364951Y423710D01*
X363000Y424098D01*
D02*
G37*
G36*
X286750Y431848D02*
X284799Y431460D01*
X283145Y430355D01*
X282630Y429584D01*
X273810D01*
Y430060D01*
X266190D01*
Y422440D01*
X272666D01*
Y416900D01*
X272477Y416773D01*
X271703Y415616D01*
X271431Y414250D01*
Y398250D01*
X271703Y396884D01*
X272477Y395727D01*
X273634Y394953D01*
X274757Y394730D01*
X274631Y393460D01*
X271840D01*
Y392042D01*
X270785Y391669D01*
X270570Y391628D01*
X268951Y392710D01*
X267134Y393071D01*
Y395266D01*
X267823Y395727D01*
X268597Y396884D01*
X268869Y398250D01*
Y414250D01*
X268597Y415616D01*
X267823Y416773D01*
X266666Y417547D01*
X265300Y417818D01*
X262300D01*
X260934Y417547D01*
X259777Y416773D01*
X259003Y415616D01*
X258731Y414250D01*
Y398250D01*
X259003Y396884D01*
X259777Y395727D01*
X260466Y395266D01*
Y391200D01*
X260720Y389924D01*
X261443Y388842D01*
X261965Y388319D01*
X261902Y388000D01*
X262290Y386049D01*
X263395Y384395D01*
X265049Y383290D01*
X266516Y382998D01*
X268032Y381482D01*
X269114Y380760D01*
X270390Y380506D01*
X271840D01*
Y374220D01*
X285840D01*
Y393460D01*
X278369D01*
X278244Y394730D01*
X279366Y394953D01*
X280523Y395727D01*
X281297Y396884D01*
X281569Y398250D01*
Y414250D01*
X281297Y415616D01*
X280523Y416773D01*
X279366Y417547D01*
X279334Y417553D01*
Y422916D01*
X283488D01*
X284799Y422040D01*
X286451Y421712D01*
X286881Y421025D01*
X287010Y420409D01*
X286420Y419526D01*
X286166Y418250D01*
Y417434D01*
X285177Y416773D01*
X284403Y415616D01*
X284131Y414250D01*
Y398250D01*
X284403Y396884D01*
X285177Y395727D01*
X286334Y394953D01*
X287700Y394681D01*
X290632D01*
X290790Y394572D01*
X291620Y393569D01*
Y385110D01*
X299160D01*
X306700D01*
Y394000D01*
X306597D01*
X306212Y395270D01*
X306313Y395337D01*
X307206Y396674D01*
X307519Y398250D01*
Y404980D01*
X301900D01*
X296281D01*
Y398250D01*
X296594Y396674D01*
X297487Y395337D01*
X297588Y395270D01*
X297203Y394000D01*
X292925D01*
X292540Y395270D01*
X293223Y395727D01*
X293997Y396884D01*
X294269Y398250D01*
Y414250D01*
X293997Y415616D01*
X293223Y416773D01*
X293180Y417215D01*
X297181Y421216D01*
X297500Y421152D01*
X299451Y421540D01*
X301105Y422645D01*
X302210Y424299D01*
X302598Y426250D01*
X302210Y428201D01*
X301105Y429855D01*
X299451Y430960D01*
X297500Y431348D01*
X295549Y430960D01*
X293895Y429855D01*
X292840Y428275D01*
X292524Y428235D01*
X291527Y428362D01*
X291460Y428701D01*
X290355Y430355D01*
X288701Y431460D01*
X286750Y431848D01*
D02*
G37*
G36*
X316100Y511819D02*
X313100D01*
X311734Y511547D01*
X310577Y510773D01*
X309803Y509616D01*
X309531Y508250D01*
Y492250D01*
X309803Y490884D01*
X310577Y489727D01*
X311734Y488953D01*
X313100Y488681D01*
X316100D01*
X317466Y488953D01*
X318623Y489727D01*
X319397Y490884D01*
X319669Y492250D01*
Y508250D01*
X319397Y509616D01*
X318623Y510773D01*
X317466Y511547D01*
X316100Y511819D01*
D02*
G37*
G36*
X306700Y382570D02*
X300430D01*
Y373680D01*
X306700D01*
Y382570D01*
D02*
G37*
G36*
X297890D02*
X291620D01*
Y373680D01*
X297890D01*
Y382570D01*
D02*
G37*
G36*
X590709Y389380D02*
X579520D01*
Y380523D01*
X580750D01*
X583371Y380868D01*
X585813Y381880D01*
X587910Y383489D01*
X589520Y385587D01*
X590531Y388029D01*
X590709Y389380D01*
D02*
G37*
G36*
X554730Y384570D02*
X545840D01*
Y378300D01*
X554730D01*
Y384570D01*
D02*
G37*
G36*
X504540Y379230D02*
X495270D01*
Y371460D01*
X504540D01*
Y379230D01*
D02*
G37*
G36*
X492730D02*
X483460D01*
Y371460D01*
X492730D01*
Y379230D01*
D02*
G37*
G36*
X543540Y380730D02*
X535770D01*
Y371460D01*
X543540D01*
Y380730D01*
D02*
G37*
G36*
X533230D02*
X525460D01*
Y371460D01*
X533230D01*
Y380730D01*
D02*
G37*
G36*
X492730Y389540D02*
X483460D01*
Y381770D01*
X492730D01*
Y389540D01*
D02*
G37*
G36*
X328800Y417818D02*
X325800D01*
X324434Y417547D01*
X323277Y416773D01*
X322503Y415616D01*
X322231Y414250D01*
Y398250D01*
X322503Y396884D01*
X323277Y395727D01*
X324434Y394953D01*
X325800Y394681D01*
X328800D01*
X330166Y394953D01*
X331323Y395727D01*
X332097Y396884D01*
X332369Y398250D01*
Y414250D01*
X332097Y415616D01*
X331323Y416773D01*
X330166Y417547D01*
X328800Y417818D01*
D02*
G37*
G36*
X316100D02*
X313100D01*
X311734Y417547D01*
X310577Y416773D01*
X309803Y415616D01*
X309531Y414250D01*
Y398250D01*
X309803Y396884D01*
X310577Y395727D01*
X311734Y394953D01*
X313100Y394681D01*
X316100D01*
X317466Y394953D01*
X318623Y395727D01*
X319397Y396884D01*
X319669Y398250D01*
Y414250D01*
X319397Y415616D01*
X318623Y416773D01*
X317466Y417547D01*
X316100Y417818D01*
D02*
G37*
G36*
X419320Y412730D02*
X413050D01*
Y403840D01*
X419320D01*
Y412730D01*
D02*
G37*
G36*
X341500Y417818D02*
X338500D01*
X337134Y417547D01*
X335977Y416773D01*
X335203Y415616D01*
X334931Y414250D01*
Y398250D01*
X335203Y396884D01*
X335977Y395727D01*
X337134Y394953D01*
X338500Y394681D01*
X341500D01*
X342866Y394953D01*
X344023Y395727D01*
X344797Y396884D01*
X345069Y398250D01*
Y414250D01*
X344797Y415616D01*
X344023Y416773D01*
X342866Y417547D01*
X341500Y417818D01*
D02*
G37*
G36*
X533230Y392540D02*
X525460D01*
Y383270D01*
X533230D01*
Y392540D01*
D02*
G37*
G36*
X504540Y389540D02*
X495270D01*
Y381770D01*
X504540D01*
Y389540D01*
D02*
G37*
G36*
X554730Y393380D02*
X545840D01*
Y387110D01*
X554730D01*
Y393380D01*
D02*
G37*
G36*
X543540Y392540D02*
X535770D01*
Y383270D01*
X543540D01*
Y392540D01*
D02*
G37*
G36*
X373500Y578000D02*
X356500D01*
Y567000D01*
X361666D01*
Y560786D01*
X361395Y560605D01*
X360290Y558951D01*
X359902Y557000D01*
X360290Y555049D01*
X361395Y553395D01*
X363049Y552290D01*
X365000Y551902D01*
X366951Y552290D01*
X368605Y553395D01*
X369710Y555049D01*
X370098Y557000D01*
X369710Y558951D01*
X368605Y560605D01*
X368334Y560786D01*
Y567000D01*
X373500D01*
X373500Y567000D01*
Y567000D01*
X374590Y566534D01*
X374642Y566483D01*
X375724Y565760D01*
X377000Y565506D01*
X377380D01*
Y561840D01*
X396620D01*
Y575840D01*
X377380D01*
Y574834D01*
X376206Y574348D01*
X375697Y574857D01*
X374616Y575580D01*
X373500Y575802D01*
Y578000D01*
D02*
G37*
G36*
X234250Y774849D02*
X232299Y774461D01*
X230645Y773356D01*
X229540Y771702D01*
X229152Y769751D01*
X229540Y767800D01*
X230061Y767020D01*
X229382Y765750D01*
X225750D01*
Y754750D01*
X242750D01*
Y765750D01*
X239118D01*
X238439Y767020D01*
X238960Y767800D01*
X239348Y769751D01*
X238960Y771702D01*
X237855Y773356D01*
X236201Y774461D01*
X234250Y774849D01*
D02*
G37*
G36*
X514540Y752980D02*
X506770D01*
Y743710D01*
X514540D01*
Y752980D01*
D02*
G37*
G36*
Y764790D02*
X506770D01*
Y755520D01*
X514540D01*
Y764790D01*
D02*
G37*
G36*
X504230D02*
X496460D01*
Y755520D01*
X504230D01*
Y764790D01*
D02*
G37*
G36*
X300483Y739230D02*
X294212D01*
Y734960D01*
X300483D01*
Y739230D01*
D02*
G37*
G36*
X288810Y730890D02*
X282540D01*
Y722000D01*
X288810D01*
Y730890D01*
D02*
G37*
G36*
X504230Y752980D02*
X496460D01*
Y743710D01*
X504230D01*
Y752980D01*
D02*
G37*
G36*
X309293Y739230D02*
X303022D01*
Y734960D01*
X309293D01*
Y739230D01*
D02*
G37*
G36*
X274478Y765040D02*
X268208D01*
Y760770D01*
X274478D01*
Y765040D01*
D02*
G37*
G36*
X325045Y805730D02*
X311710D01*
Y779060D01*
X325045D01*
Y805730D01*
D02*
G37*
G36*
X253290D02*
X239955D01*
Y779060D01*
X253290D01*
Y805730D01*
D02*
G37*
G36*
X518500Y801000D02*
X507500D01*
Y795834D01*
X455085D01*
X453809Y795580D01*
X452727Y794857D01*
X447442Y789573D01*
X446720Y788491D01*
X446466Y787215D01*
Y783819D01*
X445513Y783425D01*
X443738Y782062D01*
X442375Y780287D01*
X441519Y778219D01*
X441227Y776000D01*
X441519Y773781D01*
X442375Y771713D01*
X443738Y769938D01*
X445513Y768575D01*
X447581Y767719D01*
X449800Y767427D01*
X452019Y767719D01*
X454087Y768575D01*
X455862Y769938D01*
X457225Y771713D01*
X458081Y773781D01*
X458373Y776000D01*
X458081Y778219D01*
X457225Y780287D01*
X455862Y782062D01*
X454087Y783425D01*
X453134Y783819D01*
Y785834D01*
X456466Y789166D01*
X507500D01*
Y784000D01*
X518500D01*
Y801000D01*
D02*
G37*
G36*
X340920Y805730D02*
X327585D01*
Y779060D01*
X340920D01*
Y805730D01*
D02*
G37*
G36*
X478450Y784603D02*
X471950D01*
X469902Y784195D01*
X468165Y783035D01*
X467005Y781298D01*
X466597Y779250D01*
Y772750D01*
X467005Y770702D01*
X468165Y768965D01*
X469902Y767805D01*
X471950Y767397D01*
X478450D01*
X480498Y767805D01*
X482235Y768965D01*
X483395Y770702D01*
X483803Y772750D01*
Y779250D01*
X483395Y781298D01*
X482235Y783035D01*
X480498Y784195D01*
X478450Y784603D01*
D02*
G37*
G36*
X283288Y765040D02*
X277018D01*
Y760770D01*
X283288D01*
Y765040D01*
D02*
G37*
G36*
X237415Y805730D02*
X224080D01*
Y779060D01*
X237415D01*
Y805730D01*
D02*
G37*
G36*
X408450Y785603D02*
X401950D01*
X399902Y785195D01*
X398165Y784035D01*
X397005Y782298D01*
X396597Y780250D01*
Y773750D01*
X397005Y771702D01*
X398165Y769965D01*
X399902Y768805D01*
X401950Y768397D01*
X408450D01*
X410498Y768805D01*
X412235Y769965D01*
X413395Y771702D01*
X413803Y773750D01*
Y780250D01*
X413395Y782298D01*
X412235Y784035D01*
X410498Y785195D01*
X408450Y785603D01*
D02*
G37*
G36*
X263318Y618180D02*
X257476D01*
Y612846D01*
X263318D01*
Y618180D01*
D02*
G37*
G36*
X271700Y610306D02*
X265858D01*
Y604972D01*
X271700D01*
Y610306D01*
D02*
G37*
G36*
X388500Y618500D02*
X377500D01*
Y614868D01*
X376230Y614189D01*
X375451Y614710D01*
X373500Y615098D01*
X371549Y614710D01*
X370770Y614189D01*
X369500Y614868D01*
Y618500D01*
X358500D01*
Y601500D01*
X369500D01*
Y605132D01*
X370770Y605811D01*
X371549Y605290D01*
X373500Y604902D01*
X375451Y605290D01*
X376230Y605811D01*
X377500Y605132D01*
Y601500D01*
X388500D01*
Y606666D01*
X392902D01*
Y604000D01*
X393290Y602049D01*
X394395Y600395D01*
X396049Y599290D01*
X398000Y598902D01*
X404000D01*
X405951Y599290D01*
X407605Y600395D01*
X408710Y602049D01*
X409098Y604000D01*
Y610000D01*
X408710Y611951D01*
X407605Y613605D01*
X405951Y614710D01*
X404000Y615098D01*
X398000D01*
X396049Y614710D01*
X394395Y613605D01*
X394214Y613334D01*
X388500D01*
Y618500D01*
D02*
G37*
G36*
X271700Y618180D02*
X265858D01*
Y612846D01*
X271700D01*
Y618180D01*
D02*
G37*
G36*
X289840Y617120D02*
X275840D01*
Y597880D01*
X281541D01*
Y594285D01*
X281270Y594104D01*
X280165Y592451D01*
X279777Y590500D01*
X280165Y588549D01*
X281270Y586895D01*
X282924Y585790D01*
X284875Y585402D01*
X286826Y585790D01*
X288480Y586895D01*
X289585Y588549D01*
X289973Y590500D01*
X289585Y592451D01*
X288480Y594104D01*
X288209Y594285D01*
Y597880D01*
X289840D01*
Y617120D01*
D02*
G37*
G36*
X310160D02*
X296160D01*
Y609135D01*
X295920Y608776D01*
X295666Y607500D01*
X295920Y606224D01*
X296160Y605864D01*
Y603375D01*
X295643Y602858D01*
X294921Y601776D01*
X294667Y600500D01*
Y594285D01*
X294396Y594104D01*
X293291Y592450D01*
X292903Y590499D01*
X293291Y588549D01*
X294396Y586895D01*
X296050Y585790D01*
X298001Y585401D01*
X299952Y585790D01*
X301606Y586895D01*
X302711Y588549D01*
X303099Y590499D01*
X302711Y592450D01*
X301606Y594104D01*
X301335Y594285D01*
Y597880D01*
X310160D01*
Y617120D01*
D02*
G37*
G36*
X263318Y610306D02*
X257476D01*
Y604972D01*
X263318D01*
Y610306D01*
D02*
G37*
G36*
X423340Y597120D02*
X409340D01*
Y591371D01*
X409021Y591253D01*
X408070Y591160D01*
X407105Y592605D01*
X405451Y593710D01*
X403500Y594098D01*
X401549Y593710D01*
X399895Y592605D01*
X399714Y592334D01*
X396620D01*
Y596160D01*
X377380D01*
Y595588D01*
X376110Y594713D01*
X375500Y594834D01*
X373500D01*
Y597000D01*
X356500D01*
Y586000D01*
X373500D01*
Y586989D01*
X374770Y587515D01*
X375482Y586802D01*
X376564Y586080D01*
X377380Y585917D01*
Y582160D01*
X396620D01*
Y585666D01*
X399714D01*
X399895Y585395D01*
X401549Y584290D01*
X402266Y584147D01*
Y582853D01*
X401549Y582710D01*
X399895Y581605D01*
X398790Y579951D01*
X398402Y578000D01*
X398790Y576049D01*
X399895Y574395D01*
X401549Y573290D01*
X403500Y572902D01*
X405451Y573290D01*
X407105Y574395D01*
X407286Y574666D01*
X409500D01*
X410776Y574920D01*
X411857Y575643D01*
X414095Y577880D01*
X423340D01*
Y597120D01*
D02*
G37*
G36*
X388500Y640500D02*
X377500D01*
Y636868D01*
X376230Y636189D01*
X375451Y636710D01*
X373500Y637098D01*
X371549Y636710D01*
X370770Y636189D01*
X369500Y636868D01*
Y640500D01*
X358500D01*
Y623500D01*
X369500D01*
Y627132D01*
X370770Y627811D01*
X371549Y627290D01*
X373500Y626902D01*
X375451Y627290D01*
X376230Y627811D01*
X377500Y627132D01*
Y623500D01*
X388500D01*
Y628065D01*
X389770Y628417D01*
X392902Y625285D01*
Y624000D01*
X393290Y622049D01*
X394395Y620395D01*
X396049Y619290D01*
X398000Y618902D01*
X404000D01*
X405951Y619290D01*
X407605Y620395D01*
X408710Y622049D01*
X409098Y624000D01*
Y630000D01*
X408710Y631951D01*
X407605Y633605D01*
X405951Y634710D01*
X404000Y635098D01*
X398000D01*
X396049Y634710D01*
X394395Y633605D01*
X394047Y633571D01*
X393260Y634357D01*
X392178Y635080D01*
X390902Y635334D01*
X388500D01*
Y640500D01*
D02*
G37*
G36*
X280000Y719460D02*
X273730D01*
Y710570D01*
X280000D01*
Y719460D01*
D02*
G37*
G36*
X514290Y717540D02*
X506520D01*
Y708270D01*
X514290D01*
Y717540D01*
D02*
G37*
G36*
X280000Y730890D02*
X273730D01*
Y722000D01*
X280000D01*
Y730890D01*
D02*
G37*
G36*
X288810Y719460D02*
X282540D01*
Y710570D01*
X288810D01*
Y719460D01*
D02*
G37*
G36*
X503980Y705730D02*
X496210D01*
Y696460D01*
X503980D01*
Y705730D01*
D02*
G37*
G36*
X449500Y670098D02*
X447549Y669710D01*
X445895Y668605D01*
X444790Y666951D01*
X444402Y665000D01*
X444790Y663049D01*
X445895Y661395D01*
X447549Y660290D01*
X449500Y659902D01*
X451451Y660290D01*
X453105Y661395D01*
X454210Y663049D01*
X454598Y665000D01*
X454210Y666951D01*
X453105Y668605D01*
X451451Y669710D01*
X449500Y670098D01*
D02*
G37*
G36*
X503980Y717540D02*
X496210D01*
Y708270D01*
X503980D01*
Y717540D01*
D02*
G37*
G36*
X514290Y705730D02*
X506520D01*
Y696460D01*
X514290D01*
Y705730D01*
D02*
G37*
%LPD*%
D10*
X627000Y722500D02*
D03*
X608000D02*
D03*
X573000Y667500D02*
D03*
X592000D02*
D03*
X300500Y698000D02*
D03*
X281500D02*
D03*
X263500Y631000D02*
D03*
X244500D02*
D03*
X263500Y675667D02*
D03*
X244500D02*
D03*
X263500Y698000D02*
D03*
X244500D02*
D03*
X513000Y812500D02*
D03*
X532000D02*
D03*
X263500Y653333D02*
D03*
X244500D02*
D03*
X237549Y719790D02*
D03*
X256549D02*
D03*
X513000Y792500D02*
D03*
X532000D02*
D03*
X364000Y610000D02*
D03*
X383000D02*
D03*
Y632000D02*
D03*
X364000D02*
D03*
X343500Y614000D02*
D03*
X324500D02*
D03*
D11*
X352700Y500250D02*
D03*
X263800D02*
D03*
X276500D02*
D03*
X289200D02*
D03*
X301900D02*
D03*
X314600D02*
D03*
X327300D02*
D03*
X340000D02*
D03*
X352700Y406250D02*
D03*
X340000D02*
D03*
X327300D02*
D03*
X314600D02*
D03*
X301900D02*
D03*
X289200D02*
D03*
X276500D02*
D03*
X263800D02*
D03*
D12*
X238685Y807000D02*
D03*
X326315D02*
D03*
D13*
X420590Y414000D02*
D03*
X440910D02*
D03*
X622660Y584000D02*
D03*
X602340D02*
D03*
X280840Y676000D02*
D03*
X301160D02*
D03*
X324590Y593000D02*
D03*
X344910D02*
D03*
X571410Y584000D02*
D03*
X551090D02*
D03*
X571160Y606250D02*
D03*
X550840D02*
D03*
X299160Y383840D02*
D03*
X278840D02*
D03*
X281270Y720730D02*
D03*
X301590D02*
D03*
X282840Y607500D02*
D03*
X303160D02*
D03*
X416340Y587500D02*
D03*
X436660D02*
D03*
D14*
X439020Y737210D02*
D03*
Y756210D02*
D03*
X463597Y737210D02*
D03*
Y756210D02*
D03*
X414443Y737210D02*
D03*
Y756210D02*
D03*
X389867Y737210D02*
D03*
Y756210D02*
D03*
X439020Y713710D02*
D03*
Y694710D02*
D03*
X463597Y713710D02*
D03*
Y694710D02*
D03*
X414443Y713710D02*
D03*
Y694710D02*
D03*
X389867Y713710D02*
D03*
Y694710D02*
D03*
X525250Y577150D02*
D03*
Y558150D02*
D03*
X494000Y380500D02*
D03*
Y399500D02*
D03*
D15*
X607000Y505000D02*
D03*
X588000D02*
D03*
X603000Y606410D02*
D03*
X622000D02*
D03*
X486500Y754250D02*
D03*
X505500D02*
D03*
X505250Y707000D02*
D03*
X486250D02*
D03*
X505750Y635900D02*
D03*
X486750D02*
D03*
X505750Y659950D02*
D03*
X486750D02*
D03*
X534500Y382000D02*
D03*
X515500D02*
D03*
X527250Y530000D02*
D03*
X508250D02*
D03*
X505750Y684000D02*
D03*
X486750D02*
D03*
D16*
X612500Y529500D02*
D03*
X562500D02*
D03*
D17*
X597500Y560500D02*
D03*
X627500D02*
D03*
X547500D02*
D03*
X577500D02*
D03*
D18*
X359000Y541250D02*
D03*
Y522250D02*
D03*
X260000Y541250D02*
D03*
Y522250D02*
D03*
X339200Y541250D02*
D03*
Y522250D02*
D03*
X279800Y541250D02*
D03*
Y522250D02*
D03*
X484249Y569500D02*
D03*
Y550500D02*
D03*
X464250Y569500D02*
D03*
Y550500D02*
D03*
X299000Y577500D02*
D03*
Y558500D02*
D03*
X442500Y431500D02*
D03*
Y450500D02*
D03*
X321000Y675500D02*
D03*
Y694500D02*
D03*
X319400Y541250D02*
D03*
Y522250D02*
D03*
X321000Y726000D02*
D03*
Y707000D02*
D03*
X341000Y726000D02*
D03*
Y707000D02*
D03*
X365000Y591500D02*
D03*
Y572500D02*
D03*
X299600Y541250D02*
D03*
Y522250D02*
D03*
X421500Y431500D02*
D03*
Y450500D02*
D03*
X360000Y723598D02*
D03*
Y742598D02*
D03*
X341000Y675500D02*
D03*
Y694500D02*
D03*
X234250Y760250D02*
D03*
Y741250D02*
D03*
X347000Y657000D02*
D03*
Y638000D02*
D03*
D19*
X299499Y655002D02*
D03*
X290000D02*
D03*
X280500D02*
D03*
Y628998D02*
D03*
X299499D02*
D03*
X506749Y612652D02*
D03*
X497250D02*
D03*
X487750D02*
D03*
Y586648D02*
D03*
X506749D02*
D03*
X420500Y678002D02*
D03*
X439499D02*
D03*
Y651998D02*
D03*
X430000D02*
D03*
X420500D02*
D03*
D20*
X355412Y387924D02*
D03*
X376588Y397576D02*
D03*
Y378424D02*
D03*
X595928Y642331D02*
D03*
X617104Y651983D02*
D03*
Y632831D02*
D03*
X243412Y601924D02*
D03*
X264588Y611576D02*
D03*
Y592424D02*
D03*
X580354Y631831D02*
D03*
Y650983D02*
D03*
X559178Y641331D02*
D03*
D21*
X276000Y426250D02*
D03*
X270000D02*
D03*
D22*
X387000Y589160D02*
D03*
Y568840D02*
D03*
X556000Y406160D02*
D03*
Y385840D02*
D03*
X256500Y760160D02*
D03*
Y739840D02*
D03*
X235750Y492590D02*
D03*
Y512910D02*
D03*
X322500Y741840D02*
D03*
Y762160D02*
D03*
X401000Y651840D02*
D03*
Y672160D02*
D03*
X324000Y657160D02*
D03*
Y636840D02*
D03*
X369500Y659840D02*
D03*
Y680160D02*
D03*
D23*
X275748Y759500D02*
D03*
Y750000D02*
D03*
Y740500D02*
D03*
X301752D02*
D03*
Y759500D02*
D03*
X316747Y574500D02*
D03*
Y565000D02*
D03*
Y555500D02*
D03*
X342752D02*
D03*
Y574500D02*
D03*
D24*
X525500Y658600D02*
D03*
Y625900D02*
D03*
X525500Y675650D02*
D03*
Y708350D02*
D03*
X359500Y763900D02*
D03*
Y796600D02*
D03*
D25*
X552750Y485220D02*
D03*
Y454780D02*
D03*
X466250Y614870D02*
D03*
Y584430D02*
D03*
D26*
X563970Y506500D02*
D03*
X533530D02*
D03*
D27*
X533000Y470500D02*
D03*
X525250Y610650D02*
D03*
D28*
X533000Y486500D02*
D03*
X525250Y594650D02*
D03*
D29*
X459000Y477500D02*
D03*
D30*
X405000D02*
D03*
D31*
X401000Y627000D02*
D03*
Y607000D02*
D03*
D32*
X434000Y617000D02*
D03*
D33*
X286250Y426250D02*
X286750D01*
X276000D02*
X286250D01*
X286750D02*
Y426750D01*
X276000Y406750D02*
Y426250D01*
X259750Y421500D02*
Y426250D01*
X270000D01*
X276000Y406750D02*
X276500Y406250D01*
X449800Y787215D02*
X455085Y792500D01*
X449800Y776000D02*
Y787215D01*
X382500Y794000D02*
X392500Y804000D01*
X382500Y781665D02*
Y794000D01*
X377835Y777000D02*
X382500Y781665D01*
X455085Y792500D02*
X513000D01*
X510500Y810000D02*
X513000Y812500D01*
X507500Y810000D02*
X510500D01*
X501500Y804000D02*
X507500Y810000D01*
X627500Y622500D02*
X640000Y635000D01*
X585000Y622500D02*
X627500D01*
X640000Y635000D02*
Y807500D01*
X580354Y627146D02*
X585000Y622500D01*
X580354Y627146D02*
Y631831D01*
X627186Y632831D02*
X630750Y636395D01*
X567500Y822500D02*
X625000D01*
X537500Y792500D02*
X567500Y822500D01*
X532000Y792500D02*
X537500D01*
X625000Y822500D02*
X640000Y807500D01*
X371500Y816500D02*
Y827500D01*
X359500Y804500D02*
X371500Y816500D01*
X359500Y796600D02*
Y804500D01*
X392500Y804000D02*
X501500D01*
X452500Y817500D02*
Y827500D01*
X445000Y810000D02*
X452500Y817500D01*
X391785Y810000D02*
X445000D01*
X359500Y777715D02*
X391785Y810000D01*
X595928Y635573D02*
Y642331D01*
X592186Y631831D02*
X595928Y635573D01*
X580354Y631831D02*
X592186D01*
X319400Y517600D02*
Y522250D01*
Y517600D02*
X327300Y509700D01*
Y500250D02*
Y509700D01*
X279800Y522250D02*
X299600D01*
X301900Y500250D02*
Y519950D01*
X250750Y495750D02*
X255250Y500250D01*
X250750Y509750D02*
X255000Y514000D01*
X286250D01*
X289200Y511050D01*
Y500250D02*
Y511050D01*
Y406250D02*
X289500Y406550D01*
Y418250D01*
X297500Y426250D01*
X286250D02*
X286750Y426750D01*
X263800Y391200D02*
X267000Y388000D01*
X263800Y391200D02*
Y406250D01*
X355383Y512000D02*
X361000D01*
X352700Y509317D02*
X355383Y512000D01*
X352700Y500250D02*
Y509317D01*
X255250Y500250D02*
X263800D01*
X487750Y625750D02*
Y635900D01*
X416500Y585000D02*
Y587340D01*
X409500Y578000D02*
X416500Y585000D01*
X403500Y578000D02*
X409500D01*
X387000Y589160D02*
X387160Y589000D01*
X403500D01*
X364000Y632000D02*
X373500D01*
X364000Y610000D02*
X373500D01*
X433998Y634999D02*
X439499Y640500D01*
X433998Y625499D02*
Y634999D01*
X439499Y640500D02*
Y651998D01*
X383000Y632000D02*
X390902D01*
X395902Y627000D01*
X401000D01*
X383000Y610000D02*
X398000D01*
X436660Y587500D02*
Y614340D01*
X617104Y632831D02*
X627186D01*
X264012Y593000D02*
X264588Y592424D01*
X232500Y593000D02*
X264012D01*
X288000Y750000D02*
X288500Y749500D01*
X275748Y750000D02*
X288000D01*
X319500D01*
X322500Y747000D01*
X359500Y763900D02*
Y777715D01*
Y743098D02*
Y763900D01*
X509400Y553052D02*
X520152D01*
X525250Y558150D01*
X580354Y650983D02*
X617104D01*
X301590Y720730D02*
X306860Y726000D01*
X321000D01*
X256500Y760160D02*
Y773000D01*
Y753000D02*
Y760160D01*
Y753000D02*
X259500Y750000D01*
X275748D01*
X347668Y726000D02*
Y764262D01*
X341000Y726000D02*
X347668D01*
X337930Y774000D02*
X347668Y764262D01*
X337340Y762160D02*
X337500Y762000D01*
X322500Y762160D02*
X337340D01*
X287500Y774000D02*
X337930D01*
X322500Y741840D02*
Y747000D01*
X301750Y759502D02*
X319842D01*
X322500Y762160D01*
X282500Y779000D02*
X287500Y774000D01*
X282500Y779000D02*
Y787750D01*
X251000Y698000D02*
X254000Y695000D01*
Y679000D02*
Y695000D01*
Y679000D02*
X257333Y675667D01*
X341000Y694500D02*
Y707000D01*
X360000Y710598D02*
Y723598D01*
X244500Y631000D02*
Y653333D01*
X234250Y760250D02*
Y769751D01*
X356000Y676000D02*
X360160Y680160D01*
X369500D01*
X439499Y667500D02*
Y678002D01*
X437000Y665000D02*
X439499Y667500D01*
X425500Y450500D02*
Y472000D01*
X421500Y450500D02*
X425500D01*
X439000D02*
X442500D01*
X439000D02*
Y475000D01*
X420000Y477500D02*
X425500Y472000D01*
X405000Y477500D02*
X420000D01*
X339200Y555000D02*
X342252D01*
X339200Y541250D02*
Y555000D01*
X302497Y541250D02*
X316747Y555500D01*
X339750Y541250D02*
X359000D01*
X319400D02*
X339200D01*
X279800D02*
X299600D01*
X260000D02*
X279800D01*
X260000Y522250D02*
X279800D01*
X339200D02*
X359000D01*
X319400D02*
X339200D01*
X256161Y740500D02*
X275748D01*
X256500Y739840D02*
X257411Y740751D01*
X275748Y750000D02*
X276748Y749000D01*
X514500Y382000D02*
Y402500D01*
X514679Y402679D02*
X517000Y405000D01*
X514500Y402500D02*
X514679Y402679D01*
X497179D02*
X514679D01*
X494000Y399500D02*
X497179Y402679D01*
X363000Y395512D02*
Y419000D01*
X355412Y387924D02*
X363000Y395512D01*
X376588Y378424D02*
Y397576D01*
X550750Y385840D02*
X553910Y389000D01*
X550250Y385340D02*
X550750Y385840D01*
X556000D01*
X545840D02*
X550750D01*
X542000Y382000D02*
X545840Y385840D01*
X534500Y382000D02*
X542000D01*
X270000Y426250D02*
X276000D01*
X377000Y568840D02*
X387000D01*
X373340Y572500D02*
X377000Y568840D01*
X365000Y572500D02*
X373340D01*
X267000Y387230D02*
X270390Y383840D01*
X278840D01*
X299000Y607500D02*
X302000Y604500D01*
X299000Y607500D02*
X302500D01*
X464250Y569500D02*
X485750D01*
X342752Y569498D02*
Y574500D01*
X497750Y550500D02*
X498250Y550000D01*
X484249Y550500D02*
X497750D01*
X486250Y570000D02*
X496250D01*
X485750Y569500D02*
X486250Y570000D01*
X497250Y603000D02*
X499250Y601000D01*
X497250Y603000D02*
Y612652D01*
X484250Y623000D02*
X493250D01*
X497250Y619000D01*
Y612652D02*
Y619000D01*
X481750Y625500D02*
X484250Y623000D01*
X487750Y601500D02*
X488250Y601000D01*
X487750Y601500D02*
Y612652D01*
X321000Y726000D02*
X341000D01*
X342252Y555000D02*
X342752Y555500D01*
X342752Y555500D01*
X553910Y389000D02*
X576600D01*
X578250Y390650D01*
X517000Y405000D02*
X520250Y401750D01*
X516840Y405160D02*
X517000Y405000D01*
X326999Y555500D02*
X327250Y555250D01*
X320500Y555500D02*
X326999D01*
X508250Y530000D02*
X513250Y535000D01*
Y544250D01*
X520350Y572250D02*
X525250Y577150D01*
X301750Y759502D02*
X301752Y759500D01*
X517340Y405660D02*
X536000D01*
X550250D01*
X528250Y381250D02*
Y385340D01*
X275500Y759747D02*
X275748Y759500D01*
X342752Y569498D02*
X347250Y565000D01*
X298001Y590499D02*
Y600500D01*
X302000Y604500D01*
X420500Y651998D02*
Y661500D01*
X424000Y665000D01*
X437000D01*
X401000Y671500D02*
X408500D01*
X415002Y678002D01*
X420500D01*
X428000Y678000D01*
X377840Y589160D02*
X387000D01*
X375500Y591500D02*
X377840Y589160D01*
X365000Y591500D02*
X375500D01*
X401000Y652500D02*
X405000Y648500D01*
X386500Y652500D02*
X401000D01*
X429500Y641500D02*
X430000Y642000D01*
Y651998D01*
X376588Y397576D02*
X376999Y397988D01*
Y426000D01*
X421500Y431500D02*
Y441000D01*
Y431500D02*
X425500D01*
X442730Y430500D02*
Y439770D01*
X442500Y440000D02*
X442730Y439770D01*
X441500Y477500D02*
X459000D01*
X439000Y475000D02*
X441500Y477500D01*
X342252Y555000D02*
Y559748D01*
X334000Y568000D02*
X342252Y559748D01*
X334000Y568000D02*
Y580250D01*
X316747Y565000D02*
X324000D01*
X327000Y568000D01*
X321000Y707000D02*
X341000D01*
X234250Y741250D02*
X255090D01*
X235750Y512910D02*
X238910Y509750D01*
X250750D01*
X235750Y492590D02*
X238910Y495750D01*
X251750D01*
X313623Y565000D02*
X316747D01*
X307122Y558500D02*
X313623Y565000D01*
X299000Y558500D02*
X307122D01*
X299000Y577500D02*
X306500D01*
X309500Y574500D01*
X316747D01*
X301160Y676000D02*
X320500D01*
X304000Y694500D02*
X321000D01*
X299499Y655002D02*
Y674340D01*
X263833Y676000D02*
X280840D01*
X263500Y698000D02*
X281500D01*
X244500Y694667D02*
Y698000D01*
X251000D01*
X257333Y675667D02*
X263500D01*
X244500Y653333D02*
Y675667D01*
X263500Y653333D02*
Y675667D01*
Y631000D02*
Y653333D01*
X265502Y628998D02*
X280500D01*
X299499D02*
X307380D01*
X301752Y740500D02*
X302002Y740750D01*
X301252Y741500D02*
X302002Y740750D01*
X237549Y719790D02*
X246049D01*
X255250Y722250D02*
Y739590D01*
X243412Y601924D02*
Y629912D01*
X364460Y556460D02*
X365000Y557000D01*
Y572500D01*
X315222Y636840D02*
X324000D01*
X307380Y628998D02*
X315222Y636840D01*
X290000Y644000D02*
Y655002D01*
X320840Y654000D02*
X324000Y657160D01*
X309000Y654000D02*
X320840D01*
X321000Y675500D02*
Y680000D01*
X326000Y685000D01*
X337000D01*
X341000Y689000D01*
Y694500D01*
X324590Y585590D02*
Y593000D01*
X316747Y577748D02*
X324590Y585590D01*
X316747Y574500D02*
Y577748D01*
X324590Y593000D02*
Y613910D01*
X324500Y614000D02*
X324590Y613910D01*
X343500Y594410D02*
Y614000D01*
Y594410D02*
X344910Y593000D01*
X334000Y580250D02*
X345830Y592080D01*
X341000Y675500D02*
X355500D01*
X356000Y676000D01*
X384951Y654049D02*
X386500Y652500D01*
X384951Y654049D02*
Y660710D01*
X352720Y656346D02*
X372380D01*
X324500Y614000D02*
Y622500D01*
X327000Y625000D01*
X339500D01*
X347000Y632500D01*
Y638000D01*
X342000Y647500D02*
X347000Y652500D01*
Y657000D01*
X280500Y639917D02*
Y655002D01*
Y639917D02*
X282688Y637730D01*
X304730D01*
X314500Y647500D01*
X342000D01*
X284875Y590500D02*
Y603000D01*
Y589625D02*
Y590500D01*
D34*
X567500Y685000D02*
Y692500D01*
Y685000D02*
X573000Y679500D01*
Y667500D02*
Y679500D01*
X526650Y708350D02*
X545000Y690000D01*
X525500Y708350D02*
X526650D01*
X545000Y690000D02*
X565000D01*
X567500Y692500D01*
X587500Y702000D02*
X608000Y722500D01*
X587500Y692500D02*
Y702000D01*
X600000Y670000D02*
X607500Y677500D01*
X592000Y670000D02*
X600000D01*
X607500Y677500D02*
Y695000D01*
X613988Y796488D02*
Y812500D01*
X595000Y777500D02*
X613988Y796488D01*
X595000Y750000D02*
Y777500D01*
X605000Y812500D02*
X613988D01*
X595000D02*
X605000D01*
X585000D02*
X595000D01*
Y750000D02*
X608000Y737000D01*
Y722500D02*
Y737000D01*
X619500Y740500D02*
Y762500D01*
Y740500D02*
X627000Y733000D01*
Y722500D02*
Y733000D01*
Y695500D02*
X627500Y695000D01*
X627000Y695500D02*
Y722500D01*
X525250Y577150D02*
X538020D01*
X540000Y579130D01*
Y672500D01*
X536850Y675650D02*
X540000Y672500D01*
X525500Y675650D02*
X536850D01*
X553985Y735000D02*
X556485Y732500D01*
X498750Y735000D02*
X553985D01*
X486250Y722500D02*
X498750Y735000D01*
X414443Y713710D02*
X439020D01*
X389867D02*
X414443D01*
Y737210D01*
Y713710D02*
Y713710D01*
X439020D02*
X463597D01*
X439020D02*
Y737210D01*
Y713710D02*
Y713710D01*
X463597D02*
X464867D01*
X463597D02*
Y737210D01*
Y713710D02*
Y713710D01*
X556485Y778985D02*
Y792500D01*
X552500Y775000D02*
X556485Y778985D01*
X497500Y775000D02*
X552500D01*
X486500Y764000D02*
X497500Y775000D01*
X486500Y754250D02*
Y764000D01*
X556485Y732500D02*
X570000D01*
X550000D02*
X556485D01*
X463597Y737210D02*
X481960D01*
X486500Y741750D01*
Y754250D01*
X390367Y694210D02*
X467367D01*
X463597Y694710D02*
X473960D01*
X486250Y707000D01*
Y722500D01*
X389867Y756210D02*
X464866D01*
X439020Y737210D02*
X463597D01*
X414443D02*
X439020D01*
X389867D02*
X414443D01*
X389867Y713710D02*
Y737210D01*
Y713710D02*
Y713710D01*
X463597Y737210D02*
X463806Y737000D01*
X486750Y635900D02*
X487750D01*
X470900D02*
X486750D01*
Y684000D02*
Y684000D01*
Y659950D02*
Y684000D01*
Y635900D02*
Y659950D01*
X486750Y660900D02*
X490750Y666175D01*
X486750Y684000D02*
X490250Y680500D01*
X486750Y660900D02*
X490250Y664400D01*
X525500Y639750D02*
Y658600D01*
X521400Y635650D02*
X525500Y639750D01*
X505750Y635650D02*
X521400D01*
X571410Y584000D02*
X572250Y583160D01*
Y573000D02*
Y583160D01*
Y573000D02*
X574500D01*
X577500Y570000D01*
Y560500D02*
Y570000D01*
X550840Y573090D02*
Y606250D01*
X547500Y569660D02*
X550840Y573000D01*
X547500Y560500D02*
Y569660D01*
X464250Y550500D02*
Y559250D01*
X374867Y751210D02*
X379867Y756210D01*
X374867Y696710D02*
Y751210D01*
Y696710D02*
X376867Y694710D01*
X379867Y756210D02*
X389867D01*
X464866D02*
X464867Y756208D01*
X376867Y694710D02*
X389867D01*
X390367Y694210D01*
X622000Y607500D02*
X635000D01*
X622000Y606410D02*
Y607500D01*
X622660Y585000D02*
X635000D01*
X622660Y584000D02*
Y585000D01*
X627500Y542500D02*
X627500D01*
X627500D02*
Y560500D01*
X607000Y505000D02*
X622500D01*
X567500Y525000D02*
X567500Y525000D01*
X587499D01*
X522500Y534750D02*
Y545250D01*
X588000Y505000D02*
Y524499D01*
X587499Y534999D02*
X597500Y545000D01*
X587499Y525000D02*
X588000Y524499D01*
X587499Y525000D02*
Y534999D01*
X597500Y545000D02*
Y560500D01*
X529000Y528250D02*
X561500D01*
X602340Y584000D02*
X608500D01*
X612500Y580000D01*
Y560000D02*
Y580000D01*
Y520000D02*
Y535000D01*
X607000Y514500D02*
X612500Y520000D01*
X607000Y505000D02*
Y514500D01*
X622660Y574840D02*
Y584000D01*
Y574840D02*
X627500Y570000D01*
Y560500D02*
Y570000D01*
X622000Y584660D02*
Y606410D01*
X586500Y584000D02*
X602340D01*
X586250Y606250D02*
X602840D01*
X571410Y584000D02*
X586500D01*
X571160Y606250D02*
X586250D01*
X603000Y584660D02*
Y606410D01*
X505750Y659950D02*
Y684000D01*
Y635900D02*
Y659950D01*
X304500Y807500D02*
X326315D01*
X242685D02*
X264500D01*
X525250Y610650D02*
Y628300D01*
X506749Y612652D02*
X515597D01*
X517600Y610650D01*
X525250D01*
X466250Y614870D02*
Y631000D01*
X470900Y635650D01*
X466250Y584430D02*
X479680D01*
X481898Y586648D01*
X487750D01*
X506749D01*
Y593500D01*
X508749Y595500D01*
X524400D01*
X525250Y594650D01*
X525250Y577150D02*
Y594650D01*
X522500Y534750D02*
X527250Y530000D01*
X552750Y472000D02*
Y485220D01*
X533000Y458750D02*
Y470500D01*
Y458750D02*
X536970Y454780D01*
X552750D01*
X533000Y486500D02*
Y505970D01*
X533530Y506500D01*
X544000D01*
X554500D02*
X563970D01*
X551090Y584000D02*
X561250D01*
X527250Y530000D02*
X529000Y528250D01*
X550840Y606250D02*
X551090Y605999D01*
X560999D01*
X486750Y684000D02*
X491000Y688250D01*
X552750Y454780D02*
X562220D01*
X566664Y450336D01*
X578250D01*
X350049Y837549D02*
G03*
X352549Y840049I0J2500D01*
G01*
X362549Y850049D02*
G03*
X352549Y840049I0J-10000D01*
G01*
X512000D02*
G03*
X514500Y837549I2500J0D01*
G01*
X512000Y840049D02*
G03*
X502000Y850049I-10000J0D01*
G01*
X362549D02*
X502000D01*
X667500Y837549D02*
X682500D01*
X514500D02*
X667500D01*
X182500Y837500D02*
X350049D01*
X682500Y410000D02*
Y837549D01*
X622600Y350100D02*
X682500Y410000D01*
X182500D02*
Y837500D01*
X242400Y350100D02*
X622600D01*
X182500Y410000D02*
X242400Y350100D01*
D35*
X577583Y617043D02*
X594537D01*
X577506Y617120D02*
X577583Y617043D01*
X575380Y617120D02*
X577506D01*
X559178Y633322D02*
X575380Y617120D01*
X611463Y617043D02*
X613537D01*
X610846Y617660D02*
X611463Y617043D01*
X595154Y617660D02*
X610846D01*
X594537Y617043D02*
X595154Y617660D01*
X629052D02*
X645000Y633608D01*
X614154Y617660D02*
X629052D01*
X613537Y617043D02*
X614154Y617660D01*
X645000Y633608D02*
Y808892D01*
X559178Y633322D02*
Y641331D01*
X626872Y827020D02*
X645000Y808892D01*
X565628Y827020D02*
X626872D01*
X551108Y812500D02*
X565628Y827020D01*
X532000Y812500D02*
X551108D01*
D36*
X359439Y454150D02*
G03*
X368420Y457870I0J12700D01*
G01*
D02*
G03*
X377400Y479550I-21680J21680D01*
G01*
X386380Y513930D02*
G03*
X377400Y492250I21680J-21680D01*
G01*
X415500Y530350D02*
G03*
X393820Y521370I0J-30661D01*
G01*
X475280D02*
G03*
X453600Y530350I-21680J-21680D01*
G01*
X491700Y492250D02*
G03*
X482720Y513930I-30661J0D01*
G01*
X491700Y446711D02*
G03*
X495420Y437730I12700J0D01*
G01*
D02*
G03*
X517100Y428750I21680J21680D01*
G01*
X251000Y454150D02*
X359439D01*
X377400Y479550D02*
Y492250D01*
X386380Y513930D02*
X393820Y521370D01*
X415500Y530350D02*
X453600D01*
X475280Y521370D02*
X482720Y513930D01*
X491700Y446711D02*
Y492250D01*
X517100Y428750D02*
X587250D01*
D37*
X567500Y692500D02*
D03*
X587500D02*
D03*
X607500D02*
D03*
X627500D02*
D03*
D38*
X232500Y410000D02*
D03*
X632500D02*
D03*
X517000Y405000D02*
D03*
Y455000D02*
D03*
D39*
X379800Y777000D02*
D03*
X449800Y776000D02*
D03*
D40*
X405200Y777000D02*
D03*
X475200Y776000D02*
D03*
D41*
X572500Y792500D02*
D03*
D42*
Y732500D02*
D03*
D43*
X619500Y762500D02*
D03*
D44*
X392500Y827500D02*
D03*
X432500D02*
D03*
X452500D02*
D03*
X472500D02*
D03*
D45*
X371500D02*
D03*
X493500D02*
D03*
D46*
X457900Y390000D02*
D03*
D47*
X407100D02*
D03*
D48*
X578250Y390650D02*
D03*
D49*
Y416050D02*
D03*
Y441450D02*
D03*
D50*
Y466850D02*
D03*
D51*
X630750Y636395D02*
D03*
X585000Y812500D02*
D03*
X595000D02*
D03*
X605000D02*
D03*
X613988D02*
D03*
X507500Y725000D02*
D03*
X522500Y755000D02*
D03*
X345500Y421750D02*
D03*
X314500D02*
D03*
X292250Y434000D02*
D03*
X297500Y426250D02*
D03*
X286750Y426750D02*
D03*
X259750Y421500D02*
D03*
X282500Y787750D02*
D03*
X657500Y805000D02*
D03*
X524500Y638750D02*
D03*
X572250Y573000D02*
D03*
X403500Y578000D02*
D03*
X449500Y665000D02*
D03*
X403500Y589000D02*
D03*
X373500Y632000D02*
D03*
Y610000D02*
D03*
X657500Y705000D02*
D03*
Y685000D02*
D03*
Y695000D02*
D03*
X232500Y593000D02*
D03*
X288000Y750000D02*
D03*
X657500Y675000D02*
D03*
X207500Y665000D02*
D03*
X359500Y777715D02*
D03*
X509400Y553052D02*
D03*
X256500Y773000D02*
D03*
X337500Y762000D02*
D03*
X288500Y740000D02*
D03*
X267500Y719460D02*
D03*
X360000Y710598D02*
D03*
X207500Y715000D02*
D03*
X234250Y769751D02*
D03*
X635000Y607500D02*
D03*
Y585000D02*
D03*
X627500Y542500D02*
D03*
X622500Y505000D02*
D03*
X612500Y580000D02*
D03*
Y542500D02*
D03*
X513250Y545250D02*
D03*
X522500D02*
D03*
X587499Y525000D02*
D03*
X586500Y584000D02*
D03*
X586250Y606250D02*
D03*
X657500Y585000D02*
D03*
Y595000D02*
D03*
Y605000D02*
D03*
X464250Y559250D02*
D03*
X207500Y485000D02*
D03*
Y475000D02*
D03*
Y805000D02*
D03*
Y825000D02*
D03*
Y815000D02*
D03*
Y795000D02*
D03*
Y755000D02*
D03*
Y775000D02*
D03*
Y785000D02*
D03*
Y765000D02*
D03*
Y735000D02*
D03*
Y745000D02*
D03*
Y725000D02*
D03*
Y605000D02*
D03*
Y625000D02*
D03*
Y615000D02*
D03*
Y595000D02*
D03*
Y645000D02*
D03*
Y655000D02*
D03*
Y635000D02*
D03*
Y675000D02*
D03*
Y695000D02*
D03*
Y705000D02*
D03*
Y685000D02*
D03*
Y505000D02*
D03*
Y495000D02*
D03*
Y525000D02*
D03*
Y545000D02*
D03*
Y535000D02*
D03*
Y515000D02*
D03*
Y555000D02*
D03*
Y575000D02*
D03*
Y585000D02*
D03*
Y565000D02*
D03*
X657500Y465000D02*
D03*
Y455000D02*
D03*
Y565000D02*
D03*
Y575000D02*
D03*
Y555000D02*
D03*
Y515000D02*
D03*
Y535000D02*
D03*
Y545000D02*
D03*
Y525000D02*
D03*
Y475000D02*
D03*
Y495000D02*
D03*
Y505000D02*
D03*
Y485000D02*
D03*
Y635000D02*
D03*
Y655000D02*
D03*
Y665000D02*
D03*
Y645000D02*
D03*
Y615000D02*
D03*
Y625000D02*
D03*
Y725000D02*
D03*
Y745000D02*
D03*
Y735000D02*
D03*
Y715000D02*
D03*
Y765000D02*
D03*
Y785000D02*
D03*
Y775000D02*
D03*
Y755000D02*
D03*
Y795000D02*
D03*
Y815000D02*
D03*
Y825000D02*
D03*
X361000Y512000D02*
D03*
X370000Y412000D02*
D03*
X363000Y419000D02*
D03*
X370000Y433000D02*
D03*
X367000Y388000D02*
D03*
X258000D02*
D03*
X329500D02*
D03*
X344000D02*
D03*
X267000D02*
D03*
X315000D02*
D03*
X304500Y807500D02*
D03*
X264500D02*
D03*
X498250Y550000D02*
D03*
X466250Y631000D02*
D03*
X499250Y601000D02*
D03*
X496250Y570000D02*
D03*
X488250Y601000D02*
D03*
X536000Y405660D02*
D03*
X327250Y555250D02*
D03*
X552750Y472000D02*
D03*
X544000Y506500D02*
D03*
X554500D02*
D03*
X561250Y583750D02*
D03*
X550840Y573000D02*
D03*
X347250Y565000D02*
D03*
X298001Y590499D02*
D03*
X606266Y650983D02*
D03*
X560999Y605999D02*
D03*
X428000Y678000D02*
D03*
X437000Y665000D02*
D03*
X429500Y641500D02*
D03*
X376999Y426000D02*
D03*
X445000Y485000D02*
D03*
X419000D02*
D03*
X421500Y441000D02*
D03*
X442500D02*
D03*
X432230D02*
D03*
X419000Y507000D02*
D03*
X445000D02*
D03*
X327000Y568000D02*
D03*
X250750Y509750D02*
D03*
Y495750D02*
D03*
X275500Y769000D02*
D03*
X246049Y719790D02*
D03*
X365000Y557000D02*
D03*
X290000Y644000D02*
D03*
X309000Y654000D02*
D03*
X309382Y631000D02*
D03*
X254000Y632000D02*
D03*
Y664000D02*
D03*
X356000Y676000D02*
D03*
X384951Y660710D02*
D03*
X284875Y590500D02*
D03*
D52*
X578250Y407164D02*
D03*
Y450336D02*
D03*
M02*
