G04*
G04 #@! TF.GenerationSoftware,Altium Limited,CircuitStudio,1.5.2 (1.5.2.30)*
G04*
G04 Layer_Color=13948096*
%FSLAX44Y44*%
%MOMM*%
G71*
G01*
G75*
%ADD33C,0.2540*%
%ADD34C,0.5000*%
%ADD35C,0.2500*%
%ADD36C,2.5000*%
%ADD59C,0.2000*%
%ADD101C,0.1270*%
D33*
X395040Y754580D02*
Y762200D01*
X387420D02*
X395040Y754580D01*
X387420Y762200D02*
X395040Y769820D01*
Y762200D02*
Y769820D01*
X387420Y757120D02*
Y767280D01*
X379800Y762200D02*
X387420D01*
X395040D02*
X402660D01*
X392500Y784620D02*
X395040Y782080D01*
X389960D02*
X395040D01*
X389960D02*
X392500Y784620D01*
Y777000D02*
Y784620D01*
X462500Y776000D02*
Y783620D01*
X459960Y781080D02*
X462500Y783620D01*
X459960Y781080D02*
X465040D01*
X462500Y783620D02*
X465040Y781080D01*
Y761200D02*
X472660D01*
X449800D02*
X457420D01*
Y756120D02*
Y766280D01*
X465040Y761200D02*
Y768820D01*
X457420Y761200D02*
X465040Y768820D01*
X457420Y761200D02*
X465040Y753580D01*
Y761200D01*
X381700Y349500D02*
X483300D01*
Y430500D01*
X381700D02*
X483300D01*
X381700Y349360D02*
Y430500D01*
X420164Y816169D02*
X418498Y814503D01*
X415166D01*
X413500Y816169D01*
Y822834D01*
X415166Y824500D01*
X418498D01*
X420164Y822834D01*
X572500Y715117D02*
X562343D01*
X567422Y720196D02*
Y710039D01*
X373000Y543335D02*
X367922D01*
X370461D01*
Y528100D01*
X373000D01*
X367922D01*
X360304D02*
X352687D01*
X350147Y530639D01*
X352687Y533178D01*
X357765D01*
X360304Y535717D01*
X357765Y538257D01*
X350147D01*
X342530Y528100D02*
X337451D01*
X334912Y530639D01*
Y535717D01*
X337451Y538257D01*
X342530D01*
X345069Y535717D01*
Y530639D01*
X342530Y528100D01*
X314599Y543335D02*
X309520D01*
X312060D01*
Y528100D01*
X314599D01*
X309520D01*
X276511Y540796D02*
X279050Y543335D01*
X284129D01*
X286668Y540796D01*
Y538257D01*
X284129Y535717D01*
X279050D01*
X276511Y533178D01*
Y530639D01*
X279050Y528100D01*
X284129D01*
X286668Y530639D01*
X263815Y528100D02*
X268894D01*
X271433Y530639D01*
Y535717D01*
X268894Y538257D01*
X263815D01*
X261276Y535717D01*
Y533178D01*
X271433D01*
X256198Y528100D02*
Y538257D01*
X248580D01*
X246041Y535717D01*
Y528100D01*
X240963D02*
X233345D01*
X230806Y530639D01*
X233345Y533178D01*
X238423D01*
X240963Y535717D01*
X238423Y538257D01*
X230806D01*
X218110Y528100D02*
X223188D01*
X225728Y530639D01*
Y535717D01*
X223188Y538257D01*
X218110D01*
X215571Y535717D01*
Y533178D01*
X225728D01*
X406750Y743415D02*
X400085Y736750D01*
X403418Y740082D01*
X400085Y743415D01*
X406750Y736750D01*
X396753D02*
X393421D01*
X395087D01*
Y746747D01*
X396753Y745081D01*
X388423D02*
X386756Y746747D01*
X383424D01*
X381758Y745081D01*
Y738416D01*
X383424Y736750D01*
X386756D01*
X388423Y738416D01*
Y745081D01*
X472250Y743415D02*
X465586Y736750D01*
X468918Y740082D01*
X465586Y743415D01*
X472250Y736750D01*
X462253D02*
X458921D01*
X460587D01*
Y746747D01*
X462253Y745081D01*
X453923D02*
X452256Y746747D01*
X448924D01*
X447258Y745081D01*
Y738416D01*
X448924Y736750D01*
X452256D01*
X453923Y738416D01*
Y745081D01*
X443926D02*
X442260Y746747D01*
X438927D01*
X437261Y745081D01*
Y738416D01*
X438927Y736750D01*
X442260D01*
X443926Y738416D01*
Y745081D01*
X408900Y572100D02*
Y587335D01*
X403822Y582257D01*
X398743Y587335D01*
Y572100D01*
X386047D02*
X391126D01*
X393665Y574639D01*
Y579717D01*
X391126Y582257D01*
X386047D01*
X383508Y579717D01*
Y577178D01*
X393665D01*
X378430Y572100D02*
X373351D01*
X375891D01*
Y587335D01*
X378430D01*
X363195Y582257D02*
X358116D01*
X355577Y579717D01*
Y572100D01*
X363195D01*
X365734Y574639D01*
X363195Y577178D01*
X355577D01*
X350499Y572100D02*
Y582257D01*
X342881D01*
X340342Y579717D01*
Y572100D01*
X335264D02*
X327646D01*
X325107Y574639D01*
X327646Y577178D01*
X332725D01*
X335264Y579717D01*
X332725Y582257D01*
X325107D01*
X317489Y572100D02*
X312411D01*
X309872Y574639D01*
Y579717D01*
X312411Y582257D01*
X317489D01*
X320029Y579717D01*
Y574639D01*
X317489Y572100D01*
X304794D02*
Y582257D01*
X297176D01*
X294637Y579717D01*
Y572100D01*
X274324Y587335D02*
X264167D01*
X269245D01*
Y572100D01*
X251471D02*
X256549D01*
X259088Y574639D01*
Y579717D01*
X256549Y582257D01*
X251471D01*
X248932Y579717D01*
Y577178D01*
X259088D01*
X233697Y582257D02*
X241314D01*
X243853Y579717D01*
Y574639D01*
X241314Y572100D01*
X233697D01*
X228618Y587335D02*
Y572100D01*
Y579717D01*
X226079Y582257D01*
X221001D01*
X218461Y579717D01*
Y572100D01*
X612500Y715117D02*
X602343D01*
X607422Y720196D02*
Y710039D01*
X260000Y762497D02*
Y755832D01*
X256668Y752500D01*
X253335Y755832D01*
Y762497D01*
X248337Y752500D02*
X245005D01*
X243339Y754166D01*
Y757498D01*
X245005Y759164D01*
X248337D01*
X250003Y757498D01*
Y754166D01*
X248337Y752500D01*
X240006Y759164D02*
Y754166D01*
X238340Y752500D01*
X233342D01*
Y759164D01*
X228344Y760831D02*
Y759164D01*
X230010D01*
X226677D01*
X228344D01*
Y754166D01*
X226677Y752500D01*
X267500Y742498D02*
X260835D01*
X264168Y745831D02*
Y739166D01*
X257503Y737500D02*
X250839Y744164D01*
X247506Y742498D02*
X240842D01*
X230845Y747497D02*
X234177Y745831D01*
X237510Y742498D01*
Y739166D01*
X235843Y737500D01*
X232511D01*
X230845Y739166D01*
Y740832D01*
X232511Y742498D01*
X237510D01*
X227513Y747497D02*
Y740832D01*
X224181Y737500D01*
X220848Y740832D01*
Y747497D01*
X370000Y377598D02*
X363335D01*
X366668Y380931D02*
Y374266D01*
X360003Y372600D02*
X353338Y379264D01*
X350006Y377598D02*
X343342D01*
X333345Y372600D02*
X340009D01*
X333345Y379264D01*
Y380931D01*
X335011Y382597D01*
X338343D01*
X340009Y380931D01*
X330013D02*
X328346Y382597D01*
X325014D01*
X323348Y380931D01*
Y374266D01*
X325014Y372600D01*
X328346D01*
X330013Y374266D01*
Y380931D01*
X320016D02*
X318350Y382597D01*
X315017D01*
X313351Y380931D01*
Y374266D01*
X315017Y372600D01*
X318350D01*
X320016Y374266D01*
Y380931D01*
X310019Y372600D02*
Y379264D01*
X308353D01*
X306687Y377598D01*
Y372600D01*
Y377598D01*
X305021Y379264D01*
X303354Y377598D01*
Y372600D01*
X300022Y382597D02*
Y375932D01*
X296690Y372600D01*
X293358Y375932D01*
Y382597D01*
X529235Y716230D02*
X530901Y717897D01*
X534234D01*
X535900Y716230D01*
Y714564D01*
X534234Y712898D01*
X530901D01*
X529235Y711232D01*
Y709566D01*
X530901Y707900D01*
X534234D01*
X535900Y709566D01*
X525903Y714564D02*
Y709566D01*
X524237Y707900D01*
X519239D01*
Y714564D01*
X515906Y704568D02*
Y714564D01*
X510908D01*
X509242Y712898D01*
Y709566D01*
X510908Y707900D01*
X515906D01*
X505910Y704568D02*
Y714564D01*
X500911D01*
X499245Y712898D01*
Y709566D01*
X500911Y707900D01*
X505910D01*
X495913D02*
X492580D01*
X494247D01*
Y717897D01*
X495913D01*
X487582Y714564D02*
Y709566D01*
X485916Y707900D01*
X480918D01*
Y706234D01*
X482584Y704568D01*
X484250D01*
X480918Y707900D02*
Y714564D01*
X537735Y688000D02*
X544400D01*
X537735Y694664D01*
Y696330D01*
X539402Y697997D01*
X542734D01*
X544400Y696330D01*
X534403Y688000D02*
Y689666D01*
X532737D01*
Y688000D01*
X534403D01*
X526073Y697997D02*
X519408D01*
Y696330D01*
X526073Y689666D01*
Y688000D01*
X516076Y692998D02*
X509411D01*
X506079Y689666D02*
X504413Y688000D01*
X501081D01*
X499414Y689666D01*
Y696330D01*
X501081Y697997D01*
X504413D01*
X506079Y696330D01*
Y694664D01*
X504413Y692998D01*
X499414D01*
X496082Y697997D02*
Y691332D01*
X492750Y688000D01*
X489418Y691332D01*
Y697997D01*
X479421D02*
Y688000D01*
X484419D01*
X486085Y689666D01*
Y692998D01*
X484419Y694664D01*
X479421D01*
X469424D02*
X474422D01*
X476089Y692998D01*
Y689666D01*
X474422Y688000D01*
X469424D01*
X548400Y680530D02*
X541735Y673866D01*
X548400D02*
X541735Y680530D01*
X548400Y677198D02*
X541735D01*
X545068Y673866D02*
Y680530D01*
X538403D02*
X531739Y673866D01*
X538403D02*
X531739Y680530D01*
X538403Y677198D02*
X531739D01*
X535071Y673866D02*
Y680530D01*
X528406Y672200D02*
Y682197D01*
X525074Y678864D01*
X521742Y682197D01*
Y672200D01*
X518410Y678864D02*
Y673866D01*
X516743Y672200D01*
X511745D01*
Y678864D01*
X508413Y672200D02*
X503414D01*
X501748Y673866D01*
X503414Y675532D01*
X506747D01*
X508413Y677198D01*
X506747Y678864D01*
X501748D01*
X496750Y680530D02*
Y678864D01*
X498416D01*
X495084D01*
X496750D01*
Y673866D01*
X495084Y672200D01*
X480089Y682197D02*
Y672200D01*
X475090D01*
X473424Y673866D01*
Y675532D01*
X475090Y677198D01*
X480089D01*
X475090D01*
X473424Y678864D01*
Y680530D01*
X475090Y682197D01*
X480089D01*
X465093Y672200D02*
X468426D01*
X470092Y673866D01*
Y677198D01*
X468426Y678864D01*
X465093D01*
X463427Y677198D01*
Y675532D01*
X470092D01*
X443434Y682197D02*
X450098D01*
Y672200D01*
X443434D01*
X450098Y677198D02*
X446766D01*
X438435Y678864D02*
X435103D01*
X433437Y677198D01*
Y672200D01*
X438435D01*
X440102Y673866D01*
X438435Y675532D01*
X433437D01*
X430105Y678864D02*
Y672200D01*
Y675532D01*
X428439Y677198D01*
X426772Y678864D01*
X425106D01*
X418442Y680530D02*
Y678864D01*
X420108D01*
X416776D01*
X418442D01*
Y673866D01*
X416776Y672200D01*
X411777Y682197D02*
Y672200D01*
Y677198D01*
X410111Y678864D01*
X406779D01*
X405113Y677198D01*
Y672200D01*
X391784Y682197D02*
X388451D01*
X390118D01*
Y672200D01*
X391784D01*
X388451D01*
X383453D02*
X378455D01*
X376789Y673866D01*
X378455Y675532D01*
X381787D01*
X383453Y677198D01*
X381787Y678864D01*
X376789D01*
X371790Y672200D02*
X368458D01*
X366792Y673866D01*
Y677198D01*
X368458Y678864D01*
X371790D01*
X373456Y677198D01*
Y673866D01*
X371790Y672200D01*
X363460D02*
X360127D01*
X361793D01*
Y682197D01*
X363460D01*
X353463Y678864D02*
X350131D01*
X348464Y677198D01*
Y672200D01*
X353463D01*
X355129Y673866D01*
X353463Y675532D01*
X348464D01*
X343466Y680530D02*
Y678864D01*
X345132D01*
X341800D01*
X343466D01*
Y673866D01*
X341800Y672200D01*
X331803D02*
X335135D01*
X336801Y673866D01*
Y677198D01*
X335135Y678864D01*
X331803D01*
X330137Y677198D01*
Y675532D01*
X336801D01*
X320140Y682197D02*
Y672200D01*
X325139D01*
X326805Y673866D01*
Y677198D01*
X325139Y678864D01*
X320140D01*
X316808Y680530D02*
X310143Y673866D01*
X316808D02*
X310143Y680530D01*
X316808Y677198D02*
X310143D01*
X313476Y673866D02*
Y680530D01*
X306811D02*
X300147Y673866D01*
X306811D02*
X300147Y680530D01*
X306811Y677198D02*
X300147D01*
X303479Y673866D02*
Y680530D01*
X370000Y395100D02*
Y405097D01*
X366668Y401764D01*
X363335Y405097D01*
Y395100D01*
X358337Y401764D02*
X355005D01*
X353338Y400098D01*
Y395100D01*
X358337D01*
X360003Y396766D01*
X358337Y398432D01*
X353338D01*
X350006Y401764D02*
X343342Y395100D01*
X346674Y398432D01*
X343342Y401764D01*
X350006Y395100D01*
X330013Y405097D02*
X326680D01*
X328346D01*
Y395100D01*
X330013D01*
X326680D01*
X321682D02*
Y401764D01*
X316684D01*
X315018Y400098D01*
Y395100D01*
X311685Y391768D02*
Y401764D01*
X306687D01*
X305021Y400098D01*
Y396766D01*
X306687Y395100D01*
X311685D01*
X301688Y401764D02*
Y396766D01*
X300022Y395100D01*
X295024D01*
Y401764D01*
X290026Y403431D02*
Y401764D01*
X291692D01*
X288359D01*
X290026D01*
Y396766D01*
X288359Y395100D01*
X351800Y493300D02*
Y508535D01*
X344182D01*
X341643Y505996D01*
Y500917D01*
X344182Y498378D01*
X351800D01*
X346722D02*
X341643Y493300D01*
X328947D02*
X334026D01*
X336565Y495839D01*
Y500917D01*
X334026Y503457D01*
X328947D01*
X326408Y500917D01*
Y498378D01*
X336565D01*
X321330Y503457D02*
X316251Y493300D01*
X311173Y503457D01*
X295938Y508535D02*
X306095D01*
Y500917D01*
X301016Y503457D01*
X298477D01*
X295938Y500917D01*
Y495839D01*
X298477Y493300D01*
X303556D01*
X306095Y495839D01*
X290860Y493300D02*
Y495839D01*
X288321D01*
Y493300D01*
X290860D01*
X278164Y505996D02*
X275625Y508535D01*
X270546D01*
X268007Y505996D01*
Y495839D01*
X270546Y493300D01*
X275625D01*
X278164Y495839D01*
Y505996D01*
D34*
X350049Y837549D02*
G03*
X352549Y840049I0J2500D01*
G01*
X362549Y850049D02*
G03*
X352549Y840049I0J-10000D01*
G01*
X512000D02*
G03*
X514500Y837549I2500J0D01*
G01*
X512000Y840049D02*
G03*
X502000Y850049I-10000J0D01*
G01*
X362549D02*
X502000D01*
X667500Y837549D02*
X682500D01*
X514500D02*
X667500D01*
X182500Y837500D02*
X350049D01*
X682500Y410000D02*
Y837549D01*
X622600Y350100D02*
X682500Y410000D01*
X182500D02*
Y837500D01*
X242400Y350100D02*
X622600D01*
X182500Y410000D02*
X242400Y350100D01*
D35*
X439000Y847500D02*
X446500D01*
X392500Y842500D02*
X395000Y840000D01*
X390000D02*
X395000D01*
X390000D02*
X392500Y842500D01*
Y837500D02*
Y842500D01*
X432500Y837500D02*
Y842500D01*
X430000Y840000D02*
X432500Y842500D01*
X430000Y840000D02*
X435000D01*
X432500Y842500D02*
X435000Y840000D01*
X452500Y842500D02*
X455000Y840000D01*
X450000D02*
X455000D01*
X450000D02*
X452500Y842500D01*
Y837500D02*
Y842500D01*
X472500Y837500D02*
Y842500D01*
X470000Y840000D02*
X472500Y842500D01*
X470000Y840000D02*
X475000D01*
X472500Y842500D02*
X475000Y840000D01*
X411500Y842500D02*
X414000Y840000D01*
X409000D02*
X414000D01*
X409000D02*
X411500Y842500D01*
Y827500D02*
Y842500D01*
Y827500D02*
X421500D01*
X465500Y844500D02*
Y847500D01*
Y844500D02*
X479500D01*
Y847500D01*
X446500D02*
X479500D01*
X425500Y844500D02*
Y847500D01*
X439000D01*
Y844500D02*
Y847500D01*
X425500Y844500D02*
X439000D01*
D36*
X359439Y454150D02*
G03*
X368420Y457870I0J12700D01*
G01*
D02*
G03*
X377400Y479550I-21680J21680D01*
G01*
X386380Y513930D02*
G03*
X377400Y492250I21680J-21680D01*
G01*
X415500Y530350D02*
G03*
X393820Y521370I0J-30661D01*
G01*
X475280D02*
G03*
X453600Y530350I-21680J-21680D01*
G01*
X491700Y492250D02*
G03*
X482720Y513930I-30661J0D01*
G01*
X491700Y446711D02*
G03*
X495420Y437730I12700J0D01*
G01*
D02*
G03*
X517100Y428750I21680J21680D01*
G01*
X251000Y454150D02*
X359439D01*
X377400Y479550D02*
Y492250D01*
X386380Y513930D02*
X393820Y521370D01*
X415500Y530350D02*
X453600D01*
X475280Y521370D02*
X482720Y513930D01*
X491700Y446711D02*
Y492250D01*
X517100Y428750D02*
X587250D01*
D59*
X283500Y773000D02*
G03*
X283500Y773000I-1000J0D01*
G01*
X595250Y467750D02*
G03*
X595250Y467750I-1000J0D01*
G01*
D101*
X254500Y784902D02*
X267500D01*
X297500D02*
X310500D01*
X587250Y449750D02*
Y456750D01*
Y424750D02*
Y432750D01*
Y401750D02*
Y407750D01*
Y476750D02*
Y486750D01*
Y370750D02*
Y379750D01*
X527250Y486750D02*
X587250D01*
X527250Y370750D02*
Y486750D01*
Y370750D02*
X587250D01*
M02*
